<svg width="38" height="38" viewBox="0 0 38 38" fill="none" xmlns="http://www.w3.org/2000/svg">
<path d="M20 34.5H21.5V33V22V20.5H20H17.5V18.5H20H21.5V17V14C21.5 12.32 21.8759 11.2055 22.4145 10.5376C22.9107 9.92244 23.6941 9.5 25 9.50001L25.0043 9.49999C25.2788 9.49921 25.7563 9.6256 26.5346 9.88108C26.602 9.90321 26.6728 9.92673 26.7464 9.95118C26.9758 10.0274 27.2326 10.1128 27.5 10.1933V10.5H26C25.2986 10.5 24.6448 10.6702 24.0869 11.0425C23.5342 11.4113 23.1795 11.9089 22.9549 12.3962C22.5338 13.3103 22.5 14.3526 22.5 15V17V18.5H24H26.5V20.5H24H22.5V22V33V34.5H24H30C31.2413 34.5 32.3882 34.0684 33.2283 33.2283C34.0684 32.3882 34.5 31.2413 34.5 30V7C34.5 5.75865 34.0684 4.61184 33.2283 3.77174C32.3882 2.93163 31.2413 2.5 30 2.5H7C5.75865 2.5 4.61184 2.93163 3.77174 3.77174C2.93163 4.61184 2.5 5.75865 2.5 7V30C2.5 31.2413 2.93163 32.3882 3.77174 33.2283C4.61184 34.0684 5.75865 34.5 7 34.5H20Z" stroke="#385984" stroke-width="3"/>
</svg>
