<svg width="38" height="38" viewBox="0 0 38 38" fill="none" xmlns="http://www.w3.org/2000/svg">
<path d="M13 3.5C7.7233 3.5 3.5 7.7233 3.5 13V26C3.5 31.2767 7.7233 35.5 13 35.5H26C31.2767 35.5 35.5 31.2767 35.5 26V13C35.5 7.7233 31.2767 3.5 26 3.5H13ZM29.8377 9.41762C29.8404 9.4163 29.8419 9.4157 29.842 9.41574C29.842 9.41578 29.8406 9.41643 29.8377 9.41762ZM29.5843 9.15802C29.5843 9.15808 29.5837 9.15964 29.5823 9.16252C29.5835 9.1594 29.5842 9.15796 29.5843 9.15802ZM20 12.5C21.69 12.5 23.2998 13.3658 24.5266 14.805C25.7565 16.2479 26.5 18.1584 26.5 20C26.5 23.6199 23.6199 26.5 20 26.5C18.1584 26.5 16.2479 25.7565 14.805 24.5266C13.3658 23.2998 12.5 21.69 12.5 20C12.5 18.2715 13.4023 16.3828 14.8926 14.8926C16.3828 13.4023 18.2715 12.5 20 12.5ZM20 13.5C19.3363 13.5 18.4496 13.5227 17.5818 13.686C16.7448 13.8435 15.7092 14.1694 14.9393 14.9393C14.1694 15.7092 13.8435 16.7448 13.686 17.5818C13.5227 18.4496 13.5 19.3363 13.5 20C13.5 20.6478 13.5183 21.3575 13.7183 22.0545C13.9333 22.804 14.3286 23.4499 14.9393 24.0607C15.7092 24.8306 16.7448 25.1565 17.5818 25.314C18.4496 25.4773 19.3363 25.5 20 25.5C20.6478 25.5 21.3575 25.4817 22.0545 25.2817C22.804 25.0667 23.4499 24.6714 24.0607 24.0607C24.6714 23.4499 25.0667 22.804 25.2817 22.0545C25.4817 21.3575 25.5 20.6478 25.5 20C25.5 19.3363 25.4773 18.4496 25.314 17.5818C25.1565 16.7448 24.8306 15.7092 24.0607 14.9393C23.4499 14.3286 22.804 13.9333 22.0545 13.7183C21.3575 13.5183 20.6478 13.5 20 13.5Z" stroke="#385984" stroke-width="3"/>
</svg>
