<svg width="38" height="38" viewBox="0 0 38 38" fill="none" xmlns="http://www.w3.org/2000/svg">
<path d="M20.5 26.5H19.5V17.5H20.5V18V21V21.0016V21.0034V21.0053V21.0073V21.0095V21.0119V21.0144V21.017V21.0198V21.0227V21.0258V21.029V21.0323V21.0358V21.0394V21.0432V21.0471V21.0511V21.0553V21.0596V21.0641V21.0687V21.0734V21.0782V21.0832V21.0884V21.0936V21.099V21.1045V21.1102V21.116V21.1219V21.1279V21.1341V21.1404V21.1468V21.1534V21.1601V21.1669V21.1738V21.1809V21.188V21.1953V21.2028V21.2103V21.218V21.2258V21.2337V21.2417V21.2499V21.2581V21.2665V21.275V21.2837V21.2924V21.3013V21.3102V21.3193V21.3285V21.3378V21.3472V21.3568V21.3664V21.3762V21.386V21.396V21.4061V21.4163V21.4266V21.437V21.4475V21.4582V21.4689V21.4797V21.4907V21.5017V21.5129V21.5241V21.5355V21.5469V21.5585V21.5701V21.5819V21.5937V21.6057V21.6177V21.6299V21.6421V21.6545V21.6669V21.6794V21.6921V21.7048V21.7176V21.7305V21.7435V21.7566V21.7698V21.7831V21.7964V21.8099V21.8234V21.837V21.8507V21.8645V21.8784V21.8924V21.9065V21.9206V21.9348V21.9491V21.9635V21.978V21.9926V22.0072V22.0219V22.0367V22.0516V22.0665V22.0816V22.0967V22.1119V22.1271V22.1424V22.1579V22.1733V22.1889V22.2045V22.2202V22.236V22.2519V22.2678V22.2838V22.2998V22.316V22.3322V22.3484V22.3648V22.3812V22.3976V22.4142V22.4308V22.4474V22.4641V22.4809V22.4978V22.5147V22.5317V22.5487V22.5658V22.5829V22.6002V22.6174V22.6348V22.6521V22.6696V22.6871V22.7046V22.7222V22.7399V22.7576V22.7754V22.7932V22.8111V22.829V22.847V22.865V22.8831V22.9012V22.9194V22.9376V22.9559V22.9742V22.9926V23.011V23.0294V23.0479V23.0664V23.085V23.1037V23.1223V23.141V23.1598V23.1786V23.1974V23.2163V23.2352V23.2541V23.2731V23.2921V23.3112V23.3302V23.3494V23.3685V23.3877V23.4069V23.4262V23.4455V23.4648V23.4842V23.5035V23.5229V23.5424V23.5619V23.5813V23.6009V23.6204V23.64V23.6591V23.6596V23.6792V23.6989V23.7185V23.7382V23.7579V23.7777V23.7974V23.8172V23.837V23.8569V23.8767V23.8965V23.9164V23.9363V23.9562V23.9762V23.9961V24.016V24.036V24.056V24.076V24.096V24.116V24.136V24.1561V24.1761V24.1962V24.2163V24.2364V24.2564V24.2765V24.2966V24.3167V24.3368V24.357V24.3771V24.3972V24.4173V24.4374V24.4576V24.4777V24.4978V24.518V24.5381V24.5582V24.5784V24.5985V24.6186V24.6387V24.6588V24.6789V24.699V24.7191V24.7392V24.7593V24.7794V24.7995V24.8195V24.8396V24.8596V24.8796V24.8997V24.9197V24.9397V24.9596V24.9796V24.9996V25.0195V25.0394V25.0593V25.0792V25.0991V25.1189V25.1388V25.1586V25.1784V25.1982V25.2179V25.2377V25.2574V25.2771V25.2967V25.3164V25.336V25.3556V25.3752V25.3947V25.4142V25.4337V25.4532V25.4726V25.492V25.5114V25.5307V25.55V25.5693V25.5886V25.6078V25.627V25.6461V25.6652V25.6843V25.7034V25.7224V25.7414V25.7603V25.7792V25.7981V25.8169V25.8357V25.8544V25.8731V25.8918V25.9104V25.929V25.9475V25.966V25.9844V26.0028V26.0212V26.0395V26.0577V26.0759V26.0941V26.1122V26.1303V26.1483V26.1663V26.1842V26.2021V26.2199V26.2376V26.2553V26.273V26.2906V26.3081V26.3256V26.3431V26.3604V26.3778V26.395V26.4122V26.4294V26.4464V26.4635V26.4804V26.4973V26.5ZM27.5 21V26.5H26.5V21C26.5 20.0128 26.3319 19.1515 25.8762 18.5006C25.5883 18.0892 25.2318 17.8259 24.8657 17.6733C25.2007 17.5673 25.581 17.5 26 17.5C26.5391 17.5 26.7717 17.6569 26.9653 17.9669C27.2444 18.4141 27.5 19.3198 27.5 21ZM31 3.5H8C6.75865 3.5 5.61184 3.93163 4.77174 4.77174C3.93163 5.61184 3.5 6.75865 3.5 8V31C3.5 32.2413 3.93163 33.3882 4.77174 34.2283C5.61184 35.0684 6.75865 35.5 8 35.5H31C32.2413 35.5 33.3882 35.0684 34.2283 34.2283C35.0684 33.3882 35.5 32.2413 35.5 31V8C35.5 6.75865 35.0684 5.61184 34.2283 4.77174C33.3882 3.93163 32.2413 3.5 31 3.5ZM12.5 26.5V17.5H13.5V26.5H12.5ZM13 12.5C12.6868 12.5 12.2034 12.37 11.8139 12.133C11.7251 12.079 11.6553 12.0278 11.602 11.983C11.6448 11.9471 11.7023 11.9045 11.7788 11.8566C12.1255 11.6393 12.6008 11.5 13 11.5C13.2423 11.5 13.3392 11.5777 13.3798 11.6202C13.4309 11.6739 13.5 11.7903 13.5 12C13.5 12.2863 13.4205 12.3914 13.4055 12.408C13.398 12.4163 13.382 12.4325 13.3366 12.4507C13.2874 12.4705 13.1834 12.5 13 12.5ZM11.4827 12.1133C11.4826 12.1133 11.4831 12.1119 11.4846 12.1091C11.4835 12.1119 11.4828 12.1133 11.4827 12.1133Z" stroke="#385984" stroke-width="3"/>
</svg>
