<svg width="40" height="40" viewBox="0 0 40 40" fill="none" xmlns="http://www.w3.org/2000/svg">
<path d="M26 28H34L32 26C31.6816 25.6855 31.1723 25.4109 31 25C30.8277 24.5891 30.9999 24.4448 31 24V18C31.0003 15.9316 30.2088 14.6891 29 13C27.7912 11.3109 25.9744 9.68994 24 9V8C24 7.11594 23.6329 6.62512 23 6C22.3671 5.37488 21.8951 5 21 5C20.1049 5 18.6329 5.37488 18 6C17.3671 6.62512 17 7.11594 17 8V9C13.0681 10.3733 10 13.6467 10 18V24C10 24.8967 9.64294 25.365 9 26L7 28H15M26 28V30C26 31.3261 24.9494 33.0623 24 34C23.0506 34.9377 22.3427 35 21 35C19.6573 35 17.9494 34.9377 17 34C16.0506 33.0623 15 31.3261 15 30V28M26 28H15" stroke="#FCFEFF" stroke-width="2" stroke-linecap="round" stroke-linejoin="round"/>
</svg>
