<svg width="44" height="56" viewBox="0 0 44 56" fill="none" xmlns="http://www.w3.org/2000/svg">
<path d="M13.25 7.58333H7.41668C5.86958 7.58333 4.38585 8.19791 3.29189 9.29188C2.19792 10.3858 1.58334 11.8696 1.58334 13.4167V48.4167C1.58334 49.9638 2.19792 51.4475 3.29189 52.5415C4.38585 53.6354 5.86958 54.25 7.41668 54.25H36.5833C38.1304 54.25 39.6142 53.6354 40.7081 52.5415C41.8021 51.4475 42.4167 49.9638 42.4167 48.4167V13.4167C42.4167 11.8696 41.8021 10.3858 40.7081 9.29188C39.6142 8.19791 38.1304 7.58333 36.5833 7.58333H30.75M13.25 7.58333C13.25 9.13043 13.8646 10.6142 14.9586 11.7081C16.0525 12.8021 17.5362 13.4167 19.0833 13.4167H24.9167C26.4638 13.4167 27.9475 12.8021 29.0415 11.7081C30.1354 10.6142 30.75 9.13043 30.75 7.58333M13.25 7.58333C13.25 6.03624 13.8646 4.55251 14.9586 3.45854C16.0525 2.36458 17.5362 1.75 19.0833 1.75H24.9167C26.4638 1.75 27.9475 2.36458 29.0415 3.45854C30.1354 4.55251 30.75 6.03624 30.75 7.58333M22 28H30.75M22 39.6667H30.75M13.25 28H13.2792M13.25 39.6667H13.2792" stroke="#FAFCFF" stroke-width="3" stroke-linecap="round" stroke-linejoin="round"/>
</svg>
