<svg width="62" height="50" viewBox="0 0 62 50" fill="none" xmlns="http://www.w3.org/2000/svg">
<path d="M45.5833 48.3334H60.1666V42.5C60.1665 40.6816 59.5998 38.9084 58.5454 37.4268C57.4909 35.9453 56.0011 34.8292 54.283 34.2335C52.5649 33.6378 50.7039 33.5922 48.9587 34.103C47.2134 34.6138 45.6707 35.6557 44.545 37.0838M45.5833 48.3334H16.4166M45.5833 48.3334V42.5C45.5833 40.5867 45.2158 38.7579 44.545 37.0838M16.4166 48.3334H1.83331V42.5C1.83345 40.6816 2.40013 38.9084 3.45458 37.4268C4.50903 35.9453 5.99886 34.8292 7.71696 34.2335C9.43507 33.6378 11.2961 33.5922 13.0413 34.103C14.7865 34.6138 16.3292 35.6557 17.455 37.0838M16.4166 48.3334V42.5C16.4166 40.5867 16.7841 38.7579 17.455 37.0838M17.455 37.0838C18.5381 34.377 20.4074 32.0568 22.8217 30.4225C25.2359 28.7881 28.0845 27.9146 31 27.9146C33.9154 27.9146 36.764 28.7881 39.1783 30.4225C41.5926 32.0568 43.4619 34.377 44.545 37.0838M39.75 10.4167C39.75 12.7373 38.8281 14.9629 37.1872 16.6039C35.5462 18.2448 33.3206 19.1667 31 19.1667C28.6793 19.1667 26.4537 18.2448 24.8128 16.6039C23.1718 14.9629 22.25 12.7373 22.25 10.4167C22.25 8.09604 23.1718 5.87045 24.8128 4.2295C26.4537 2.58856 28.6793 1.66669 31 1.66669C33.3206 1.66669 35.5462 2.58856 37.1872 4.2295C38.8281 5.87045 39.75 8.09604 39.75 10.4167V10.4167ZM57.25 19.1667C57.25 20.7138 56.6354 22.1975 55.5414 23.2915C54.4475 24.3854 52.9637 25 51.4166 25C49.8695 25 48.3858 24.3854 47.2919 23.2915C46.1979 22.1975 45.5833 20.7138 45.5833 19.1667C45.5833 17.6196 46.1979 16.1359 47.2919 15.0419C48.3858 13.9479 49.8695 13.3334 51.4166 13.3334C52.9637 13.3334 54.4475 13.9479 55.5414 15.0419C56.6354 16.1359 57.25 17.6196 57.25 19.1667ZM16.4166 19.1667C16.4166 20.7138 15.8021 22.1975 14.7081 23.2915C13.6141 24.3854 12.1304 25 10.5833 25C9.03622 25 7.55249 24.3854 6.45852 23.2915C5.36456 22.1975 4.74998 20.7138 4.74998 19.1667C4.74998 17.6196 5.36456 16.1359 6.45852 15.0419C7.55249 13.9479 9.03622 13.3334 10.5833 13.3334C12.1304 13.3334 13.6141 13.9479 14.7081 15.0419C15.8021 16.1359 16.4166 17.6196 16.4166 19.1667Z" stroke="#FAFCFF" stroke-width="3" stroke-linecap="round" stroke-linejoin="round"/>
</svg>
