<svg width="40" height="40" viewBox="0 0 40 40" fill="none" xmlns="http://www.w3.org/2000/svg">
<path d="M30 31C27.4682 33.5005 24.5805 35 21 35C17.4195 35 13.5318 33.5005 11 31C8.46823 28.4995 7 25.5363 7 22C7 18.4637 8.46823 14.5005 11 12C11 12 11.625 15.3334 15 17C15 13.6667 15.8049 8.3333 20 5C23.3986 8.3333 27.3574 9.39003 30 12C31.2557 13.2366 32.3212 15.382 33 17C33.6788 18.618 34.0021 20.2486 34 22C34.0024 23.7513 33.6785 25.382 33 27C32.3215 28.618 31.2554 29.7632 30 31V31Z" stroke="#FCFEFF" stroke-width="2" stroke-linecap="round" stroke-linejoin="round"/>
<path d="M16 27C16.5806 27.5808 18.2143 27.761 19 28C19.7857 28.239 20.1944 28.1592 21 28C21.8056 27.8408 22.3642 27.5198 23 27C23.6358 26.4802 24.6839 25.758 25 25C25.3161 24.242 25.078 23.8176 25 23C24.922 22.1824 24.4537 20.6845 24 20C23.5463 19.3155 22.7226 19.3902 22 19C21.2774 18.6098 20.8212 18.0039 20 18L18 23H15C15 24.28 15.0234 26.025 16 27Z" stroke="#FCFEFF" stroke-width="2" stroke-linecap="round" stroke-linejoin="round"/>
</svg>
