<svg width="22" height="22" viewBox="0 0 22 22" fill="none" xmlns="http://www.w3.org/2000/svg">
<path d="M17 16L13 19C12.826 19.1708 12.2274 19.9075 12 20C11.7726 20.0925 12.2461 20 12 20C11.7539 20 11.2274 20.0925 11 20C10.7726 19.9075 10.174 19.1708 9.99999 19L5.99999 16C4.95114 14.9711 4.28935 13.4271 3.99999 12C3.71063 10.5729 4.43232 9.34431 4.99999 8C5.56766 6.65569 5.76663 4.80839 6.99999 4C8.23335 3.19161 10.5166 3 12 3C13.4833 3 14.7666 3.19161 16 4C17.2334 4.80839 17.4323 6.65569 18 8C18.5677 9.34431 19.2894 10.5729 19 12C18.7106 13.4271 18.0488 14.9711 17 16V16Z" stroke="#385984" stroke-width="2" stroke-linecap="round" stroke-linejoin="round"/>
<path d="M14 10C14 10.7956 13.5626 11.4374 13 12C12.4374 12.5626 11.7956 13 11 13C10.2044 13 9.56261 12.5626 9 12C8.43739 11.4374 8 10.7956 8 10C8 9.20435 8.43739 8.56261 9 8C9.56261 7.43739 10.2044 7 11 7C11.7956 7 12.4374 7.43739 13 8C13.5626 8.56261 14 9.20435 14 10V10Z" stroke="#385984" stroke-width="2" stroke-linecap="round" stroke-linejoin="round"/>
</svg>
