<svg width="24" height="24" viewBox="0 0 24 24" fill="none" xmlns="http://www.w3.org/2000/svg">
<path d="M5 8H19M5 8C4.46957 8 4.37507 7.37507 4 7C3.62493 6.62493 3 6.53043 3 6C3 5.46957 3.62493 5.37507 4 5C4.37507 4.62493 4.46957 4 5 4H19C19.5304 4 19.6249 4.62493 20 5C20.3751 5.37507 21 5.46957 21 6C21 6.53043 20.3751 6.62493 20 7C19.6249 7.37507 19.5304 8 19 8M5 8V18C5 18.5304 5.62493 18.6249 6 19C6.37507 19.3751 6.46957 20 7 20H17C17.5304 20 17.6249 19.3751 18 19C18.3751 18.6249 19 18.5304 19 18V8M10 12H14" stroke="#131F2E" stroke-width="2" stroke-linecap="round" stroke-linejoin="round"/>
</svg>
