<svg width="24" height="24" viewBox="0 0 24 24" fill="none" xmlns="http://www.w3.org/2000/svg">
<path d="M19 21V5C19 4.46957 18.3751 4.37507 18 4C17.6249 3.62493 17.5304 3 17 3H7C6.46957 3 6.37507 3.62493 6 4C5.62493 4.37507 5 4.46957 5 5V21M19 21H21M19 21H14M5 21H3M5 21H10M9 7H10M9 11H10M14 7H15M14 11H15M10 21V16C10 15.7348 9.81246 15.1875 10 15C10.1875 14.8125 10.7348 15 11 15H13C13.2652 15 13.8125 14.8125 14 15C14.1875 15.1875 14 15.7348 14 16V21M10 21H14" stroke="#131F2E" stroke-width="2" stroke-linecap="round" stroke-linejoin="round"/>
</svg>
