<svg width="24" height="24" viewBox="0 0 24 24" fill="none" xmlns="http://www.w3.org/2000/svg">
<path d="M18 16L13 20C12.8145 20.1809 13.2426 20.9021 13 21C12.7575 21.0979 12.2626 21 12 21C11.7375 21 11.2426 21.0979 11 21C10.7575 20.9021 11.1856 20.1809 11 20L6.00002 16C4.88124 14.9106 4.30866 13.5111 4.00002 12C3.69137 10.4889 4.3945 9.42338 5.00002 8C5.60553 6.57662 6.68443 4.85594 8.00002 4C9.3156 3.14406 10.4178 3 12 3C13.5822 3 14.6844 3.14406 16 4C17.3156 4.85594 18.3945 6.57662 19 8C19.6055 9.42338 20.3087 10.4889 20 12C19.6914 13.5111 19.1188 14.9106 18 16V16Z" stroke="#131F2E" stroke-width="2" stroke-linecap="round" stroke-linejoin="round"/>
<path d="M15 11C15 11.7956 14.5626 12.4374 14 13C13.4374 13.5626 12.7956 14 12 14C11.2044 14 10.5626 13.5626 10 13C9.43739 12.4374 9 11.7956 9 11C9 10.2044 9.43739 9.56261 10 9C10.5626 8.43739 11.2044 8 12 8C12.7956 8 13.4374 8.43739 14 9C14.5626 9.56261 15 10.2044 15 11V11Z" stroke="#131F2E" stroke-width="2" stroke-linecap="round" stroke-linejoin="round"/>
</svg>
