<svg width="24" height="24" viewBox="0 0 24 24" fill="none" xmlns="http://www.w3.org/2000/svg">
<path d="M3 8L11 13C11.3287 13.2193 11.6049 14 12 14C12.3951 14 12.6713 13.2193 13 13L21 8M5 19H19C19.5304 19 19.6249 18.3751 20 18C20.3751 17.6249 21 17.5304 21 17V7C21 6.46957 20.3751 6.37507 20 6C19.6249 5.62493 19.5304 5 19 5H5C4.46957 5 4.37507 5.62493 4 6C3.62493 6.37507 3 6.46957 3 7V17C3 17.5304 3.62493 17.6249 4 18C4.37507 18.3751 4.46957 19 5 19Z" stroke="#131F2E" stroke-width="2" stroke-linecap="round" stroke-linejoin="round"/>
</svg>
