<svg width="24" height="24" viewBox="0 0 24 24" fill="none" xmlns="http://www.w3.org/2000/svg">
<path d="M3 5.00008C3 4.46965 3.62493 4.37515 4 4.00008C4.37507 3.62501 4.46957 3.00008 5 3.00008H8C8.20979 3.00024 8.82987 2.87732 9 3.00008C9.17013 3.12283 8.93371 3.80103 9 4.00008L11 8.00008C11.0759 8.22842 11.0922 8.77782 11 9.00008C10.9078 9.22233 10.2153 8.89253 10 9.00008L8 11.0001C9.10632 13.4486 10.5515 14.8938 13 16.0001L15 14.0001C15.1075 13.7848 14.7777 13.0923 15 13.0001C15.2223 12.9079 15.7717 12.9242 16 13.0001L20 15.0001C20.1992 15.0664 20.8772 14.8297 21 15.0001C21.1228 15.1704 21.0001 15.7901 21 16.0001V19.0001C21 19.5305 20.3751 19.625 20 20.0001C19.6249 20.3752 19.5304 21.0001 19 21.0001H18C9.716 21.0001 3 14.2841 3 6.00008V5.00008Z" stroke="#131F2E" stroke-width="2" stroke-linecap="round" stroke-linejoin="round"/>
</svg>
