<svg width="68" height="91" viewBox="0 0 68 91" fill="none" xmlns="http://www.w3.org/2000/svg">
<path d="M19 38L3 86L21 78L32 90L31 39L19 38Z" fill="#7E57C2"/>
<path d="M22 75L7 82L21 40L28 41L29 83L22 75Z" fill="white"/>
<path opacity="0.3" d="M31 50V39L19 38L16 48C17.2375 49.8907 17.8289 52.4642 20 53C22.929 53.7163 26.7708 50 30 50C30.2303 50.0053 30.7749 49.9628 31 50Z" fill="black"/>
<path d="M42 38L68 84L51 77L40 91L31 40L42 38Z" fill="#7E57C2"/>
<path d="M34 42L41 40L63 79L50 74L42 85L34 42Z" fill="white"/>
<path opacity="0.3" d="M42 38L31 40L33 50C36.1655 50 40.1431 53.7431 43 53C45.1893 52.424 45.7259 49.9787 47 48L42 38Z" fill="black"/>
<path d="M66 26C66 28.5449 59.9615 29.7061 59 32C58.0088 34.3804 61.8561 39.0178 60 41C58.1439 42.9822 51.5726 41.5458 49 43C46.4274 44.4542 46.0626 49.2296 43 50C40.0302 50.7473 36.2742 47 33 47C29.7258 47 25.9549 50.7329 23 50C19.9374 49.2296 19.5466 44.4427 17 43C14.4534 41.5573 7.88211 42.9995 6 41C4.11789 39.0004 7.99488 34.3775 7 32C6.04224 29.6917 0 28.5449 0 26C0 23.4551 6.04224 21.2938 7 19C7.99488 16.6196 4.14759 11.9822 6 10C7.85241 8.01776 14.4237 9.45421 17 8C19.5763 6.54578 19.9374 1.77038 23 0.999995C25.9698 0.252689 29.7258 4 33 4C36.2742 4 40.0451 0.252689 43 0.999995C46.0589 1.77038 46.4497 6.55732 49 8C51.5503 9.44267 58.1216 8.00045 60 10C61.8784 11.9995 58.0088 16.6369 59 19C59.9689 21.2852 66 23.4436 66 26Z" fill="#7E57C2"/>
<path opacity="0.6" d="M63 26C63 28.2851 57.8714 29.9388 57 32C56.11 34.1369 58.6572 38.2237 57 40C55.3428 41.7764 50.3015 40.6946 48 42C45.6985 43.3054 45.7372 47.3052 43 48C40.3597 48.6687 35.9271 45 33 45C30.0729 45 26.6292 48.6687 24 48C21.2628 47.3052 21.2791 43.2967 19 42C16.7209 40.7034 11.6758 41.7967 10 40C8.32418 38.2033 10.8863 34.1369 10 32C9.13975 29.9388 4 28.2851 4 26C4 23.7149 9.12485 22.0613 10 20C10.8863 17.8632 8.3428 13.7764 10 12C11.6572 10.2237 16.7023 11.3054 19 10C21.2977 8.69465 21.2628 4.69486 24 4.00002C26.6366 3.33134 31.0766 7.00002 34 7.00002C36.9234 7.00002 40.3597 3.33134 43 4.00002C45.7372 4.69486 45.7246 8.70337 48 10C50.2754 11.2967 55.3279 10.1888 57 12C58.6721 13.8113 56.11 17.8632 57 20C57.8751 22.0613 63 23.7033 63 26Z" fill="white"/>
<path d="M33 44C46.531 44 57 35.4934 57 25C57 14.5066 46.531 6 33 6C19.469 6 8 14.5066 8 25C8 35.4934 19.469 44 33 44Z" fill="white"/>
<path d="M21 16C23.9393 14.8773 26.2337 14.4866 30 11H39V34H44V39H23V34H29V19L23 21L21 16Z" fill="#263238"/>
</svg>
