<svg width="40" height="40" viewBox="0 0 40 40" fill="none" xmlns="http://www.w3.org/2000/svg">
<path d="M24.5867 18.6134L19.2583 15.06C19.0071 14.8924 18.715 14.7962 18.4134 14.7817C18.1117 14.7672 17.8117 14.8349 17.5456 14.9777C17.2794 15.1204 17.0571 15.3328 16.9022 15.5922C16.7474 15.8515 16.666 16.148 16.6667 16.45V23.555C16.6666 23.8568 16.7485 24.1529 16.9035 24.4117C17.0586 24.6706 17.281 24.8825 17.5471 25.0248C17.8131 25.1672 18.1128 25.2346 18.4142 25.22C18.7156 25.2054 19.0073 25.1092 19.2583 24.9417L24.5867 21.3884C24.8149 21.2362 25.0021 21.03 25.1315 20.7881C25.261 20.5462 25.3287 20.2761 25.3287 20.0017C25.3287 19.7274 25.261 19.4572 25.1315 19.2153C25.0021 18.9734 24.8149 18.7672 24.5867 18.615V18.6134Z" stroke="#FCFEFF" stroke-width="2" stroke-linecap="round" stroke-linejoin="round"/>
<path d="M35 20C35 21.9698 34.612 23.9204 33.8582 25.7403C33.1044 27.5601 31.9995 29.2137 30.6066 30.6066C29.2137 31.9995 27.5601 33.1044 25.7403 33.8582C23.9204 34.612 21.9698 35 20 35C18.0302 35 16.0796 34.612 14.2597 33.8582C12.4399 33.1044 10.7863 31.9995 9.3934 30.6066C8.00052 29.2137 6.89563 27.5601 6.14181 25.7403C5.38799 23.9204 5 21.9698 5 20C5 16.0218 6.58035 12.2064 9.3934 9.3934C12.2064 6.58035 16.0218 5 20 5C23.9782 5 27.7936 6.58035 30.6066 9.3934C33.4196 12.2064 35 16.0218 35 20Z" stroke="#FCFEFF" stroke-width="2" stroke-linecap="round" stroke-linejoin="round"/>
</svg>
