<svg width="56" height="56" viewBox="0 0 56 56" fill="none" xmlns="http://www.w3.org/2000/svg">
<path d="M19.25 28.0001L25.0833 33.8334L36.75 22.1667M54.25 28.0001C54.25 31.4473 53.571 34.8607 52.2518 38.0455C50.9327 41.2303 48.9991 44.1241 46.5616 46.5616C44.124 48.9992 41.2302 50.9327 38.0454 52.2519C34.8606 53.5711 31.4472 54.2501 28 54.2501C24.5528 54.2501 21.1394 53.5711 17.9546 52.2519C14.7698 50.9327 11.876 48.9992 9.43845 46.5616C7.00091 44.1241 5.06735 41.2303 3.74816 38.0455C2.42898 34.8607 1.75 31.4473 1.75 28.0001C1.75 21.0381 4.51562 14.3613 9.43845 9.43851C14.3613 4.51568 21.0381 1.75006 28 1.75006C34.9619 1.75006 41.6387 4.51568 46.5616 9.43851C51.4844 14.3613 54.25 21.0381 54.25 28.0001Z" stroke="#FCFEFF" stroke-width="3" stroke-linecap="round" stroke-linejoin="round"/>
</svg>
