<svg width="134" height="134" viewBox="0 0 134 134" fill="none" xmlns="http://www.w3.org/2000/svg">
<path d="M134 67C134 104.003 104.003 134 67 134C29.9969 134 0 104.003 0 67C0 29.9969 29.9969 0 67 0C104.003 0 134 29.9969 134 67ZM20 67C20 92.9574 41.0426 114 67 114C92.9574 114 114 92.9574 114 67C114 41.0426 92.9574 20 67 20C41.0426 20 20 41.0426 20 67Z" fill="#EBEBEB"/>
<path d="M67 10C67 4.47715 71.5016 -0.0764188 76.9631 0.744862C86.675 2.20532 95.9896 5.79 104.223 11.2915C115.241 18.6536 123.829 29.1176 128.9 41.3602C133.971 53.6029 135.298 67.0743 132.713 80.0711C130.127 93.0678 123.746 105.006 114.376 114.376C105.006 123.746 93.0678 130.127 80.0711 132.713C67.0743 135.298 53.6029 133.971 41.3602 128.9C29.1176 123.829 18.6536 115.241 11.2915 104.223C5.79 95.9896 2.20532 86.675 0.744862 76.9631C-0.0764191 71.5016 4.47715 67 10 67V67C15.5228 67 19.8936 71.5266 21.0598 76.9249C22.3022 82.6753 24.6196 88.171 27.9209 93.1118C33.0854 100.841 40.4258 106.865 49.0139 110.422C57.602 113.98 67.0521 114.91 76.1692 113.097C85.2864 111.283 93.661 106.807 100.234 100.234C106.807 93.661 111.283 85.2864 113.097 76.1692C114.91 67.0521 113.98 57.602 110.422 49.0139C106.865 40.4258 100.841 33.0854 93.1118 27.9209C88.171 24.6196 82.6753 22.3022 76.9249 21.0598C71.5266 19.8936 67 15.5228 67 10V10Z" fill="#FFC107"/>
</svg>
