<svg width="133" height="134" viewBox="0 0 133 134" fill="none" xmlns="http://www.w3.org/2000/svg">
<path d="M133 67C133 104.003 103.421 134 66.9343 134C30.4472 134 0.86853 104.003 0.86853 67C0.86853 29.9969 30.4472 0 66.9343 0C103.421 0 133 29.9969 133 67ZM20.5896 67C20.5896 92.9574 41.3388 114 66.9343 114C92.5297 114 113.279 92.9574 113.279 67C113.279 41.0426 92.5297 20 66.9343 20C41.3388 20 20.5896 41.0426 20.5896 67Z" fill="#EBEBEB"/>
<path d="M66.9343 9.99975C66.9343 4.47704 71.4371 -0.0783151 76.895 0.76586C84.9961 2.01888 92.8263 4.79425 99.9731 8.97981C107.212 13.2194 113.566 18.7982 118.721 25.3976C122.056 29.6672 120.395 35.713 115.719 38.4495V38.4495C110.962 41.2334 104.914 39.4993 101.236 35.3941C98.0268 31.8121 94.278 28.7392 90.111 26.2988C85.9655 23.871 81.4921 22.1195 76.8546 21.0889C71.4634 19.8908 66.9343 15.5225 66.9343 9.99975V9.99975Z" fill="#FFC107"/>
</svg>
