<svg width="134" height="134" viewBox="0 0 134 134" fill="none" xmlns="http://www.w3.org/2000/svg">
<path d="M134 67C134 104.003 104.003 134 67 134C29.9969 134 0 104.003 0 67C0 29.9969 29.9969 0 67 0C104.003 0 134 29.9969 134 67ZM20 67C20 92.9574 41.0426 114 67 114C92.9574 114 114 92.9574 114 67C114 41.0426 92.9574 20 67 20C41.0426 20 20 41.0426 20 67Z" fill="#EBEBEB"/>
<path d="M69.0905 7.46985C69.1779 4.0617 71.0789 0.778601 74.4881 0.754702C81.0019 0.709039 90.0018 4.30918 97.1978 7.34762C101.871 9.32084 104.015 15.1154 101.61 19.5818V19.5818C98.8349 24.7352 91.058 25.7119 85.6007 23.5965C84.0678 23.0024 82.4748 22.5114 80.869 22.1296C74.7181 20.6671 68.8823 15.59 69.0444 9.26966L69.0905 7.46985Z" fill="#FFC107"/>
</svg>
