<svg width="134" height="134" viewBox="0 0 134 134" fill="none" xmlns="http://www.w3.org/2000/svg">
<path d="M134 67C134 104.003 104.003 134 67 134C29.9969 134 0 104.003 0 67C0 29.9969 29.9969 0 67 0C104.003 0 134 29.9969 134 67ZM20 67C20 92.9574 41.0426 114 67 114C92.9574 114 114 92.9574 114 67C114 41.0426 92.9574 20 67 20C41.0426 20 20 41.0426 20 67Z" fill="#EBEBEB"/>
<path d="M67 10C67 4.47715 71.5018 -0.0764517 76.9632 0.744833C88.1277 2.42374 98.7444 6.90669 107.787 13.8453C119.488 22.8239 127.9 35.4127 131.717 49.6591C135.534 63.9056 134.544 79.0135 128.9 92.6398C123.256 106.266 113.273 117.649 100.5 125.024C87.727 132.398 72.8776 135.352 58.2547 133.427C43.6319 131.502 30.053 124.805 19.6238 114.376C9.19473 103.947 2.49832 90.3681 0.573194 75.7453C-0.914537 64.4448 0.511453 53.009 4.63974 42.5008C6.6592 37.3604 12.8536 35.7386 17.6366 38.5V38.5C22.4195 41.2614 23.9413 47.367 22.2522 52.6252C20.1395 59.2021 19.4897 66.2047 20.4021 73.1347C21.7526 83.3925 26.45 92.9181 33.766 100.234C41.0819 107.55 50.6075 112.247 60.8653 113.598C71.1231 114.948 81.5398 112.876 90.5 107.703C99.4602 102.53 106.463 94.5449 110.422 84.9861C114.382 75.4274 115.076 64.8293 112.399 54.8355C109.721 44.8417 103.82 36.0108 95.6118 29.7124C90.0664 25.4573 83.6771 22.5187 76.9249 21.0598C71.5267 19.8935 67 15.5228 67 10V10Z" fill="#FFC107"/>
</svg>
