<svg width="134" height="134" viewBox="0 0 134 134" fill="none" xmlns="http://www.w3.org/2000/svg">
<path d="M134 67C134 104.003 104.003 134 67 134C29.9969 134 0 104.003 0 67C0 29.9969 29.9969 0 67 0C104.003 0 134 29.9969 134 67ZM20 67C20 92.9574 41.0426 114 67 114C92.9574 114 114 92.9574 114 67C114 41.0426 92.9574 20 67 20C41.0426 20 20 41.0426 20 67Z" fill="#EBEBEB"/>
<path d="M67 10C67 4.47715 71.5016 -0.0763923 76.963 0.744883C85.2256 1.98739 93.2131 4.76918 100.5 8.9763C110.685 14.8568 119.143 23.3147 125.024 33.5C130.904 43.6853 134 55.239 134 67C134 78.761 130.904 90.3147 125.024 100.5C119.143 110.685 110.685 119.143 100.5 125.024C90.3147 130.904 78.761 134 67 134C55.239 134 43.6853 130.904 33.5 125.024C26.2131 120.817 19.8103 115.29 14.6029 108.756C11.1609 104.437 12.8536 98.2614 17.6366 95.5C22.4195 92.7386 28.4679 94.4733 32.1771 98.5652C35.4407 102.166 39.2567 105.253 43.5 107.703C50.6449 111.828 58.7498 114 67 114C75.2502 114 83.3551 111.828 90.5 107.703C97.6449 103.578 103.578 97.6449 107.703 90.5C111.828 83.3551 114 75.2502 114 67C114 58.7498 111.828 50.6449 107.703 43.5C103.578 36.3551 97.6449 30.4219 90.5 26.2968C86.2567 23.8469 81.6747 22.086 76.9248 21.0598C71.5265 19.8936 67 15.5228 67 10Z" fill="#FFC107"/>
</svg>
