<svg width="134" height="134" viewBox="0 0 134 134" fill="none" xmlns="http://www.w3.org/2000/svg">
<path d="M134 67C134 104.003 104.003 134 67 134C29.9969 134 0 104.003 0 67C0 29.9969 29.9969 0 67 0C104.003 0 134 29.9969 134 67ZM20 67C20 92.9574 41.0426 114 67 114C92.9574 114 114 92.9574 114 67C114 41.0426 92.9574 20 67 20C41.0426 20 20 41.0426 20 67Z" fill="#EBEBEB"/>
<path d="M67 10C67 4.47715 71.5016 -0.0763921 76.963 0.744884C85.2262 1.98748 93.2142 4.76957 100.502 8.97717C110.687 14.8582 119.145 23.3169 125.025 33.503C130.906 43.6891 134.001 55.2437 134 67.0053C133.999 78.7668 130.902 90.3209 125.02 100.506C119.138 110.691 110.679 119.149 100.492 125.028C90.3059 130.908 78.751 134.002 66.9895 134C55.2279 133.998 43.6741 130.9 33.4894 125.018C26.2027 120.809 19.8005 115.281 14.5942 108.745C11.1531 104.425 12.8471 98.2501 17.6306 95.4897V95.4897C22.4141 92.7293 28.4622 94.4652 32.1705 98.558C35.4336 102.159 39.2493 105.248 43.4926 107.699C50.6371 111.826 58.742 113.999 66.9926 114C75.2433 114.001 83.3489 111.831 90.4947 107.706C97.6405 103.582 103.575 97.6491 107.701 90.5043C111.827 83.3594 113.999 75.2543 114 67.0037C114.001 58.753 111.829 50.6476 107.704 43.5021C103.579 36.3566 97.6462 30.4229 90.5011 26.2974C86.2574 23.8472 81.6751 22.0861 76.9248 21.0598C71.5265 19.8936 67 15.5228 67 10V10Z" fill="#FFC107"/>
</svg>
