<svg width="1115" height="876" viewBox="0 0 1115 876" fill="none" xmlns="http://www.w3.org/2000/svg">
<path d="M628 67C628 104.003 598.003 134 561 134C523.997 134 494 104.003 494 67C494 29.9969 523.997 0 561 0C598.003 0 628 29.9969 628 67ZM514 67C514 92.9574 535.043 114 561 114C586.957 114 608 92.9574 608 67C608 41.0426 586.957 20 561 20C535.043 20 514 41.0426 514 67Z" fill="#EBEBEB"/>
<path d="M561 10C561 4.47715 565.502 -0.0763921 570.963 0.744884C579.226 1.98748 587.214 4.76957 594.502 8.97717C604.687 14.8582 613.145 23.3169 619.025 33.503C624.906 43.6891 628.001 55.2437 628 67.0052C627.999 78.7668 624.902 90.3209 619.02 100.506C613.138 110.691 604.679 119.149 594.492 125.028C584.306 130.908 572.751 134.002 560.99 134C549.228 133.998 537.674 130.9 527.489 125.018C520.203 120.809 513.801 115.281 508.594 108.745C505.153 104.425 506.847 98.2501 511.631 95.4897C516.414 92.7293 522.462 94.4652 526.17 98.558C529.434 102.159 533.249 105.248 537.493 107.699C544.637 111.826 552.742 113.999 560.993 114C569.243 114.001 577.349 111.831 584.495 107.706C591.64 103.582 597.575 97.6491 601.701 90.5042C605.827 83.3594 607.999 75.2543 608 67.0037C608.001 58.753 605.829 50.6476 601.704 43.5021C597.579 36.3566 591.646 30.4229 584.501 26.2974C580.257 23.8472 575.675 22.0861 570.925 21.0598C565.527 19.8936 561 15.5228 561 10Z" fill="#FFC107"/>
<path d="M534.903 62.679C535.426 62.679 535.93 62.7668 536.414 62.9425C536.901 63.1181 537.336 63.3982 537.717 63.7827C538.101 64.1671 538.404 64.6776 538.627 65.3139C538.852 65.947 538.966 66.7242 538.97 67.6456C538.97 68.5107 538.872 69.2829 538.676 69.9624C538.484 70.6385 538.207 71.2135 537.846 71.6875C537.485 72.1615 537.049 72.5227 536.538 72.7713C536.028 73.0166 535.458 73.1392 534.828 73.1392C534.149 73.1392 533.549 73.0083 533.028 72.7464C532.508 72.4813 532.089 72.1217 531.771 71.6676C531.456 71.2102 531.265 70.6965 531.199 70.1264H533.322C533.405 70.4976 533.579 70.786 533.844 70.9915C534.109 71.1937 534.437 71.2947 534.828 71.2947C535.491 71.2947 535.995 71.0064 536.34 70.4297C536.684 69.8497 536.858 69.0559 536.862 68.0483H536.792C536.64 68.3466 536.434 68.6035 536.176 68.8189C535.917 69.031 535.62 69.1951 535.286 69.3111C534.954 69.4271 534.601 69.4851 534.227 69.4851C533.627 69.4851 533.091 69.3442 532.621 69.0625C532.15 68.7808 531.779 68.393 531.507 67.8991C531.235 67.4053 531.1 66.8419 531.1 66.2088C531.096 65.526 531.254 64.9179 531.572 64.3842C531.89 63.8506 532.334 63.433 532.904 63.1314C533.478 62.8265 534.144 62.6757 534.903 62.679ZM534.918 64.3693C534.583 64.3693 534.285 64.4489 534.023 64.608C533.764 64.767 533.559 64.9808 533.406 65.2493C533.257 65.5178 533.184 65.8177 533.188 66.1491C533.188 66.4839 533.261 66.7855 533.406 67.054C533.555 67.3191 533.758 67.5312 534.013 67.6903C534.271 67.8461 534.566 67.924 534.898 67.924C535.146 67.924 535.377 67.8776 535.589 67.7848C535.801 67.692 535.985 67.5644 536.141 67.402C536.3 67.2363 536.424 67.0457 536.514 66.8303C536.603 66.6148 536.648 66.3861 536.648 66.1442C536.645 65.8227 536.568 65.5277 536.419 65.2592C536.27 64.9908 536.064 64.7753 535.803 64.6129C535.541 64.4505 535.246 64.3693 534.918 64.3693ZM541.719 71.8168C541.391 71.8168 541.109 71.7008 540.874 71.4688C540.642 71.2367 540.526 70.955 540.526 70.6236C540.526 70.2988 540.642 70.0204 540.874 69.7884C541.109 69.5563 541.391 69.4403 541.719 69.4403C542.037 69.4403 542.315 69.5563 542.554 69.7884C542.793 70.0204 542.912 70.2988 542.912 70.6236C542.912 70.8423 542.856 71.0429 542.743 71.2251C542.634 71.4041 542.489 71.5483 542.31 71.6577C542.131 71.7637 541.934 71.8168 541.719 71.8168ZM541.719 66.8203C541.391 66.8203 541.109 66.7043 540.874 66.4723C540.642 66.2403 540.526 65.9586 540.526 65.6271C540.526 65.3023 540.642 65.0256 540.874 64.7969C541.109 64.5649 541.391 64.4489 541.719 64.4489C542.037 64.4489 542.315 64.5649 542.554 64.7969C542.793 65.0256 542.912 65.3023 542.912 65.6271C542.912 65.8492 542.856 66.0514 542.743 66.2337C542.634 66.4126 542.489 66.5552 542.31 66.6612C542.131 66.7673 541.934 66.8203 541.719 66.8203ZM548.623 73.2237C547.768 73.2204 547.032 73.0099 546.416 72.5923C545.803 72.1747 545.33 71.5698 544.999 70.7777C544.671 69.9856 544.508 69.0327 544.512 67.919C544.512 66.8087 544.676 65.8625 545.004 65.0803C545.335 64.2981 545.808 63.7031 546.421 63.2955C547.037 62.8845 547.771 62.679 548.623 62.679C549.475 62.679 550.207 62.8845 550.821 63.2955C551.437 63.7064 551.911 64.303 552.242 65.0852C552.574 65.8641 552.738 66.8087 552.735 67.919C552.735 69.036 552.569 69.9905 552.237 70.7827C551.909 71.5748 551.439 72.1797 550.826 72.5973C550.212 73.0149 549.478 73.2237 548.623 73.2237ZM548.623 71.4389C549.206 71.4389 549.672 71.1456 550.02 70.5589C550.368 69.9723 550.541 69.0923 550.537 67.919C550.537 67.1468 550.458 66.5038 550.299 65.9901C550.143 65.4763 549.921 65.0902 549.632 64.8317C549.347 64.5732 549.011 64.4439 548.623 64.4439C548.043 64.4439 547.579 64.7339 547.231 65.3139C546.883 65.8939 546.707 66.7623 546.704 67.919C546.704 68.7012 546.782 69.3542 546.938 69.8778C547.097 70.3982 547.321 70.7893 547.609 71.0511C547.897 71.3097 548.235 71.4389 548.623 71.4389ZM558.262 73.2237C557.407 73.2204 556.671 73.0099 556.054 72.5923C555.441 72.1747 554.969 71.5698 554.638 70.7777C554.309 69.9856 554.147 69.0327 554.15 67.919C554.15 66.8087 554.314 65.8625 554.642 65.0803C554.974 64.2981 555.446 63.7031 556.059 63.2955C556.676 62.8845 557.41 62.679 558.262 62.679C559.114 62.679 559.846 62.8845 560.459 63.2955C561.076 63.7064 561.55 64.303 561.881 65.0852C562.213 65.8641 562.377 66.8087 562.373 67.919C562.373 69.036 562.208 69.9905 561.876 70.7827C561.548 71.5748 561.077 72.1797 560.464 72.5973C559.851 73.0149 559.117 73.2237 558.262 73.2237ZM558.262 71.4389C558.845 71.4389 559.311 71.1456 559.659 70.5589C560.007 69.9723 560.179 69.0923 560.176 67.919C560.176 67.1468 560.096 66.5038 559.937 65.9901C559.781 65.4763 559.559 65.0902 559.271 64.8317C558.986 64.5732 558.65 64.4439 558.262 64.4439C557.682 64.4439 557.218 64.7339 556.87 65.3139C556.522 65.8939 556.346 66.7623 556.343 67.919C556.343 68.7012 556.421 69.3542 556.576 69.8778C556.736 70.3982 556.959 70.7893 557.248 71.0511C557.536 71.3097 557.874 71.4389 558.262 71.4389ZM568.963 73H566.656L570.171 62.8182H572.945L576.455 73H574.149L571.598 65.1449H571.519L568.963 73ZM568.819 68.9979H574.268V70.6783H568.819V68.9979ZM577.681 62.8182H580.336L583.14 69.6591H583.259L586.063 62.8182H588.718V73H586.63V66.3729H586.545L583.91 72.9503H582.488L579.853 66.348H579.769V73H577.681V62.8182Z" fill="white"/>
<g filter="url(#filter0_d_2_224)">
<rect x="657" y="35" width="262" height="65" rx="10" fill="#FAFCFF"/>
<path d="M656 90V45C656 39.4772 660.477 35 666 35H716V100H666C660.477 100 656 95.5228 656 90Z" fill="#7E57C2"/>
<path d="M741.472 60.3636V72H739.011V60.3636H741.472ZM745.871 66.9545V72H743.45V63.2727H745.757V64.8125H745.859C746.053 64.3049 746.376 63.9034 746.831 63.608C747.286 63.3087 747.837 63.1591 748.484 63.1591C749.09 63.1591 749.619 63.2917 750.07 63.5568C750.52 63.822 750.871 64.2008 751.121 64.6932C751.371 65.1818 751.496 65.7652 751.496 66.4432V72H749.075V66.875C749.079 66.3409 748.943 65.9242 748.666 65.625C748.39 65.322 748.009 65.1705 747.524 65.1705C747.198 65.1705 746.911 65.2405 746.661 65.3807C746.414 65.5208 746.221 65.7254 746.081 65.9943C745.945 66.2595 745.875 66.5795 745.871 66.9545ZM753.403 72V63.2727H755.824V72H753.403ZM754.619 62.1477C754.259 62.1477 753.951 62.0284 753.693 61.7898C753.439 61.5473 753.312 61.2576 753.312 60.9205C753.312 60.5871 753.439 60.3011 753.693 60.0625C753.951 59.8201 754.259 59.6989 754.619 59.6989C754.979 59.6989 755.286 59.8201 755.54 60.0625C755.797 60.3011 755.926 60.5871 755.926 60.9205C755.926 61.2576 755.797 61.5473 755.54 61.7898C755.286 62.0284 754.979 62.1477 754.619 62.1477ZM761.706 72.1705C760.812 72.1705 760.043 71.9811 759.399 71.6023C758.759 71.2197 758.267 70.6894 757.922 70.0114C757.581 69.3333 757.411 68.553 757.411 67.6705C757.411 66.7765 757.583 65.9924 757.928 65.3182C758.276 64.6402 758.77 64.1117 759.411 63.733C760.051 63.3504 760.812 63.1591 761.695 63.1591C762.456 63.1591 763.123 63.2973 763.695 63.5739C764.267 63.8504 764.719 64.2386 765.053 64.7386C765.386 65.2386 765.57 65.8258 765.604 66.5H763.32C763.255 66.0644 763.085 65.714 762.808 65.4489C762.536 65.1799 762.178 65.0455 761.734 65.0455C761.359 65.0455 761.032 65.1477 760.751 65.3523C760.475 65.553 760.259 65.8466 760.104 66.233C759.948 66.6193 759.871 67.0871 759.871 67.6364C759.871 68.1932 759.946 68.6667 760.098 69.0568C760.253 69.447 760.471 69.7443 760.751 69.9489C761.032 70.1534 761.359 70.2557 761.734 70.2557C762.011 70.2557 762.259 70.1989 762.479 70.0852C762.702 69.9716 762.886 69.8068 763.03 69.5909C763.178 69.3712 763.274 69.108 763.32 68.8011H765.604C765.566 69.4678 765.384 70.0549 765.058 70.5625C764.736 71.0663 764.291 71.4602 763.723 71.7443C763.155 72.0284 762.482 72.1705 761.706 72.1705ZM767.153 72V63.2727H769.574V72H767.153ZM768.369 62.1477C768.009 62.1477 767.701 62.0284 767.443 61.7898C767.189 61.5473 767.062 61.2576 767.062 60.9205C767.062 60.5871 767.189 60.3011 767.443 60.0625C767.701 59.8201 768.009 59.6989 768.369 59.6989C768.729 59.6989 769.036 59.8201 769.29 60.0625C769.547 60.3011 769.676 60.5871 769.676 60.9205C769.676 61.2576 769.547 61.5473 769.29 61.7898C769.036 62.0284 768.729 62.1477 768.369 62.1477ZM775.456 72.1705C774.573 72.1705 773.81 71.983 773.166 71.608C772.526 71.2292 772.032 70.7027 771.683 70.0284C771.335 69.3504 771.161 68.5644 771.161 67.6705C771.161 66.7689 771.335 65.9811 771.683 65.3068C772.032 64.6288 772.526 64.1023 773.166 63.7273C773.81 63.3485 774.573 63.1591 775.456 63.1591C776.339 63.1591 777.1 63.3485 777.74 63.7273C778.384 64.1023 778.88 64.6288 779.229 65.3068C779.577 65.9811 779.751 66.7689 779.751 67.6705C779.751 68.5644 779.577 69.3504 779.229 70.0284C778.88 70.7027 778.384 71.2292 777.74 71.608C777.1 71.983 776.339 72.1705 775.456 72.1705ZM775.467 70.2955C775.869 70.2955 776.204 70.1818 776.473 69.9545C776.742 69.7235 776.945 69.4091 777.081 69.0114C777.221 68.6136 777.291 68.161 777.291 67.6534C777.291 67.1458 777.221 66.6932 777.081 66.2955C776.945 65.8977 776.742 65.5833 776.473 65.3523C776.204 65.1212 775.869 65.0057 775.467 65.0057C775.062 65.0057 774.721 65.1212 774.445 65.3523C774.172 65.5833 773.965 65.8977 773.825 66.2955C773.689 66.6932 773.621 67.1458 773.621 67.6534C773.621 68.161 773.689 68.6136 773.825 69.0114C773.965 69.4091 774.172 69.7235 774.445 69.9545C774.721 70.1818 775.062 70.2955 775.467 70.2955Z" fill="black"/>
<path d="M691 66L686 62C685.739 61.8395 685.313 62.0139 685 62C684.687 61.9861 684.277 61.8633 684 62C683.723 62.1367 683.161 62.7516 683 63C682.839 63.2483 682.999 63.7108 683 64V70C683 70.289 682.839 70.7521 683 71C683.161 71.2479 683.724 71.8637 684 72C684.276 72.1363 684.687 72.014 685 72C685.313 71.986 685.739 72.1604 686 72L691 68C691.237 67.8542 691.866 68.2317 692 68C692.135 67.7683 692 67.2627 692 67C692 66.7373 692.135 66.2317 692 66C691.866 65.7683 691.237 66.1458 691 66V66Z" stroke="#FCFEFF" stroke-width="2" stroke-linecap="round" stroke-linejoin="round"/>
<path d="M701 67C701 68.9698 700.754 71.1801 700 73C699.246 74.8199 698.393 76.6071 697 78C695.607 79.3929 693.82 80.2462 692 81C690.18 81.7538 687.97 82 686 82C684.03 82 681.82 81.7538 680 81C678.18 80.2462 676.393 79.3929 675 78C673.607 76.6071 672.754 74.8199 672 73C671.246 71.1801 671 68.9698 671 67C671 63.0218 672.187 58.813 675 56C677.813 53.187 682.022 52 686 52C689.978 52 694.187 53.187 697 56C699.813 58.813 701 63.0218 701 67Z" stroke="#FCFEFF" stroke-width="2" stroke-linecap="round" stroke-linejoin="round"/>
</g>
<path d="M502 281C502 318.003 472.003 348 435 348C397.997 348 368 318.003 368 281C368 243.997 397.997 214 435 214C472.003 214 502 243.997 502 281ZM388 281C388 306.957 409.043 328 435 328C460.957 328 482 306.957 482 281C482 255.043 460.957 234 435 234C409.043 234 388 255.043 388 281Z" fill="#EBEBEB"/>
<path d="M435 224C435 218.477 439.502 213.924 444.963 214.745C456.128 216.424 466.744 220.907 475.787 227.845C487.488 236.824 495.9 249.413 499.717 263.659C503.534 277.906 502.544 293.013 496.9 306.64C491.256 320.266 481.273 331.649 468.5 339.024C455.727 346.398 440.878 349.352 426.255 347.427C411.632 345.502 398.053 338.805 387.624 328.376C377.195 317.947 370.498 304.368 368.573 289.745C367.085 278.445 368.511 267.009 372.64 256.501C374.659 251.36 380.854 249.739 385.637 252.5C390.419 255.261 391.941 261.367 390.252 266.625C388.139 273.202 387.49 280.205 388.402 287.135C389.753 297.393 394.45 306.918 401.766 314.234C409.082 321.55 418.607 326.247 428.865 327.598C439.123 328.948 449.54 326.876 458.5 321.703C467.46 316.53 474.463 308.545 478.422 298.986C482.382 289.427 483.076 278.829 480.399 268.836C477.721 258.842 471.82 250.011 463.612 243.712C458.066 239.457 451.677 236.519 444.925 235.06C439.527 233.894 435 229.523 435 224Z" fill="#FFC107"/>
<path d="M410.525 276.818V287H408.373V278.862H408.313L405.981 280.323V278.414L408.502 276.818H410.525ZM416.938 287.224C416.082 287.22 415.347 287.01 414.73 286.592C414.117 286.175 413.645 285.57 413.313 284.778C412.985 283.986 412.823 283.033 412.826 281.919C412.826 280.809 412.99 279.862 413.318 279.08C413.65 278.298 414.122 277.703 414.735 277.295C415.352 276.884 416.086 276.679 416.938 276.679C417.789 276.679 418.522 276.884 419.135 277.295C419.752 277.706 420.225 278.303 420.557 279.085C420.888 279.864 421.052 280.809 421.049 281.919C421.049 283.036 420.883 283.991 420.552 284.783C420.224 285.575 419.753 286.18 419.14 286.597C418.527 287.015 417.793 287.224 416.938 287.224ZM416.938 285.439C417.521 285.439 417.987 285.146 418.335 284.559C418.683 283.972 418.855 283.092 418.852 281.919C418.852 281.147 418.772 280.504 418.613 279.99C418.457 279.476 418.235 279.09 417.947 278.832C417.662 278.573 417.325 278.444 416.938 278.444C416.358 278.444 415.894 278.734 415.546 279.314C415.198 279.894 415.022 280.762 415.019 281.919C415.019 282.701 415.096 283.354 415.252 283.878C415.411 284.398 415.635 284.789 415.923 285.051C416.212 285.31 416.55 285.439 416.938 285.439ZM423.842 285.817C423.514 285.817 423.232 285.701 422.997 285.469C422.765 285.237 422.649 284.955 422.649 284.624C422.649 284.299 422.765 284.02 422.997 283.788C423.232 283.556 423.514 283.44 423.842 283.44C424.16 283.44 424.438 283.556 424.677 283.788C424.916 284.02 425.035 284.299 425.035 284.624C425.035 284.842 424.979 285.043 424.866 285.225C424.757 285.404 424.612 285.548 424.434 285.658C424.255 285.764 424.057 285.817 423.842 285.817ZM423.842 280.82C423.514 280.82 423.232 280.704 422.997 280.472C422.765 280.24 422.649 279.959 422.649 279.627C422.649 279.302 422.765 279.026 422.997 278.797C423.232 278.565 423.514 278.449 423.842 278.449C424.16 278.449 424.438 278.565 424.677 278.797C424.916 279.026 425.035 279.302 425.035 279.627C425.035 279.849 424.979 280.051 424.866 280.234C424.757 280.413 424.612 280.555 424.434 280.661C424.255 280.767 424.057 280.82 423.842 280.82ZM430.746 287.224C429.891 287.22 429.155 287.01 428.539 286.592C427.926 286.175 427.453 285.57 427.122 284.778C426.794 283.986 426.631 283.033 426.635 281.919C426.635 280.809 426.799 279.862 427.127 279.08C427.458 278.298 427.931 277.703 428.544 277.295C429.16 276.884 429.894 276.679 430.746 276.679C431.598 276.679 432.33 276.884 432.944 277.295C433.56 277.706 434.034 278.303 434.366 279.085C434.697 279.864 434.861 280.809 434.858 281.919C434.858 283.036 434.692 283.991 434.361 284.783C434.032 285.575 433.562 286.18 432.949 286.597C432.335 287.015 431.601 287.224 430.746 287.224ZM430.746 285.439C431.33 285.439 431.795 285.146 432.143 284.559C432.491 283.972 432.664 283.092 432.66 281.919C432.66 281.147 432.581 280.504 432.422 279.99C432.266 279.476 432.044 279.09 431.755 278.832C431.47 278.573 431.134 278.444 430.746 278.444C430.166 278.444 429.702 278.734 429.354 279.314C429.006 279.894 428.83 280.762 428.827 281.919C428.827 282.701 428.905 283.354 429.061 283.878C429.22 284.398 429.444 284.789 429.732 285.051C430.02 285.31 430.358 285.439 430.746 285.439ZM440.385 287.224C439.53 287.22 438.794 287.01 438.177 286.592C437.564 286.175 437.092 285.57 436.761 284.778C436.432 283.986 436.27 283.033 436.273 281.919C436.273 280.809 436.437 279.862 436.766 279.08C437.097 278.298 437.569 277.703 438.182 277.295C438.799 276.884 439.533 276.679 440.385 276.679C441.237 276.679 441.969 276.884 442.582 277.295C443.199 277.706 443.673 278.303 444.004 279.085C444.336 279.864 444.5 280.809 444.496 281.919C444.496 283.036 444.331 283.991 443.999 284.783C443.671 285.575 443.2 286.18 442.587 286.597C441.974 287.015 441.24 287.224 440.385 287.224ZM440.385 285.439C440.968 285.439 441.434 285.146 441.782 284.559C442.13 283.972 442.302 283.092 442.299 281.919C442.299 281.147 442.219 280.504 442.06 279.99C441.905 279.476 441.682 279.09 441.394 278.832C441.109 278.573 440.773 278.444 440.385 278.444C439.805 278.444 439.341 278.734 438.993 279.314C438.645 279.894 438.469 280.762 438.466 281.919C438.466 282.701 438.544 283.354 438.699 283.878C438.859 284.398 439.082 284.789 439.371 285.051C439.659 285.31 439.997 285.439 440.385 285.439ZM451.086 287H448.779L452.294 276.818H455.068L458.578 287H456.272L453.721 279.145H453.642L451.086 287ZM450.942 282.998H456.391V284.678H450.942V282.998ZM459.804 276.818H462.459L465.263 283.659H465.382L468.186 276.818H470.841V287H468.753V280.373H468.668L466.033 286.95H464.611L461.976 280.348H461.892V287H459.804V276.818Z" fill="white"/>
<g filter="url(#filter1_d_2_224)">
<rect width="327" height="64" rx="10" transform="matrix(-1 0 0 1 331 250)" fill="white"/>
<path d="M332 304V260C332 254.477 327.523 250 322 250H272V314H322C327.523 314 332 309.523 332 304Z" fill="#7E57C2" fill-opacity="0.96"/>
<path d="M61.9233 287H59.2869L63.304 275.364H66.4744L70.4858 287H67.8494L64.9347 278.023H64.8438L61.9233 287ZM61.7585 282.426H67.9858V284.347H61.7585V282.426ZM77.2017 290.273V285.602H77.1278C77.0142 285.845 76.8532 286.085 76.6449 286.324C76.4403 286.559 76.1733 286.754 75.8438 286.909C75.518 287.064 75.1203 287.142 74.6506 287.142C73.9877 287.142 73.3873 286.972 72.8494 286.631C72.3153 286.286 71.8911 285.78 71.5767 285.114C71.2661 284.443 71.1108 283.621 71.1108 282.648C71.1108 281.648 71.2718 280.816 71.5938 280.153C71.9157 279.487 72.3438 278.989 72.8778 278.659C73.4157 278.326 74.0047 278.159 74.6449 278.159C75.1335 278.159 75.5407 278.242 75.8665 278.409C76.196 278.572 76.4612 278.777 76.6619 279.023C76.8665 279.265 77.0218 279.504 77.1278 279.739H77.2301V278.273H79.6165V290.273H77.2017ZM75.4176 285.216C75.8078 285.216 76.1373 285.11 76.4062 284.898C76.679 284.682 76.8873 284.381 77.0312 283.994C77.179 283.608 77.2528 283.155 77.2528 282.636C77.2528 282.117 77.1809 281.667 77.0369 281.284C76.893 280.902 76.6847 280.606 76.4119 280.398C76.1392 280.189 75.8078 280.085 75.4176 280.085C75.0199 280.085 74.6847 280.193 74.4119 280.409C74.1392 280.625 73.9328 280.924 73.7926 281.307C73.6525 281.689 73.5824 282.133 73.5824 282.636C73.5824 283.144 73.6525 283.593 73.7926 283.983C73.9366 284.369 74.143 284.672 74.4119 284.892C74.6847 285.108 75.0199 285.216 75.4176 285.216ZM87.1562 283.284V278.273H89.5767V287H87.2528V285.415H87.1619C86.965 285.926 86.6373 286.337 86.179 286.648C85.7244 286.958 85.1695 287.114 84.5142 287.114C83.9309 287.114 83.4176 286.981 82.9744 286.716C82.5313 286.451 82.1847 286.074 81.9347 285.585C81.6884 285.097 81.5634 284.511 81.5597 283.83V278.273H83.9801V283.398C83.9839 283.913 84.1222 284.32 84.3949 284.619C84.6676 284.919 85.0331 285.068 85.4915 285.068C85.7831 285.068 86.0559 285.002 86.3097 284.869C86.5634 284.733 86.768 284.532 86.9233 284.267C87.0824 284.002 87.16 283.674 87.1562 283.284ZM95.4901 287.17C94.5923 287.17 93.8196 286.989 93.1719 286.625C92.5279 286.258 92.0317 285.739 91.6832 285.068C91.3348 284.394 91.1605 283.597 91.1605 282.676C91.1605 281.778 91.3348 280.991 91.6832 280.312C92.0317 279.634 92.5223 279.106 93.1548 278.727C93.7912 278.348 94.5374 278.159 95.3935 278.159C95.9692 278.159 96.5052 278.252 97.0014 278.438C97.5014 278.619 97.937 278.894 98.3082 279.261C98.6832 279.629 98.9749 280.091 99.1832 280.648C99.3916 281.201 99.4957 281.848 99.4957 282.591V283.256H92.1264V281.756H97.2173C97.2173 281.407 97.1416 281.098 96.9901 280.83C96.8385 280.561 96.6283 280.35 96.3594 280.199C96.0942 280.044 95.7855 279.966 95.4332 279.966C95.0658 279.966 94.7401 280.051 94.456 280.222C94.1757 280.388 93.956 280.614 93.7969 280.898C93.6378 281.178 93.5563 281.491 93.5526 281.835V283.261C93.5526 283.693 93.6321 284.066 93.7912 284.381C93.9541 284.695 94.1832 284.938 94.4787 285.108C94.7741 285.278 95.1245 285.364 95.5298 285.364C95.7988 285.364 96.045 285.326 96.2685 285.25C96.492 285.174 96.6832 285.061 96.8423 284.909C97.0014 284.758 97.1226 284.572 97.206 284.352L99.4446 284.5C99.331 285.038 99.098 285.508 98.7457 285.909C98.3973 286.307 97.9465 286.617 97.3935 286.841C96.8442 287.061 96.2098 287.17 95.4901 287.17ZM105.018 287.17C104.125 287.17 103.356 286.981 102.712 286.602C102.071 286.22 101.579 285.689 101.234 285.011C100.893 284.333 100.723 283.553 100.723 282.67C100.723 281.777 100.895 280.992 101.24 280.318C101.589 279.64 102.083 279.112 102.723 278.733C103.363 278.35 104.125 278.159 105.007 278.159C105.768 278.159 106.435 278.297 107.007 278.574C107.579 278.85 108.032 279.239 108.365 279.739C108.698 280.239 108.882 280.826 108.916 281.5H106.632C106.568 281.064 106.397 280.714 106.121 280.449C105.848 280.18 105.49 280.045 105.047 280.045C104.672 280.045 104.344 280.148 104.064 280.352C103.787 280.553 103.571 280.847 103.416 281.233C103.261 281.619 103.183 282.087 103.183 282.636C103.183 283.193 103.259 283.667 103.411 284.057C103.566 284.447 103.784 284.744 104.064 284.949C104.344 285.153 104.672 285.256 105.047 285.256C105.323 285.256 105.571 285.199 105.791 285.085C106.015 284.972 106.198 284.807 106.342 284.591C106.49 284.371 106.587 284.108 106.632 283.801H108.916C108.878 284.468 108.696 285.055 108.371 285.562C108.049 286.066 107.604 286.46 107.036 286.744C106.467 287.028 105.795 287.17 105.018 287.17ZM110.466 287V278.273H112.886V287H110.466ZM111.682 277.148C111.322 277.148 111.013 277.028 110.756 276.79C110.502 276.547 110.375 276.258 110.375 275.92C110.375 275.587 110.502 275.301 110.756 275.062C111.013 274.82 111.322 274.699 111.682 274.699C112.042 274.699 112.348 274.82 112.602 275.062C112.86 275.301 112.989 275.587 112.989 275.92C112.989 276.258 112.86 276.547 112.602 276.79C112.348 277.028 112.042 277.148 111.682 277.148ZM114.825 287V278.273H117.132V279.812H117.234C117.416 279.301 117.719 278.898 118.143 278.602C118.568 278.307 119.075 278.159 119.666 278.159C120.265 278.159 120.774 278.309 121.195 278.608C121.615 278.903 121.895 279.305 122.036 279.812H122.126C122.304 279.312 122.626 278.913 123.092 278.614C123.562 278.311 124.117 278.159 124.757 278.159C125.571 278.159 126.232 278.419 126.74 278.938C127.251 279.453 127.507 280.184 127.507 281.131V287H125.092V281.608C125.092 281.123 124.964 280.759 124.706 280.517C124.448 280.275 124.126 280.153 123.74 280.153C123.301 280.153 122.958 280.294 122.712 280.574C122.465 280.85 122.342 281.216 122.342 281.67V287H119.996V281.557C119.996 281.129 119.873 280.788 119.626 280.534C119.384 280.28 119.064 280.153 118.666 280.153C118.397 280.153 118.155 280.222 117.939 280.358C117.727 280.491 117.558 280.678 117.433 280.92C117.308 281.159 117.246 281.439 117.246 281.761V287H114.825ZM133.396 287.17C132.499 287.17 131.726 286.989 131.078 286.625C130.434 286.258 129.938 285.739 129.589 285.068C129.241 284.394 129.067 283.597 129.067 282.676C129.067 281.778 129.241 280.991 129.589 280.312C129.938 279.634 130.429 279.106 131.061 278.727C131.697 278.348 132.444 278.159 133.3 278.159C133.875 278.159 134.411 278.252 134.908 278.438C135.408 278.619 135.843 278.894 136.214 279.261C136.589 279.629 136.881 280.091 137.089 280.648C137.298 281.201 137.402 281.848 137.402 282.591V283.256H130.033V281.756H135.124C135.124 281.407 135.048 281.098 134.896 280.83C134.745 280.561 134.535 280.35 134.266 280.199C134 280.044 133.692 279.966 133.339 279.966C132.972 279.966 132.646 280.051 132.362 280.222C132.082 280.388 131.862 280.614 131.703 280.898C131.544 281.178 131.463 281.491 131.459 281.835V283.261C131.459 283.693 131.538 284.066 131.697 284.381C131.86 284.695 132.089 284.938 132.385 285.108C132.68 285.278 133.031 285.364 133.436 285.364C133.705 285.364 133.951 285.326 134.175 285.25C134.398 285.174 134.589 285.061 134.749 284.909C134.908 284.758 135.029 284.572 135.112 284.352L137.351 284.5C137.237 285.038 137.004 285.508 136.652 285.909C136.304 286.307 135.853 286.617 135.3 286.841C134.75 287.061 134.116 287.17 133.396 287.17ZM141.402 281.955V287H138.982V278.273H141.288V279.812H141.391C141.584 279.305 141.908 278.903 142.362 278.608C142.817 278.309 143.368 278.159 144.016 278.159C144.622 278.159 145.15 278.292 145.601 278.557C146.052 278.822 146.402 279.201 146.652 279.693C146.902 280.182 147.027 280.765 147.027 281.443V287H144.607V281.875C144.61 281.341 144.474 280.924 144.197 280.625C143.921 280.322 143.54 280.17 143.055 280.17C142.73 280.17 142.442 280.241 142.192 280.381C141.946 280.521 141.752 280.725 141.612 280.994C141.476 281.259 141.406 281.58 141.402 281.955ZM153.577 278.273V280.091H148.321V278.273H153.577ZM149.514 276.182H151.935V284.318C151.935 284.542 151.969 284.716 152.037 284.841C152.105 284.962 152.2 285.047 152.321 285.097C152.446 285.146 152.59 285.17 152.753 285.17C152.866 285.17 152.98 285.161 153.094 285.142C153.207 285.119 153.295 285.102 153.355 285.091L153.736 286.892C153.615 286.93 153.444 286.973 153.224 287.023C153.005 287.076 152.738 287.108 152.423 287.119C151.84 287.142 151.329 287.064 150.889 286.886C150.454 286.708 150.115 286.432 149.872 286.057C149.63 285.682 149.51 285.208 149.514 284.636V276.182ZM159.003 287.17C158.12 287.17 157.357 286.983 156.713 286.608C156.073 286.229 155.579 285.703 155.23 285.028C154.882 284.35 154.707 283.564 154.707 282.67C154.707 281.769 154.882 280.981 155.23 280.307C155.579 279.629 156.073 279.102 156.713 278.727C157.357 278.348 158.12 278.159 159.003 278.159C159.885 278.159 160.647 278.348 161.287 278.727C161.931 279.102 162.427 279.629 162.776 280.307C163.124 280.981 163.298 281.769 163.298 282.67C163.298 283.564 163.124 284.35 162.776 285.028C162.427 285.703 161.931 286.229 161.287 286.608C160.647 286.983 159.885 287.17 159.003 287.17ZM159.014 285.295C159.416 285.295 159.751 285.182 160.02 284.955C160.289 284.723 160.491 284.409 160.628 284.011C160.768 283.614 160.838 283.161 160.838 282.653C160.838 282.146 160.768 281.693 160.628 281.295C160.491 280.898 160.289 280.583 160.02 280.352C159.751 280.121 159.416 280.006 159.014 280.006C158.609 280.006 158.268 280.121 157.991 280.352C157.719 280.583 157.512 280.898 157.372 281.295C157.236 281.693 157.168 282.146 157.168 282.653C157.168 283.161 157.236 283.614 157.372 284.011C157.512 284.409 157.719 284.723 157.991 284.955C158.268 285.182 158.609 285.295 159.014 285.295ZM171.791 287.142C171.128 287.142 170.528 286.972 169.99 286.631C169.456 286.286 169.032 285.78 168.717 285.114C168.407 284.443 168.251 283.621 168.251 282.648C168.251 281.648 168.412 280.816 168.734 280.153C169.056 279.487 169.484 278.989 170.018 278.659C170.556 278.326 171.145 278.159 171.786 278.159C172.274 278.159 172.681 278.242 173.007 278.409C173.337 278.572 173.602 278.777 173.803 279.023C174.007 279.265 174.162 279.504 174.268 279.739H174.342V275.364H176.757V287H174.371V285.602H174.268C174.155 285.845 173.994 286.085 173.786 286.324C173.581 286.559 173.314 286.754 172.984 286.909C172.659 287.064 172.261 287.142 171.791 287.142ZM172.558 285.216C172.948 285.216 173.278 285.11 173.547 284.898C173.82 284.682 174.028 284.381 174.172 283.994C174.32 283.608 174.393 283.155 174.393 282.636C174.393 282.117 174.321 281.667 174.178 281.284C174.034 280.902 173.825 280.606 173.553 280.398C173.28 280.189 172.948 280.085 172.558 280.085C172.161 280.085 171.825 280.193 171.553 280.409C171.28 280.625 171.073 280.924 170.933 281.307C170.793 281.689 170.723 282.133 170.723 282.636C170.723 283.144 170.793 283.593 170.933 283.983C171.077 284.369 171.284 284.672 171.553 284.892C171.825 285.108 172.161 285.216 172.558 285.216ZM182.69 287.17C181.808 287.17 181.045 286.983 180.401 286.608C179.76 286.229 179.266 285.703 178.918 285.028C178.569 284.35 178.395 283.564 178.395 282.67C178.395 281.769 178.569 280.981 178.918 280.307C179.266 279.629 179.76 279.102 180.401 278.727C181.045 278.348 181.808 278.159 182.69 278.159C183.573 278.159 184.334 278.348 184.974 278.727C185.618 279.102 186.115 279.629 186.463 280.307C186.812 280.981 186.986 281.769 186.986 282.67C186.986 283.564 186.812 284.35 186.463 285.028C186.115 285.703 185.618 286.229 184.974 286.608C184.334 286.983 183.573 287.17 182.69 287.17ZM182.702 285.295C183.103 285.295 183.438 285.182 183.707 284.955C183.976 284.723 184.179 284.409 184.315 284.011C184.455 283.614 184.526 283.161 184.526 282.653C184.526 282.146 184.455 281.693 184.315 281.295C184.179 280.898 183.976 280.583 183.707 280.352C183.438 280.121 183.103 280.006 182.702 280.006C182.296 280.006 181.955 280.121 181.679 280.352C181.406 280.583 181.2 280.898 181.06 281.295C180.923 281.693 180.855 282.146 180.855 282.653C180.855 283.161 180.923 283.614 181.06 284.011C181.2 284.409 181.406 284.723 181.679 284.955C181.955 285.182 182.296 285.295 182.702 285.295ZM195.821 280.761L193.605 280.898C193.567 280.708 193.486 280.538 193.361 280.386C193.236 280.231 193.071 280.108 192.866 280.017C192.666 279.922 192.425 279.875 192.145 279.875C191.77 279.875 191.454 279.955 191.196 280.114C190.938 280.269 190.81 280.477 190.81 280.739C190.81 280.947 190.893 281.123 191.06 281.267C191.226 281.411 191.512 281.527 191.918 281.614L193.497 281.932C194.346 282.106 194.978 282.386 195.395 282.773C195.812 283.159 196.02 283.667 196.02 284.295C196.02 284.867 195.851 285.369 195.514 285.801C195.181 286.233 194.723 286.57 194.139 286.812C193.56 287.051 192.891 287.17 192.134 287.17C190.978 287.17 190.058 286.93 189.372 286.449C188.69 285.964 188.291 285.305 188.173 284.472L190.554 284.347C190.626 284.699 190.8 284.968 191.077 285.153C191.353 285.335 191.707 285.426 192.139 285.426C192.563 285.426 192.904 285.345 193.162 285.182C193.423 285.015 193.556 284.801 193.56 284.54C193.556 284.32 193.463 284.14 193.281 284C193.099 283.856 192.819 283.746 192.44 283.67L190.929 283.369C190.077 283.199 189.442 282.903 189.026 282.483C188.613 282.062 188.406 281.527 188.406 280.875C188.406 280.314 188.558 279.831 188.861 279.426C189.168 279.021 189.598 278.708 190.151 278.489C190.707 278.269 191.359 278.159 192.105 278.159C193.207 278.159 194.075 278.392 194.707 278.858C195.344 279.324 195.715 279.958 195.821 280.761ZM205.889 278.273V280.091H200.634V278.273H205.889ZM201.827 276.182H204.247V284.318C204.247 284.542 204.281 284.716 204.349 284.841C204.418 284.962 204.512 285.047 204.634 285.097C204.759 285.146 204.902 285.17 205.065 285.17C205.179 285.17 205.293 285.161 205.406 285.142C205.52 285.119 205.607 285.102 205.668 285.091L206.048 286.892C205.927 286.93 205.757 286.973 205.537 287.023C205.317 287.076 205.05 287.108 204.736 287.119C204.152 287.142 203.641 287.064 203.202 286.886C202.766 286.708 202.427 286.432 202.185 286.057C201.942 285.682 201.823 285.208 201.827 284.636V276.182ZM207.466 287V278.273H209.886V287H207.466ZM208.682 277.148C208.322 277.148 208.013 277.028 207.756 276.79C207.502 276.547 207.375 276.258 207.375 275.92C207.375 275.587 207.502 275.301 207.756 275.062C208.013 274.82 208.322 274.699 208.682 274.699C209.042 274.699 209.348 274.82 209.602 275.062C209.86 275.301 209.989 275.587 209.989 275.92C209.989 276.258 209.86 276.547 209.602 276.79C209.348 277.028 209.042 277.148 208.682 277.148ZM211.825 287V278.273H214.132V279.812H214.234C214.416 279.301 214.719 278.898 215.143 278.602C215.568 278.307 216.075 278.159 216.666 278.159C217.265 278.159 217.774 278.309 218.195 278.608C218.615 278.903 218.895 279.305 219.036 279.812H219.126C219.304 279.312 219.626 278.913 220.092 278.614C220.562 278.311 221.117 278.159 221.757 278.159C222.571 278.159 223.232 278.419 223.74 278.938C224.251 279.453 224.507 280.184 224.507 281.131V287H222.092V281.608C222.092 281.123 221.964 280.759 221.706 280.517C221.448 280.275 221.126 280.153 220.74 280.153C220.301 280.153 219.958 280.294 219.712 280.574C219.465 280.85 219.342 281.216 219.342 281.67V287H216.996V281.557C216.996 281.129 216.873 280.788 216.626 280.534C216.384 280.28 216.064 280.153 215.666 280.153C215.397 280.153 215.155 280.222 214.939 280.358C214.727 280.491 214.558 280.678 214.433 280.92C214.308 281.159 214.246 281.439 214.246 281.761V287H211.825ZM230.396 287.17C229.499 287.17 228.726 286.989 228.078 286.625C227.434 286.258 226.938 285.739 226.589 285.068C226.241 284.394 226.067 283.597 226.067 282.676C226.067 281.778 226.241 280.991 226.589 280.312C226.938 279.634 227.429 279.106 228.061 278.727C228.697 278.348 229.444 278.159 230.3 278.159C230.875 278.159 231.411 278.252 231.908 278.438C232.408 278.619 232.843 278.894 233.214 279.261C233.589 279.629 233.881 280.091 234.089 280.648C234.298 281.201 234.402 281.848 234.402 282.591V283.256H227.033V281.756H232.124C232.124 281.407 232.048 281.098 231.896 280.83C231.745 280.561 231.535 280.35 231.266 280.199C231 280.044 230.692 279.966 230.339 279.966C229.972 279.966 229.646 280.051 229.362 280.222C229.082 280.388 228.862 280.614 228.703 280.898C228.544 281.178 228.463 281.491 228.459 281.835V283.261C228.459 283.693 228.538 284.066 228.697 284.381C228.86 284.695 229.089 284.938 229.385 285.108C229.68 285.278 230.031 285.364 230.436 285.364C230.705 285.364 230.951 285.326 231.175 285.25C231.398 285.174 231.589 285.061 231.749 284.909C231.908 284.758 232.029 284.572 232.112 284.352L234.351 284.5C234.237 285.038 234.004 285.508 233.652 285.909C233.304 286.307 232.853 286.617 232.3 286.841C231.75 287.061 231.116 287.17 230.396 287.17ZM243.243 280.761L241.027 280.898C240.989 280.708 240.908 280.538 240.783 280.386C240.658 280.231 240.493 280.108 240.288 280.017C240.088 279.922 239.847 279.875 239.567 279.875C239.192 279.875 238.875 279.955 238.618 280.114C238.36 280.269 238.232 280.477 238.232 280.739C238.232 280.947 238.315 281.123 238.482 281.267C238.648 281.411 238.934 281.527 239.339 281.614L240.919 281.932C241.768 282.106 242.4 282.386 242.817 282.773C243.233 283.159 243.442 283.667 243.442 284.295C243.442 284.867 243.273 285.369 242.936 285.801C242.603 286.233 242.144 286.57 241.561 286.812C240.982 287.051 240.313 287.17 239.555 287.17C238.4 287.17 237.48 286.93 236.794 286.449C236.112 285.964 235.713 285.305 235.595 284.472L237.976 284.347C238.048 284.699 238.222 284.968 238.499 285.153C238.775 285.335 239.129 285.426 239.561 285.426C239.985 285.426 240.326 285.345 240.584 285.182C240.845 285.015 240.978 284.801 240.982 284.54C240.978 284.32 240.885 284.14 240.703 284C240.521 283.856 240.241 283.746 239.862 283.67L238.351 283.369C237.499 283.199 236.864 282.903 236.447 282.483C236.035 282.062 235.828 281.527 235.828 280.875C235.828 280.314 235.98 279.831 236.283 279.426C236.589 279.021 237.019 278.708 237.572 278.489C238.129 278.269 238.781 278.159 239.527 278.159C240.629 278.159 241.497 278.392 242.129 278.858C242.766 279.324 243.137 279.958 243.243 280.761Z" fill="black"/>
<path d="M314 293C311.468 295.501 308.58 297 305 297C301.42 297 297.532 295.501 295 293C292.468 290.499 291 287.536 291 284C291 280.464 292.468 276.501 295 274C295 274 295.625 277.333 299 279C299 275.667 299.805 270.333 304 267C307.399 270.333 311.357 271.39 314 274C315.256 275.237 316.321 277.382 317 279C317.679 280.618 318.002 282.249 318 284C318.002 285.751 317.679 287.382 317 289C316.321 290.618 315.255 291.763 314 293V293Z" stroke="#FCFEFF" stroke-width="2" stroke-linecap="round" stroke-linejoin="round"/>
<path d="M300 289C300.581 289.581 302.214 289.761 303 290C303.786 290.239 304.194 290.159 305 290C305.806 289.841 306.364 289.52 307 289C307.636 288.48 308.684 287.758 309 287C309.316 286.242 309.078 285.818 309 285C308.922 284.182 308.454 282.685 308 282C307.546 281.315 306.723 281.39 306 281C305.277 280.61 304.821 280.004 304 280L302 285H299C299 286.28 299.023 288.025 300 289Z" stroke="#FCFEFF" stroke-width="2" stroke-linecap="round" stroke-linejoin="round"/>
</g>
<path d="M752 403C752 440.003 722.003 470 685 470C647.997 470 618 440.003 618 403C618 365.997 647.997 336 685 336C722.003 336 752 365.997 752 403ZM638 403C638 428.957 659.043 450 685 450C710.957 450 732 428.957 732 403C732 377.043 710.957 356 685 356C659.043 356 638 377.043 638 403Z" fill="#EBEBEB"/>
<path d="M752 403C752 440.003 722.003 470 685 470C647.997 470 618 440.003 618 403C618 365.997 647.997 336 685 336C722.003 336 752 365.997 752 403ZM638 403C638 428.957 659.043 450 685 450C710.957 450 732 428.957 732 403C732 377.043 710.957 356 685 356C659.043 356 638 377.043 638 403Z" fill="#FFC107"/>
<path d="M661.64 398.818V409H659.487V400.862H659.427L657.096 402.323V400.414L659.616 398.818H661.64ZM664.06 409V407.449L667.684 404.093C667.992 403.795 668.251 403.526 668.46 403.288C668.672 403.049 668.832 402.815 668.942 402.587C669.051 402.355 669.106 402.104 669.106 401.836C669.106 401.538 669.038 401.281 668.902 401.065C668.766 400.847 668.58 400.679 668.345 400.563C668.11 400.444 667.843 400.384 667.545 400.384C667.233 400.384 666.961 400.447 666.729 400.573C666.497 400.699 666.318 400.88 666.192 401.115C666.067 401.35 666.004 401.63 666.004 401.955H663.96C663.96 401.289 664.111 400.711 664.413 400.22C664.714 399.73 665.137 399.35 665.68 399.082C666.224 398.813 666.85 398.679 667.56 398.679C668.289 398.679 668.924 398.808 669.464 399.067C670.007 399.322 670.43 399.677 670.732 400.131C671.033 400.585 671.184 401.105 671.184 401.692C671.184 402.076 671.108 402.456 670.955 402.83C670.806 403.205 670.539 403.621 670.155 404.078C669.77 404.532 669.228 405.077 668.529 405.714L667.043 407.17V407.24H671.318V409H664.06ZM674.136 407.817C673.808 407.817 673.526 407.701 673.291 407.469C673.059 407.237 672.943 406.955 672.943 406.624C672.943 406.299 673.059 406.02 673.291 405.788C673.526 405.556 673.808 405.44 674.136 405.44C674.454 405.44 674.732 405.556 674.971 405.788C675.21 406.02 675.329 406.299 675.329 406.624C675.329 406.842 675.273 407.043 675.16 407.225C675.051 407.404 674.906 407.548 674.727 407.658C674.548 407.764 674.351 407.817 674.136 407.817ZM674.136 402.82C673.808 402.82 673.526 402.704 673.291 402.472C673.059 402.24 672.943 401.959 672.943 401.627C672.943 401.302 673.059 401.026 673.291 400.797C673.526 400.565 673.808 400.449 674.136 400.449C674.454 400.449 674.732 400.565 674.971 400.797C675.21 401.026 675.329 401.302 675.329 401.627C675.329 401.849 675.273 402.051 675.16 402.234C675.051 402.413 674.906 402.555 674.727 402.661C674.548 402.767 674.351 402.82 674.136 402.82ZM681.04 409.224C680.185 409.22 679.449 409.01 678.833 408.592C678.22 408.175 677.747 407.57 677.416 406.778C677.088 405.986 676.925 405.033 676.929 403.919C676.929 402.809 677.093 401.862 677.421 401.08C677.752 400.298 678.225 399.703 678.838 399.295C679.454 398.884 680.188 398.679 681.04 398.679C681.892 398.679 682.624 398.884 683.238 399.295C683.854 399.706 684.328 400.303 684.659 401.085C684.991 401.864 685.155 402.809 685.152 403.919C685.152 405.036 684.986 405.991 684.654 406.783C684.326 407.575 683.856 408.18 683.243 408.597C682.629 409.015 681.895 409.224 681.04 409.224ZM681.04 407.439C681.623 407.439 682.089 407.146 682.437 406.559C682.785 405.972 682.958 405.092 682.954 403.919C682.954 403.147 682.875 402.504 682.716 401.99C682.56 401.476 682.338 401.09 682.049 400.832C681.764 400.573 681.428 400.444 681.04 400.444C680.46 400.444 679.996 400.734 679.648 401.314C679.3 401.894 679.124 402.762 679.121 403.919C679.121 404.701 679.199 405.354 679.355 405.878C679.514 406.398 679.738 406.789 680.026 407.051C680.314 407.31 680.652 407.439 681.04 407.439ZM690.679 409.224C689.824 409.22 689.088 409.01 688.471 408.592C687.858 408.175 687.386 407.57 687.055 406.778C686.726 405.986 686.564 405.033 686.567 403.919C686.567 402.809 686.731 401.862 687.059 401.08C687.391 400.298 687.863 399.703 688.476 399.295C689.093 398.884 689.827 398.679 690.679 398.679C691.531 398.679 692.263 398.884 692.876 399.295C693.493 399.706 693.967 400.303 694.298 401.085C694.63 401.864 694.794 402.809 694.79 403.919C694.79 405.036 694.625 405.991 694.293 406.783C693.965 407.575 693.494 408.18 692.881 408.597C692.268 409.015 691.534 409.224 690.679 409.224ZM690.679 407.439C691.262 407.439 691.728 407.146 692.076 406.559C692.424 405.972 692.596 405.092 692.593 403.919C692.593 403.147 692.513 402.504 692.354 401.99C692.198 401.476 691.976 401.09 691.688 400.832C691.403 400.573 691.067 400.444 690.679 400.444C690.099 400.444 689.635 400.734 689.287 401.314C688.939 401.894 688.763 402.762 688.76 403.919C688.76 404.701 688.838 405.354 688.993 405.878C689.153 406.398 689.376 406.789 689.665 407.051C689.953 407.31 690.291 407.439 690.679 407.439ZM699.625 409V398.818H703.642C704.414 398.818 705.072 398.966 705.616 399.261C706.16 399.552 706.574 399.958 706.859 400.479C707.147 400.996 707.291 401.592 707.291 402.268C707.291 402.945 707.146 403.541 706.854 404.058C706.562 404.575 706.14 404.978 705.586 405.266C705.036 405.555 704.37 405.699 703.588 405.699H701.027V403.974H703.24C703.654 403.974 703.995 403.902 704.264 403.76C704.535 403.614 704.738 403.414 704.87 403.158C705.006 402.9 705.074 402.603 705.074 402.268C705.074 401.93 705.006 401.635 704.87 401.384C704.738 401.128 704.535 400.931 704.264 400.792C703.992 400.649 703.647 400.578 703.23 400.578H701.778V409H699.625ZM708.69 398.818H711.344L714.148 405.659H714.268L717.072 398.818H719.727V409H717.638V402.373H717.554L714.919 408.95H713.497L710.862 402.348H710.778V409H708.69V398.818Z" fill="white"/>
<g filter="url(#filter2_d_2_224)">
<rect x="785" y="371" width="262" height="65" rx="10" fill="#FAFCFF"/>
<path d="M784 426V381C784 375.477 788.477 371 794 371H844V436H794C788.477 436 784 431.523 784 426Z" fill="#7E57C2"/>
<path d="M869.017 408H866.381L870.398 396.364H873.568L877.58 408H874.943L872.028 399.023H871.938L869.017 408ZM868.852 403.426H875.08V405.347H868.852V403.426ZM881.355 396.364V408H878.935V396.364H881.355ZM883.294 408V399.273H885.601V400.812H885.703C885.885 400.301 886.188 399.898 886.612 399.602C887.036 399.307 887.544 399.159 888.135 399.159C888.733 399.159 889.243 399.309 889.663 399.608C890.084 399.903 890.364 400.305 890.504 400.812H890.595C890.773 400.312 891.095 399.913 891.561 399.614C892.031 399.311 892.586 399.159 893.226 399.159C894.04 399.159 894.701 399.419 895.209 399.938C895.72 400.453 895.976 401.184 895.976 402.131V408H893.561V402.608C893.561 402.123 893.432 401.759 893.175 401.517C892.917 401.275 892.595 401.153 892.209 401.153C891.769 401.153 891.427 401.294 891.18 401.574C890.934 401.85 890.811 402.216 890.811 402.67V408H888.464V402.557C888.464 402.129 888.341 401.788 888.095 401.534C887.853 401.28 887.533 401.153 887.135 401.153C886.866 401.153 886.624 401.222 886.408 401.358C886.196 401.491 886.027 401.678 885.902 401.92C885.777 402.159 885.714 402.439 885.714 402.761V408H883.294ZM901.831 408.17C900.948 408.17 900.185 407.983 899.541 407.608C898.901 407.229 898.407 406.703 898.058 406.028C897.71 405.35 897.536 404.564 897.536 403.67C897.536 402.769 897.71 401.981 898.058 401.307C898.407 400.629 898.901 400.102 899.541 399.727C900.185 399.348 900.948 399.159 901.831 399.159C902.714 399.159 903.475 399.348 904.115 399.727C904.759 400.102 905.255 400.629 905.604 401.307C905.952 401.981 906.126 402.769 906.126 403.67C906.126 404.564 905.952 405.35 905.604 406.028C905.255 406.703 904.759 407.229 904.115 407.608C903.475 407.983 902.714 408.17 901.831 408.17ZM901.842 406.295C902.244 406.295 902.579 406.182 902.848 405.955C903.117 405.723 903.32 405.409 903.456 405.011C903.596 404.614 903.666 404.161 903.666 403.653C903.666 403.146 903.596 402.693 903.456 402.295C903.32 401.898 903.117 401.583 902.848 401.352C902.579 401.121 902.244 401.006 901.842 401.006C901.437 401.006 901.096 401.121 900.82 401.352C900.547 401.583 900.34 401.898 900.2 402.295C900.064 402.693 899.996 403.146 899.996 403.653C899.996 404.161 900.064 404.614 900.2 405.011C900.34 405.409 900.547 405.723 900.82 405.955C901.096 406.182 901.437 406.295 901.842 406.295ZM911.643 408.17C910.75 408.17 909.981 407.981 909.337 407.602C908.696 407.22 908.204 406.689 907.859 406.011C907.518 405.333 907.348 404.553 907.348 403.67C907.348 402.777 907.52 401.992 907.865 401.318C908.214 400.64 908.708 400.112 909.348 399.733C909.988 399.35 910.75 399.159 911.632 399.159C912.393 399.159 913.06 399.297 913.632 399.574C914.204 399.85 914.657 400.239 914.99 400.739C915.323 401.239 915.507 401.826 915.541 402.5H913.257C913.193 402.064 913.022 401.714 912.746 401.449C912.473 401.18 912.115 401.045 911.672 401.045C911.297 401.045 910.969 401.148 910.689 401.352C910.412 401.553 910.196 401.847 910.041 402.233C909.886 402.619 909.808 403.087 909.808 403.636C909.808 404.193 909.884 404.667 910.036 405.057C910.191 405.447 910.409 405.744 910.689 405.949C910.969 406.153 911.297 406.256 911.672 406.256C911.948 406.256 912.196 406.199 912.416 406.085C912.64 405.972 912.823 405.807 912.967 405.591C913.115 405.371 913.212 405.108 913.257 404.801H915.541C915.503 405.468 915.321 406.055 914.996 406.562C914.674 407.066 914.229 407.46 913.661 407.744C913.092 408.028 912.42 408.17 911.643 408.17ZM911.075 407.955H912.189L912.098 408.449C912.488 408.509 912.806 408.655 913.053 408.886C913.303 409.117 913.429 409.432 913.433 409.83C913.437 410.394 913.176 410.843 912.649 411.176C912.123 411.513 911.384 411.682 910.433 411.682L910.411 410.602C910.888 410.602 911.261 410.544 911.53 410.426C911.803 410.313 911.945 410.134 911.956 409.892C911.964 409.661 911.875 409.485 911.689 409.364C911.503 409.242 911.214 409.157 910.82 409.108L911.075 407.955ZM921.034 408.17C920.152 408.17 919.388 407.983 918.744 407.608C918.104 407.229 917.61 406.703 917.261 406.028C916.913 405.35 916.739 404.564 916.739 403.67C916.739 402.769 916.913 401.981 917.261 401.307C917.61 400.629 918.104 400.102 918.744 399.727C919.388 399.348 920.152 399.159 921.034 399.159C921.917 399.159 922.678 399.348 923.318 399.727C923.962 400.102 924.458 400.629 924.807 401.307C925.155 401.981 925.33 402.769 925.33 403.67C925.33 404.564 925.155 405.35 924.807 406.028C924.458 406.703 923.962 407.229 923.318 407.608C922.678 407.983 921.917 408.17 921.034 408.17ZM921.045 406.295C921.447 406.295 921.782 406.182 922.051 405.955C922.32 405.723 922.523 405.409 922.659 405.011C922.799 404.614 922.869 404.161 922.869 403.653C922.869 403.146 922.799 402.693 922.659 402.295C922.523 401.898 922.32 401.583 922.051 401.352C921.782 401.121 921.447 401.006 921.045 401.006C920.64 401.006 920.299 401.121 920.023 401.352C919.75 401.583 919.544 401.898 919.403 402.295C919.267 402.693 919.199 403.146 919.199 403.653C919.199 404.161 919.267 404.614 919.403 405.011C919.544 405.409 919.75 405.723 920.023 405.955C920.299 406.182 920.64 406.295 921.045 406.295Z" fill="black"/>
</g>
<path d="M820 412H828L826 410C825.682 409.685 825.172 409.411 825 409C824.828 408.589 825 408.445 825 408V402C825 399.932 824.209 398.689 823 397C821.791 395.311 819.974 393.69 818 393V392C818 391.116 817.633 390.625 817 390C816.367 389.375 815.895 389 815 389C814.105 389 812.633 389.375 812 390C811.367 390.625 811 391.116 811 392V393C807.068 394.373 804 397.647 804 402V408C804 408.897 803.643 409.365 803 410L801 412H809M820 412V414C820 415.326 818.949 417.062 818 418C817.051 418.938 816.343 419 815 419C813.657 419 811.949 418.938 811 418C810.051 417.062 809 415.326 809 414V412M820 412H809" stroke="#FCFEFF" stroke-width="2" stroke-linecap="round" stroke-linejoin="round"/>
<path d="M505 533C505 570.003 475.003 600 438 600C400.997 600 371 570.003 371 533C371 495.997 400.997 466 438 466C475.003 466 505 495.997 505 533ZM391 533C391 558.957 412.043 580 438 580C463.957 580 485 558.957 485 533C485 507.043 463.957 486 438 486C412.043 486 391 507.043 391 533Z" fill="#EBEBEB"/>
<path d="M440.091 473.47C440.178 470.062 442.079 466.779 445.488 466.755C452.002 466.709 461.002 470.309 468.198 473.348C472.871 475.321 475.015 481.115 472.61 485.582C469.835 490.735 462.058 491.712 456.601 489.597C455.068 489.002 453.475 488.511 451.869 488.13C445.718 486.667 439.882 481.59 440.044 475.27L440.091 473.47Z" fill="#FFC107"/>
<path d="M414.305 528.818V539H412.152V530.862H412.092L409.761 532.323V530.414L412.281 528.818H414.305ZM416.571 537.21V535.515L420.821 528.818H422.283V531.165H421.418L418.738 535.406V535.485H424.779V537.21H416.571ZM421.458 539V536.693L421.497 535.942V528.818H423.516V539H421.458ZM427.471 537.817C427.143 537.817 426.861 537.701 426.626 537.469C426.394 537.237 426.278 536.955 426.278 536.624C426.278 536.299 426.394 536.02 426.626 535.788C426.861 535.556 427.143 535.44 427.471 535.44C427.789 535.44 428.067 535.556 428.306 535.788C428.545 536.02 428.664 536.299 428.664 536.624C428.664 536.842 428.608 537.043 428.495 537.225C428.386 537.404 428.241 537.548 428.062 537.658C427.883 537.764 427.686 537.817 427.471 537.817ZM427.471 532.82C427.143 532.82 426.861 532.704 426.626 532.472C426.394 532.24 426.278 531.959 426.278 531.627C426.278 531.302 426.394 531.026 426.626 530.797C426.861 530.565 427.143 530.449 427.471 530.449C427.789 530.449 428.067 530.565 428.306 530.797C428.545 531.026 428.664 531.302 428.664 531.627C428.664 531.849 428.608 532.051 428.495 532.234C428.386 532.413 428.241 532.555 428.062 532.661C427.883 532.767 427.686 532.82 427.471 532.82ZM434.375 539.224C433.52 539.22 432.784 539.01 432.168 538.592C431.555 538.175 431.082 537.57 430.751 536.778C430.423 535.986 430.26 535.033 430.264 533.919C430.264 532.809 430.428 531.862 430.756 531.08C431.087 530.298 431.56 529.703 432.173 529.295C432.789 528.884 433.523 528.679 434.375 528.679C435.227 528.679 435.959 528.884 436.573 529.295C437.189 529.706 437.663 530.303 437.994 531.085C438.326 531.864 438.49 532.809 438.487 533.919C438.487 535.036 438.321 535.991 437.989 536.783C437.661 537.575 437.191 538.18 436.578 538.597C435.964 539.015 435.23 539.224 434.375 539.224ZM434.375 537.439C434.958 537.439 435.424 537.146 435.772 536.559C436.12 535.972 436.292 535.092 436.289 533.919C436.289 533.147 436.21 532.504 436.051 531.99C435.895 531.476 435.673 531.09 435.384 530.832C435.099 530.573 434.763 530.444 434.375 530.444C433.795 530.444 433.331 530.734 432.983 531.314C432.635 531.894 432.459 532.762 432.456 533.919C432.456 534.701 432.534 535.354 432.69 535.878C432.849 536.398 433.073 536.789 433.361 537.051C433.649 537.31 433.987 537.439 434.375 537.439ZM444.014 539.224C443.159 539.22 442.423 539.01 441.806 538.592C441.193 538.175 440.721 537.57 440.389 536.778C440.061 535.986 439.899 535.033 439.902 533.919C439.902 532.809 440.066 531.862 440.394 531.08C440.726 530.298 441.198 529.703 441.811 529.295C442.428 528.884 443.162 528.679 444.014 528.679C444.866 528.679 445.598 528.884 446.211 529.295C446.828 529.706 447.302 530.303 447.633 531.085C447.965 531.864 448.129 532.809 448.125 533.919C448.125 535.036 447.96 535.991 447.628 536.783C447.3 537.575 446.829 538.18 446.216 538.597C445.603 539.015 444.869 539.224 444.014 539.224ZM444.014 537.439C444.597 537.439 445.063 537.146 445.411 536.559C445.759 535.972 445.931 535.092 445.928 533.919C445.928 533.147 445.848 532.504 445.689 531.99C445.533 531.476 445.311 531.09 445.023 530.832C444.738 530.573 444.402 530.444 444.014 530.444C443.434 530.444 442.97 530.734 442.622 531.314C442.274 531.894 442.098 532.762 442.095 533.919C442.095 534.701 442.173 535.354 442.328 535.878C442.487 536.398 442.711 536.789 443 537.051C443.288 537.31 443.626 537.439 444.014 537.439ZM452.96 539V528.818H456.977C457.749 528.818 458.407 528.966 458.951 529.261C459.494 529.552 459.909 529.958 460.194 530.479C460.482 530.996 460.626 531.592 460.626 532.268C460.626 532.945 460.48 533.541 460.189 534.058C459.897 534.575 459.475 534.978 458.921 535.266C458.371 535.555 457.705 535.699 456.922 535.699H454.362V533.974H456.574C456.989 533.974 457.33 533.902 457.599 533.76C457.87 533.614 458.073 533.414 458.205 533.158C458.341 532.9 458.409 532.603 458.409 532.268C458.409 531.93 458.341 531.635 458.205 531.384C458.073 531.128 457.87 530.931 457.599 530.792C457.327 530.649 456.982 530.578 456.565 530.578H455.113V539H452.96ZM462.025 528.818H464.679L467.483 535.659H467.603L470.407 528.818H473.062V539H470.973V532.373H470.889L468.254 538.95H466.832L464.197 532.348H464.113V539H462.025V528.818Z" fill="white"/>
<g filter="url(#filter3_d_2_224)">
<rect width="327" height="64" rx="10" transform="matrix(-1 0 0 1 331 501)" fill="white"/>
<path d="M332 555V511C332 505.477 327.523 501 322 501H272V565H322C327.523 565 332 560.523 332 555Z" fill="#7E57C2" fill-opacity="0.96"/>
<path d="M67.5284 530.438H65.0398C64.9943 530.116 64.9015 529.83 64.7614 529.58C64.6212 529.326 64.4413 529.11 64.2216 528.932C64.0019 528.754 63.7481 528.617 63.4602 528.523C63.1761 528.428 62.8674 528.381 62.5341 528.381C61.9318 528.381 61.4072 528.53 60.9602 528.83C60.5133 529.125 60.1667 529.557 59.9205 530.125C59.6742 530.689 59.5511 531.375 59.5511 532.182C59.5511 533.011 59.6742 533.708 59.9205 534.273C60.1705 534.837 60.5189 535.263 60.9659 535.551C61.4129 535.839 61.9299 535.983 62.517 535.983C62.8466 535.983 63.1515 535.939 63.4318 535.852C63.7159 535.765 63.9678 535.638 64.1875 535.472C64.4072 535.301 64.589 535.095 64.733 534.852C64.8807 534.61 64.983 534.333 65.0398 534.023L67.5284 534.034C67.464 534.568 67.303 535.083 67.0455 535.58C66.7917 536.072 66.4489 536.513 66.017 536.903C65.589 537.29 65.0777 537.597 64.483 537.824C63.892 538.047 63.2235 538.159 62.4773 538.159C61.4394 538.159 60.5114 537.924 59.6932 537.455C58.8788 536.985 58.2348 536.305 57.7614 535.415C57.2917 534.525 57.0568 533.447 57.0568 532.182C57.0568 530.913 57.2955 529.833 57.7727 528.943C58.25 528.053 58.8977 527.375 59.7159 526.909C60.5341 526.439 61.4545 526.205 62.4773 526.205C63.1515 526.205 63.7765 526.299 64.3523 526.489C64.9318 526.678 65.4451 526.955 65.892 527.318C66.339 527.678 66.7027 528.119 66.983 528.642C67.267 529.165 67.4489 529.763 67.5284 530.438ZM73.1903 538.17C72.3078 538.17 71.5445 537.983 70.9006 537.608C70.2604 537.229 69.7661 536.703 69.4176 536.028C69.0691 535.35 68.8949 534.564 68.8949 533.67C68.8949 532.769 69.0691 531.981 69.4176 531.307C69.7661 530.629 70.2604 530.102 70.9006 529.727C71.5445 529.348 72.3078 529.159 73.1903 529.159C74.0729 529.159 74.8343 529.348 75.4744 529.727C76.1184 530.102 76.6146 530.629 76.9631 531.307C77.3116 531.981 77.4858 532.769 77.4858 533.67C77.4858 534.564 77.3116 535.35 76.9631 536.028C76.6146 536.703 76.1184 537.229 75.4744 537.608C74.8343 537.983 74.0729 538.17 73.1903 538.17ZM73.2017 536.295C73.6032 536.295 73.9384 536.182 74.2074 535.955C74.4763 535.723 74.679 535.409 74.8153 535.011C74.9555 534.614 75.0256 534.161 75.0256 533.653C75.0256 533.146 74.9555 532.693 74.8153 532.295C74.679 531.898 74.4763 531.583 74.2074 531.352C73.9384 531.121 73.6032 531.006 73.2017 531.006C72.7964 531.006 72.4555 531.121 72.179 531.352C71.9063 531.583 71.6998 531.898 71.5597 532.295C71.4233 532.693 71.3551 533.146 71.3551 533.653C71.3551 534.161 71.4233 534.614 71.5597 535.011C71.6998 535.409 71.9063 535.723 72.179 535.955C72.4555 536.182 72.7964 536.295 73.2017 536.295ZM79.0597 538V529.273H81.3665V530.812H81.4688C81.6506 530.301 81.9536 529.898 82.3778 529.602C82.8021 529.307 83.3097 529.159 83.9006 529.159C84.4991 529.159 85.0085 529.309 85.429 529.608C85.8494 529.903 86.1297 530.305 86.2699 530.812H86.3608C86.5388 530.312 86.8608 529.913 87.3267 529.614C87.7964 529.311 88.3513 529.159 88.9915 529.159C89.8059 529.159 90.4669 529.419 90.9744 529.938C91.4858 530.453 91.7415 531.184 91.7415 532.131V538H89.3267V532.608C89.3267 532.123 89.1979 531.759 88.9403 531.517C88.6828 531.275 88.3608 531.153 87.9744 531.153C87.535 531.153 87.1922 531.294 86.946 531.574C86.6998 531.85 86.5767 532.216 86.5767 532.67V538H84.2301V532.557C84.2301 532.129 84.107 531.788 83.8608 531.534C83.6184 531.28 83.2983 531.153 82.9006 531.153C82.6316 531.153 82.3892 531.222 82.1733 531.358C81.9612 531.491 81.7926 531.678 81.6676 531.92C81.5426 532.159 81.4801 532.439 81.4801 532.761V538H79.0597ZM93.6534 541.273V529.273H96.0398V530.739H96.1477C96.2538 530.504 96.4072 530.265 96.608 530.023C96.8125 529.777 97.0777 529.572 97.4034 529.409C97.733 529.242 98.142 529.159 98.6307 529.159C99.267 529.159 99.8542 529.326 100.392 529.659C100.93 529.989 101.36 530.487 101.682 531.153C102.004 531.816 102.165 532.648 102.165 533.648C102.165 534.621 102.008 535.443 101.693 536.114C101.383 536.78 100.958 537.286 100.42 537.631C99.8864 537.972 99.2879 538.142 98.625 538.142C98.1553 538.142 97.7557 538.064 97.4261 537.909C97.1004 537.754 96.8333 537.559 96.625 537.324C96.4167 537.085 96.2576 536.845 96.1477 536.602H96.0739V541.273H93.6534ZM96.0227 533.636C96.0227 534.155 96.0947 534.608 96.2386 534.994C96.3826 535.381 96.5909 535.682 96.8636 535.898C97.1364 536.11 97.4678 536.216 97.858 536.216C98.2519 536.216 98.5852 536.108 98.858 535.892C99.1307 535.672 99.3371 535.369 99.4773 534.983C99.6212 534.593 99.6932 534.144 99.6932 533.636C99.6932 533.133 99.6231 532.689 99.483 532.307C99.3428 531.924 99.1364 531.625 98.8636 531.409C98.5909 531.193 98.2557 531.085 97.858 531.085C97.464 531.085 97.1307 531.189 96.858 531.398C96.589 531.606 96.3826 531.902 96.2386 532.284C96.0947 532.667 96.0227 533.117 96.0227 533.636ZM107.756 538.17C106.858 538.17 106.085 537.989 105.438 537.625C104.794 537.258 104.297 536.739 103.949 536.068C103.6 535.394 103.426 534.597 103.426 533.676C103.426 532.778 103.6 531.991 103.949 531.312C104.297 530.634 104.788 530.106 105.42 529.727C106.057 529.348 106.803 529.159 107.659 529.159C108.235 529.159 108.771 529.252 109.267 529.438C109.767 529.619 110.203 529.894 110.574 530.261C110.949 530.629 111.241 531.091 111.449 531.648C111.657 532.201 111.761 532.848 111.761 533.591V534.256H104.392V532.756H109.483C109.483 532.407 109.407 532.098 109.256 531.83C109.104 531.561 108.894 531.35 108.625 531.199C108.36 531.044 108.051 530.966 107.699 530.966C107.331 530.966 107.006 531.051 106.722 531.222C106.441 531.388 106.222 531.614 106.062 531.898C105.903 532.178 105.822 532.491 105.818 532.835V534.261C105.818 534.693 105.898 535.066 106.057 535.381C106.22 535.695 106.449 535.938 106.744 536.108C107.04 536.278 107.39 536.364 107.795 536.364C108.064 536.364 108.311 536.326 108.534 536.25C108.758 536.174 108.949 536.061 109.108 535.909C109.267 535.758 109.388 535.572 109.472 535.352L111.71 535.5C111.597 536.038 111.364 536.508 111.011 536.909C110.663 537.307 110.212 537.617 109.659 537.841C109.11 538.061 108.475 538.17 107.756 538.17ZM117.983 529.273V531.091H112.727V529.273H117.983ZM113.92 527.182H116.341V535.318C116.341 535.542 116.375 535.716 116.443 535.841C116.511 535.962 116.606 536.047 116.727 536.097C116.852 536.146 116.996 536.17 117.159 536.17C117.273 536.17 117.386 536.161 117.5 536.142C117.614 536.119 117.701 536.102 117.761 536.091L118.142 537.892C118.021 537.93 117.85 537.973 117.631 538.023C117.411 538.076 117.144 538.108 116.83 538.119C116.246 538.142 115.735 538.064 115.295 537.886C114.86 537.708 114.521 537.432 114.278 537.057C114.036 536.682 113.917 536.208 113.92 535.636V527.182ZM119.56 538V529.273H121.98V538H119.56ZM120.776 528.148C120.416 528.148 120.107 528.028 119.849 527.79C119.596 527.547 119.469 527.258 119.469 526.92C119.469 526.587 119.596 526.301 119.849 526.062C120.107 525.82 120.416 525.699 120.776 525.699C121.135 525.699 121.442 525.82 121.696 526.062C121.954 526.301 122.082 526.587 122.082 526.92C122.082 527.258 121.954 527.547 121.696 527.79C121.442 528.028 121.135 528.148 120.776 528.148ZM127.862 538.17C126.968 538.17 126.199 537.981 125.555 537.602C124.915 537.22 124.423 536.689 124.078 536.011C123.737 535.333 123.567 534.553 123.567 533.67C123.567 532.777 123.739 531.992 124.084 531.318C124.432 530.64 124.927 530.112 125.567 529.733C126.207 529.35 126.968 529.159 127.851 529.159C128.612 529.159 129.279 529.297 129.851 529.574C130.423 529.85 130.875 530.239 131.209 530.739C131.542 531.239 131.726 531.826 131.76 532.5H129.476C129.411 532.064 129.241 531.714 128.964 531.449C128.692 531.18 128.334 531.045 127.891 531.045C127.516 531.045 127.188 531.148 126.908 531.352C126.631 531.553 126.415 531.847 126.26 532.233C126.105 532.619 126.027 533.087 126.027 533.636C126.027 534.193 126.103 534.667 126.254 535.057C126.41 535.447 126.627 535.744 126.908 535.949C127.188 536.153 127.516 536.256 127.891 536.256C128.167 536.256 128.415 536.199 128.635 536.085C128.858 535.972 129.042 535.807 129.186 535.591C129.334 535.371 129.43 535.108 129.476 534.801H131.76C131.722 535.468 131.54 536.055 131.214 536.562C130.893 537.066 130.447 537.46 129.879 537.744C129.311 538.028 128.639 538.17 127.862 538.17ZM127.294 537.955H128.408L128.317 538.449C128.707 538.509 129.025 538.655 129.271 538.886C129.521 539.117 129.648 539.432 129.652 539.83C129.656 540.394 129.394 540.843 128.868 541.176C128.341 541.513 127.603 541.682 126.652 541.682L126.629 540.602C127.107 540.602 127.48 540.544 127.749 540.426C128.021 540.313 128.163 540.134 128.175 539.892C128.182 539.661 128.093 539.485 127.908 539.364C127.722 539.242 127.432 539.157 127.038 539.108L127.294 537.955ZM135.798 538.165C135.241 538.165 134.745 538.068 134.31 537.875C133.874 537.678 133.529 537.388 133.276 537.006C133.026 536.619 132.901 536.138 132.901 535.562C132.901 535.078 132.99 534.67 133.168 534.341C133.346 534.011 133.588 533.746 133.895 533.545C134.202 533.345 134.55 533.193 134.94 533.091C135.334 532.989 135.747 532.917 136.179 532.875C136.687 532.822 137.096 532.773 137.406 532.727C137.717 532.678 137.942 532.606 138.082 532.511C138.223 532.417 138.293 532.277 138.293 532.091V532.057C138.293 531.697 138.179 531.419 137.952 531.222C137.728 531.025 137.41 530.926 136.997 530.926C136.562 530.926 136.215 531.023 135.957 531.216C135.7 531.405 135.529 531.644 135.446 531.932L133.207 531.75C133.321 531.22 133.545 530.761 133.878 530.375C134.211 529.985 134.641 529.686 135.168 529.477C135.698 529.265 136.312 529.159 137.009 529.159C137.493 529.159 137.957 529.216 138.401 529.33C138.848 529.443 139.243 529.619 139.588 529.858C139.937 530.097 140.211 530.403 140.412 530.778C140.613 531.15 140.713 531.595 140.713 532.114V538H138.418V536.79H138.349C138.209 537.062 138.022 537.303 137.787 537.511C137.552 537.716 137.27 537.877 136.94 537.994C136.611 538.108 136.23 538.165 135.798 538.165ZM136.491 536.494C136.848 536.494 137.162 536.424 137.435 536.284C137.707 536.14 137.921 535.947 138.077 535.705C138.232 535.462 138.31 535.187 138.31 534.881V533.955C138.234 534.004 138.13 534.049 137.997 534.091C137.868 534.129 137.723 534.165 137.56 534.199C137.397 534.229 137.234 534.258 137.071 534.284C136.908 534.307 136.76 534.328 136.628 534.347C136.344 534.388 136.096 534.455 135.884 534.545C135.671 534.636 135.507 534.759 135.389 534.915C135.272 535.066 135.213 535.256 135.213 535.483C135.213 535.812 135.332 536.064 135.571 536.239C135.813 536.409 136.12 536.494 136.491 536.494ZM135.474 528.199L134.128 528.182C134.128 527.458 134.306 526.903 134.662 526.517C135.022 526.131 135.459 525.936 135.974 525.932C136.24 525.932 136.467 525.975 136.656 526.062C136.849 526.146 137.022 526.244 137.173 526.358C137.329 526.472 137.476 526.572 137.616 526.659C137.757 526.742 137.908 526.784 138.071 526.784C138.291 526.78 138.457 526.699 138.571 526.54C138.688 526.377 138.747 526.165 138.747 525.903L140.071 525.943C140.063 526.659 139.882 527.212 139.526 527.602C139.17 527.989 138.736 528.184 138.224 528.188C137.94 528.188 137.702 528.146 137.509 528.062C137.319 527.975 137.152 527.877 137.009 527.767C136.865 527.653 136.724 527.553 136.588 527.466C136.452 527.379 136.298 527.335 136.128 527.335C135.931 527.335 135.772 527.413 135.651 527.568C135.533 527.723 135.474 527.934 135.474 528.199ZM146.534 538.17C145.652 538.17 144.888 537.983 144.244 537.608C143.604 537.229 143.11 536.703 142.761 536.028C142.413 535.35 142.239 534.564 142.239 533.67C142.239 532.769 142.413 531.981 142.761 531.307C143.11 530.629 143.604 530.102 144.244 529.727C144.888 529.348 145.652 529.159 146.534 529.159C147.417 529.159 148.178 529.348 148.818 529.727C149.462 530.102 149.958 530.629 150.307 531.307C150.655 531.981 150.83 532.769 150.83 533.67C150.83 534.564 150.655 535.35 150.307 536.028C149.958 536.703 149.462 537.229 148.818 537.608C148.178 537.983 147.417 538.17 146.534 538.17ZM146.545 536.295C146.947 536.295 147.282 536.182 147.551 535.955C147.82 535.723 148.023 535.409 148.159 535.011C148.299 534.614 148.369 534.161 148.369 533.653C148.369 533.146 148.299 532.693 148.159 532.295C148.023 531.898 147.82 531.583 147.551 531.352C147.282 531.121 146.947 531.006 146.545 531.006C146.14 531.006 145.799 531.121 145.523 531.352C145.25 531.583 145.044 531.898 144.903 532.295C144.767 532.693 144.699 533.146 144.699 533.653C144.699 534.161 144.767 534.614 144.903 535.011C145.044 535.409 145.25 535.723 145.523 535.955C145.799 536.182 146.14 536.295 146.545 536.295ZM160.084 538.17C159.186 538.17 158.413 537.989 157.766 537.625C157.122 537.258 156.625 536.739 156.277 536.068C155.929 535.394 155.754 534.597 155.754 533.676C155.754 532.778 155.929 531.991 156.277 531.312C156.625 530.634 157.116 530.106 157.749 529.727C158.385 529.348 159.131 529.159 159.987 529.159C160.563 529.159 161.099 529.252 161.595 529.438C162.095 529.619 162.531 529.894 162.902 530.261C163.277 530.629 163.569 531.091 163.777 531.648C163.985 532.201 164.089 532.848 164.089 533.591V534.256H156.72V532.756H161.811C161.811 532.407 161.735 532.098 161.584 531.83C161.432 531.561 161.222 531.35 160.953 531.199C160.688 531.044 160.379 530.966 160.027 530.966C159.66 530.966 159.334 531.051 159.05 531.222C158.769 531.388 158.55 531.614 158.391 531.898C158.232 532.178 158.15 532.491 158.146 532.835V534.261C158.146 534.693 158.226 535.066 158.385 535.381C158.548 535.695 158.777 535.938 159.072 536.108C159.368 536.278 159.718 536.364 160.124 536.364C160.393 536.364 160.639 536.326 160.862 536.25C161.086 536.174 161.277 536.061 161.436 535.909C161.595 535.758 161.716 535.572 161.8 535.352L164.038 535.5C163.925 536.038 163.692 536.508 163.339 536.909C162.991 537.307 162.54 537.617 161.987 537.841C161.438 538.061 160.804 538.17 160.084 538.17ZM168.089 532.955V538H165.669V529.273H167.976V530.812H168.078C168.271 530.305 168.595 529.903 169.05 529.608C169.504 529.309 170.055 529.159 170.703 529.159C171.309 529.159 171.838 529.292 172.288 529.557C172.739 529.822 173.089 530.201 173.339 530.693C173.589 531.182 173.714 531.765 173.714 532.443V538H171.294V532.875C171.298 532.341 171.161 531.924 170.885 531.625C170.608 531.322 170.228 531.17 169.743 531.17C169.417 531.17 169.129 531.241 168.879 531.381C168.633 531.521 168.44 531.725 168.3 531.994C168.163 532.259 168.093 532.58 168.089 532.955ZM180.264 529.273V531.091H175.009V529.273H180.264ZM176.202 527.182H178.622V535.318C178.622 535.542 178.656 535.716 178.724 535.841C178.793 535.962 178.887 536.047 179.009 536.097C179.134 536.146 179.277 536.17 179.44 536.17C179.554 536.17 179.668 536.161 179.781 536.142C179.895 536.119 179.982 536.102 180.043 536.091L180.423 537.892C180.302 537.93 180.132 537.973 179.912 538.023C179.692 538.076 179.425 538.108 179.111 538.119C178.527 538.142 178.016 538.064 177.577 537.886C177.141 537.708 176.802 537.432 176.56 537.057C176.317 536.682 176.198 536.208 176.202 535.636V527.182ZM181.841 538V529.273H184.188V530.795H184.278C184.438 530.254 184.705 529.845 185.08 529.568C185.455 529.288 185.886 529.148 186.375 529.148C186.496 529.148 186.627 529.155 186.767 529.17C186.907 529.186 187.03 529.206 187.136 529.233V531.381C187.023 531.347 186.866 531.316 186.665 531.29C186.464 531.263 186.28 531.25 186.114 531.25C185.758 531.25 185.439 531.328 185.159 531.483C184.883 531.634 184.663 531.847 184.5 532.119C184.341 532.392 184.261 532.706 184.261 533.062V538H181.841ZM191.959 538.17C191.061 538.17 190.288 537.989 189.641 537.625C188.997 537.258 188.5 536.739 188.152 536.068C187.804 535.394 187.629 534.597 187.629 533.676C187.629 532.778 187.804 531.991 188.152 531.312C188.5 530.634 188.991 530.106 189.624 529.727C190.26 529.348 191.006 529.159 191.862 529.159C192.438 529.159 192.974 529.252 193.47 529.438C193.97 529.619 194.406 529.894 194.777 530.261C195.152 530.629 195.444 531.091 195.652 531.648C195.86 532.201 195.964 532.848 195.964 533.591V534.256H188.595V532.756H193.686C193.686 532.407 193.61 532.098 193.459 531.83C193.307 531.561 193.097 531.35 192.828 531.199C192.563 531.044 192.254 530.966 191.902 530.966C191.535 530.966 191.209 531.051 190.925 531.222C190.644 531.388 190.425 531.614 190.266 531.898C190.107 532.178 190.025 532.491 190.021 532.835V534.261C190.021 534.693 190.101 535.066 190.26 535.381C190.423 535.695 190.652 535.938 190.947 536.108C191.243 536.278 191.593 536.364 191.999 536.364C192.268 536.364 192.514 536.326 192.737 536.25C192.961 536.174 193.152 536.061 193.311 535.909C193.47 535.758 193.591 535.572 193.675 535.352L195.913 535.5C195.8 536.038 195.567 536.508 195.214 536.909C194.866 537.307 194.415 537.617 193.862 537.841C193.313 538.061 192.679 538.17 191.959 538.17ZM205.889 529.273V531.091H200.634V529.273H205.889ZM201.827 527.182H204.247V535.318C204.247 535.542 204.281 535.716 204.349 535.841C204.418 535.962 204.512 536.047 204.634 536.097C204.759 536.146 204.902 536.17 205.065 536.17C205.179 536.17 205.293 536.161 205.406 536.142C205.52 536.119 205.607 536.102 205.668 536.091L206.048 537.892C205.927 537.93 205.757 537.973 205.537 538.023C205.317 538.076 205.05 538.108 204.736 538.119C204.152 538.142 203.641 538.064 203.202 537.886C202.766 537.708 202.427 537.432 202.185 537.057C201.942 536.682 201.823 536.208 201.827 535.636V527.182ZM207.466 538V529.273H209.886V538H207.466ZM208.682 528.148C208.322 528.148 208.013 528.028 207.756 527.79C207.502 527.547 207.375 527.258 207.375 526.92C207.375 526.587 207.502 526.301 207.756 526.062C208.013 525.82 208.322 525.699 208.682 525.699C209.042 525.699 209.348 525.82 209.602 526.062C209.86 526.301 209.989 526.587 209.989 526.92C209.989 527.258 209.86 527.547 209.602 527.79C209.348 528.028 209.042 528.148 208.682 528.148ZM211.825 538V529.273H214.132V530.812H214.234C214.416 530.301 214.719 529.898 215.143 529.602C215.568 529.307 216.075 529.159 216.666 529.159C217.265 529.159 217.774 529.309 218.195 529.608C218.615 529.903 218.895 530.305 219.036 530.812H219.126C219.304 530.312 219.626 529.913 220.092 529.614C220.562 529.311 221.117 529.159 221.757 529.159C222.571 529.159 223.232 529.419 223.74 529.938C224.251 530.453 224.507 531.184 224.507 532.131V538H222.092V532.608C222.092 532.123 221.964 531.759 221.706 531.517C221.448 531.275 221.126 531.153 220.74 531.153C220.301 531.153 219.958 531.294 219.712 531.574C219.465 531.85 219.342 532.216 219.342 532.67V538H216.996V532.557C216.996 532.129 216.873 531.788 216.626 531.534C216.384 531.28 216.064 531.153 215.666 531.153C215.397 531.153 215.155 531.222 214.939 531.358C214.727 531.491 214.558 531.678 214.433 531.92C214.308 532.159 214.246 532.439 214.246 532.761V538H211.825ZM230.396 538.17C229.499 538.17 228.726 537.989 228.078 537.625C227.434 537.258 226.938 536.739 226.589 536.068C226.241 535.394 226.067 534.597 226.067 533.676C226.067 532.778 226.241 531.991 226.589 531.312C226.938 530.634 227.429 530.106 228.061 529.727C228.697 529.348 229.444 529.159 230.3 529.159C230.875 529.159 231.411 529.252 231.908 529.438C232.408 529.619 232.843 529.894 233.214 530.261C233.589 530.629 233.881 531.091 234.089 531.648C234.298 532.201 234.402 532.848 234.402 533.591V534.256H227.033V532.756H232.124C232.124 532.407 232.048 532.098 231.896 531.83C231.745 531.561 231.535 531.35 231.266 531.199C231 531.044 230.692 530.966 230.339 530.966C229.972 530.966 229.646 531.051 229.362 531.222C229.082 531.388 228.862 531.614 228.703 531.898C228.544 532.178 228.463 532.491 228.459 532.835V534.261C228.459 534.693 228.538 535.066 228.697 535.381C228.86 535.695 229.089 535.938 229.385 536.108C229.68 536.278 230.031 536.364 230.436 536.364C230.705 536.364 230.951 536.326 231.175 536.25C231.398 536.174 231.589 536.061 231.749 535.909C231.908 535.758 232.029 535.572 232.112 535.352L234.351 535.5C234.237 536.038 234.004 536.508 233.652 536.909C233.304 537.307 232.853 537.617 232.3 537.841C231.75 538.061 231.116 538.17 230.396 538.17ZM243.243 531.761L241.027 531.898C240.989 531.708 240.908 531.538 240.783 531.386C240.658 531.231 240.493 531.108 240.288 531.017C240.088 530.922 239.847 530.875 239.567 530.875C239.192 530.875 238.875 530.955 238.618 531.114C238.36 531.269 238.232 531.477 238.232 531.739C238.232 531.947 238.315 532.123 238.482 532.267C238.648 532.411 238.934 532.527 239.339 532.614L240.919 532.932C241.768 533.106 242.4 533.386 242.817 533.773C243.233 534.159 243.442 534.667 243.442 535.295C243.442 535.867 243.273 536.369 242.936 536.801C242.603 537.233 242.144 537.57 241.561 537.812C240.982 538.051 240.313 538.17 239.555 538.17C238.4 538.17 237.48 537.93 236.794 537.449C236.112 536.964 235.713 536.305 235.595 535.472L237.976 535.347C238.048 535.699 238.222 535.968 238.499 536.153C238.775 536.335 239.129 536.426 239.561 536.426C239.985 536.426 240.326 536.345 240.584 536.182C240.845 536.015 240.978 535.801 240.982 535.54C240.978 535.32 240.885 535.14 240.703 535C240.521 534.856 240.241 534.746 239.862 534.67L238.351 534.369C237.499 534.199 236.864 533.903 236.447 533.483C236.035 533.062 235.828 532.527 235.828 531.875C235.828 531.314 235.98 530.831 236.283 530.426C236.589 530.021 237.019 529.708 237.572 529.489C238.129 529.269 238.781 529.159 239.527 529.159C240.629 529.159 241.497 529.392 242.129 529.858C242.766 530.324 243.137 530.958 243.243 531.761Z" fill="black"/>
</g>
<path d="M300 548L307 521M313 528L320 535L313 541M294 541L287 535L294 528" stroke="#FCFEFF" stroke-width="2" stroke-linecap="round" stroke-linejoin="round"/>
<path d="M628 809C628 846.003 598.003 876 561 876C523.997 876 494 846.003 494 809C494 771.997 523.997 742 561 742C598.003 742 628 771.997 628 809ZM514 809C514 834.957 535.043 856 561 856C586.957 856 608 834.957 608 809C608 783.043 586.957 762 561 762C535.043 762 514 783.043 514 809Z" fill="#EBEBEB"/>
<path d="M561 752C561 746.477 565.502 741.924 570.963 742.745C579.226 743.987 587.213 746.769 594.5 750.976C604.685 756.857 613.143 765.315 619.024 775.5C624.904 785.685 628 797.239 628 809C628 820.761 624.904 832.315 619.024 842.5C613.143 852.685 604.685 861.143 594.5 867.024C584.315 872.904 572.761 876 561 876C549.239 876 537.685 872.904 527.5 867.024C520.213 862.817 513.81 857.29 508.603 850.756C505.161 846.437 506.854 840.261 511.637 837.5C516.419 834.739 522.468 836.473 526.177 840.565C529.441 844.166 533.257 847.253 537.5 849.703C544.645 853.828 552.75 856 561 856C569.25 856 577.355 853.828 584.5 849.703C591.645 845.578 597.578 839.645 601.703 832.5C605.828 825.355 608 817.25 608 809C608 800.75 605.828 792.645 601.703 785.5C597.578 778.355 591.645 772.422 584.5 768.297C580.257 765.847 575.675 764.086 570.925 763.06C565.527 761.894 561 757.523 561 752Z" fill="#FFC107"/>
<path d="M531.316 815V813.449L534.94 810.093C535.248 809.795 535.507 809.526 535.715 809.288C535.927 809.049 536.088 808.815 536.198 808.587C536.307 808.355 536.362 808.104 536.362 807.836C536.362 807.538 536.294 807.281 536.158 807.065C536.022 806.847 535.836 806.679 535.601 806.563C535.366 806.444 535.099 806.384 534.801 806.384C534.489 806.384 534.217 806.447 533.985 806.573C533.753 806.699 533.574 806.88 533.448 807.115C533.322 807.35 533.259 807.63 533.259 807.955H531.216C531.216 807.289 531.367 806.711 531.669 806.22C531.97 805.73 532.393 805.35 532.936 805.082C533.48 804.813 534.106 804.679 534.816 804.679C535.545 804.679 536.179 804.808 536.72 805.067C537.263 805.322 537.686 805.677 537.987 806.131C538.289 806.585 538.44 807.105 538.44 807.692C538.44 808.076 538.364 808.456 538.211 808.83C538.062 809.205 537.795 809.621 537.411 810.078C537.026 810.532 536.484 811.077 535.785 811.714L534.298 813.17V813.24H538.574V815H531.316ZM544.126 815.224C543.271 815.22 542.535 815.01 541.919 814.592C541.306 814.175 540.833 813.57 540.502 812.778C540.174 811.986 540.011 811.033 540.015 809.919C540.015 808.809 540.179 807.862 540.507 807.08C540.838 806.298 541.31 805.703 541.924 805.295C542.54 804.884 543.274 804.679 544.126 804.679C544.978 804.679 545.71 804.884 546.324 805.295C546.94 805.706 547.414 806.303 547.745 807.085C548.077 807.864 548.241 808.809 548.238 809.919C548.238 811.036 548.072 811.991 547.74 812.783C547.412 813.575 546.942 814.18 546.328 814.597C545.715 815.015 544.981 815.224 544.126 815.224ZM544.126 813.439C544.709 813.439 545.175 813.146 545.523 812.559C545.871 811.972 546.043 811.092 546.04 809.919C546.04 809.147 545.961 808.504 545.801 807.99C545.646 807.476 545.424 807.09 545.135 806.832C544.85 806.573 544.514 806.444 544.126 806.444C543.546 806.444 543.082 806.734 542.734 807.314C542.386 807.894 542.21 808.762 542.207 809.919C542.207 810.701 542.285 811.354 542.441 811.878C542.6 812.398 542.824 812.789 543.112 813.051C543.4 813.31 543.738 813.439 544.126 813.439ZM551.03 813.817C550.702 813.817 550.421 813.701 550.185 813.469C549.953 813.237 549.837 812.955 549.837 812.624C549.837 812.299 549.953 812.02 550.185 811.788C550.421 811.556 550.702 811.44 551.03 811.44C551.349 811.44 551.627 811.556 551.866 811.788C552.104 812.02 552.224 812.299 552.224 812.624C552.224 812.842 552.167 813.043 552.055 813.225C551.945 813.404 551.801 813.548 551.622 813.658C551.443 813.764 551.246 813.817 551.03 813.817ZM551.03 808.82C550.702 808.82 550.421 808.704 550.185 808.472C549.953 808.24 549.837 807.959 549.837 807.627C549.837 807.302 549.953 807.026 550.185 806.797C550.421 806.565 550.702 806.449 551.03 806.449C551.349 806.449 551.627 806.565 551.866 806.797C552.104 807.026 552.224 807.302 552.224 807.627C552.224 807.849 552.167 808.051 552.055 808.234C551.945 808.413 551.801 808.555 551.622 808.661C551.443 808.767 551.246 808.82 551.03 808.82ZM557.935 815.224C557.08 815.22 556.344 815.01 555.727 814.592C555.114 814.175 554.642 813.57 554.31 812.778C553.982 811.986 553.82 811.033 553.823 809.919C553.823 808.809 553.987 807.862 554.315 807.08C554.647 806.298 555.119 805.703 555.732 805.295C556.349 804.884 557.083 804.679 557.935 804.679C558.786 804.679 559.519 804.884 560.132 805.295C560.749 805.706 561.223 806.303 561.554 807.085C561.885 807.864 562.049 808.809 562.046 809.919C562.046 811.036 561.88 811.991 561.549 812.783C561.221 813.575 560.75 814.18 560.137 814.597C559.524 815.015 558.79 815.224 557.935 815.224ZM557.935 813.439C558.518 813.439 558.984 813.146 559.332 812.559C559.68 811.972 559.852 811.092 559.849 809.919C559.849 809.147 559.769 808.504 559.61 807.99C559.454 807.476 559.232 807.09 558.944 806.832C558.659 806.573 558.322 806.444 557.935 806.444C557.355 806.444 556.891 806.734 556.543 807.314C556.195 807.894 556.019 808.762 556.016 809.919C556.016 810.701 556.094 811.354 556.249 811.878C556.408 812.398 556.632 812.789 556.92 813.051C557.209 813.31 557.547 813.439 557.935 813.439ZM567.573 815.224C566.718 815.22 565.982 815.01 565.366 814.592C564.753 814.175 564.28 813.57 563.949 812.778C563.621 811.986 563.459 811.033 563.462 809.919C563.462 808.809 563.626 807.862 563.954 807.08C564.285 806.298 564.758 805.703 565.371 805.295C565.987 804.884 566.722 804.679 567.573 804.679C568.425 804.679 569.158 804.884 569.771 805.295C570.387 805.706 570.861 806.303 571.193 807.085C571.524 807.864 571.688 808.809 571.685 809.919C571.685 811.036 571.519 811.991 571.188 812.783C570.86 813.575 570.389 814.18 569.776 814.597C569.163 815.015 568.428 815.224 567.573 815.224ZM567.573 813.439C568.157 813.439 568.622 813.146 568.97 812.559C569.318 811.972 569.491 811.092 569.487 809.919C569.487 809.147 569.408 808.504 569.249 807.99C569.093 807.476 568.871 807.09 568.583 806.832C568.298 806.573 567.961 806.444 567.573 806.444C566.993 806.444 566.529 806.734 566.181 807.314C565.833 807.894 565.658 808.762 565.654 809.919C565.654 810.701 565.732 811.354 565.888 811.878C566.047 812.398 566.271 812.789 566.559 813.051C566.847 813.31 567.186 813.439 567.573 813.439ZM576.52 815V804.818H580.537C581.309 804.818 581.967 804.966 582.51 805.261C583.054 805.552 583.468 805.958 583.753 806.479C584.042 806.996 584.186 807.592 584.186 808.268C584.186 808.945 584.04 809.541 583.748 810.058C583.457 810.575 583.034 810.978 582.481 811.266C581.93 811.555 581.264 811.699 580.482 811.699H577.922V809.974H580.134C580.548 809.974 580.89 809.902 581.158 809.76C581.43 809.614 581.632 809.414 581.765 809.158C581.901 808.9 581.969 808.603 581.969 808.268C581.969 807.93 581.901 807.635 581.765 807.384C581.632 807.128 581.43 806.931 581.158 806.792C580.886 806.649 580.542 806.578 580.124 806.578H578.672V815H576.52ZM585.584 804.818H588.239L591.043 811.659H591.162L593.966 804.818H596.621V815H594.533V808.373H594.449L591.814 814.95H590.392L587.757 808.348H587.672V815H585.584V804.818Z" fill="white"/>
<g filter="url(#filter4_d_2_224)">
<rect x="657" y="778" width="262" height="65" rx="10" fill="#FAFCFF"/>
<path d="M656 833V788C656 782.477 660.477 778 666 778H716V843H666C660.477 843 656 838.523 656 833Z" fill="#7E57C2"/>
<path d="M739.011 815V803.364H746.852V805.392H741.472V808.165H746.449V810.193H741.472V812.972H746.875V815H739.011ZM751.183 809.955V815H748.763V806.273H751.07V807.812H751.172C751.365 807.305 751.689 806.903 752.143 806.608C752.598 806.309 753.149 806.159 753.797 806.159C754.403 806.159 754.931 806.292 755.382 806.557C755.833 806.822 756.183 807.201 756.433 807.693C756.683 808.182 756.808 808.765 756.808 809.443V815H754.388V809.875C754.392 809.341 754.255 808.924 753.979 808.625C753.702 808.322 753.321 808.17 752.837 808.17C752.511 808.17 752.223 808.241 751.973 808.381C751.727 808.521 751.534 808.725 751.393 808.994C751.257 809.259 751.187 809.58 751.183 809.955ZM762.659 815.17C761.765 815.17 760.996 814.981 760.352 814.602C759.712 814.22 759.22 813.689 758.875 813.011C758.534 812.333 758.364 811.553 758.364 810.67C758.364 809.777 758.536 808.992 758.881 808.318C759.229 807.64 759.723 807.112 760.364 806.733C761.004 806.35 761.765 806.159 762.648 806.159C763.409 806.159 764.076 806.297 764.648 806.574C765.22 806.85 765.672 807.239 766.006 807.739C766.339 808.239 766.523 808.826 766.557 809.5H764.273C764.208 809.064 764.038 808.714 763.761 808.449C763.489 808.18 763.131 808.045 762.688 808.045C762.312 808.045 761.985 808.148 761.705 808.352C761.428 808.553 761.212 808.847 761.057 809.233C760.902 809.619 760.824 810.087 760.824 810.636C760.824 811.193 760.9 811.667 761.051 812.057C761.206 812.447 761.424 812.744 761.705 812.949C761.985 813.153 762.312 813.256 762.688 813.256C762.964 813.256 763.212 813.199 763.432 813.085C763.655 812.972 763.839 812.807 763.983 812.591C764.131 812.371 764.227 812.108 764.273 811.801H766.557C766.519 812.468 766.337 813.055 766.011 813.562C765.689 814.066 765.244 814.46 764.676 814.744C764.108 815.028 763.436 815.17 762.659 815.17ZM772.084 815.17C771.186 815.17 770.413 814.989 769.766 814.625C769.122 814.258 768.625 813.739 768.277 813.068C767.929 812.394 767.754 811.597 767.754 810.676C767.754 809.778 767.929 808.991 768.277 808.312C768.625 807.634 769.116 807.106 769.749 806.727C770.385 806.348 771.131 806.159 771.987 806.159C772.563 806.159 773.099 806.252 773.595 806.438C774.095 806.619 774.531 806.894 774.902 807.261C775.277 807.629 775.569 808.091 775.777 808.648C775.985 809.201 776.089 809.848 776.089 810.591V811.256H768.72V809.756H773.811C773.811 809.407 773.735 809.098 773.584 808.83C773.432 808.561 773.222 808.35 772.953 808.199C772.688 808.044 772.379 807.966 772.027 807.966C771.66 807.966 771.334 808.051 771.05 808.222C770.769 808.388 770.55 808.614 770.391 808.898C770.232 809.178 770.15 809.491 770.146 809.835V811.261C770.146 811.693 770.226 812.066 770.385 812.381C770.548 812.695 770.777 812.938 771.072 813.108C771.368 813.278 771.718 813.364 772.124 813.364C772.393 813.364 772.639 813.326 772.862 813.25C773.086 813.174 773.277 813.061 773.436 812.909C773.595 812.758 773.716 812.572 773.8 812.352L776.038 812.5C775.925 813.038 775.692 813.508 775.339 813.909C774.991 814.307 774.54 814.617 773.987 814.841C773.438 815.061 772.804 815.17 772.084 815.17ZM777.669 815V806.273H780.016V807.795H780.107C780.266 807.254 780.533 806.845 780.908 806.568C781.283 806.288 781.714 806.148 782.203 806.148C782.324 806.148 782.455 806.155 782.595 806.17C782.735 806.186 782.858 806.206 782.964 806.233V808.381C782.851 808.347 782.694 808.316 782.493 808.29C782.292 808.263 782.108 808.25 781.942 808.25C781.586 808.25 781.268 808.328 780.987 808.483C780.711 808.634 780.491 808.847 780.328 809.119C780.169 809.392 780.089 809.706 780.089 810.062V815H777.669ZM784.216 815V806.273H786.562V807.795H786.653C786.813 807.254 787.08 806.845 787.455 806.568C787.83 806.288 788.261 806.148 788.75 806.148C788.871 806.148 789.002 806.155 789.142 806.17C789.282 806.186 789.405 806.206 789.511 806.233V808.381C789.398 808.347 789.241 808.316 789.04 808.29C788.839 808.263 788.655 808.25 788.489 808.25C788.133 808.25 787.814 808.328 787.534 808.483C787.258 808.634 787.038 808.847 786.875 809.119C786.716 809.392 786.636 809.706 786.636 810.062V815H784.216ZM793.001 815.165C792.445 815.165 791.948 815.068 791.513 814.875C791.077 814.678 790.732 814.388 790.479 814.006C790.229 813.619 790.104 813.138 790.104 812.562C790.104 812.078 790.193 811.67 790.371 811.341C790.549 811.011 790.791 810.746 791.098 810.545C791.405 810.345 791.753 810.193 792.143 810.091C792.537 809.989 792.95 809.917 793.382 809.875C793.89 809.822 794.299 809.773 794.609 809.727C794.92 809.678 795.145 809.606 795.286 809.511C795.426 809.417 795.496 809.277 795.496 809.091V809.057C795.496 808.697 795.382 808.419 795.155 808.222C794.931 808.025 794.613 807.926 794.2 807.926C793.765 807.926 793.418 808.023 793.161 808.216C792.903 808.405 792.732 808.644 792.649 808.932L790.411 808.75C790.524 808.22 790.748 807.761 791.081 807.375C791.414 806.985 791.844 806.686 792.371 806.477C792.901 806.265 793.515 806.159 794.212 806.159C794.696 806.159 795.161 806.216 795.604 806.33C796.051 806.443 796.446 806.619 796.791 806.858C797.14 807.097 797.414 807.403 797.615 807.778C797.816 808.15 797.916 808.595 797.916 809.114V815H795.621V813.79H795.553C795.412 814.062 795.225 814.303 794.99 814.511C794.755 814.716 794.473 814.877 794.143 814.994C793.814 815.108 793.433 815.165 793.001 815.165ZM793.695 813.494C794.051 813.494 794.365 813.424 794.638 813.284C794.911 813.14 795.125 812.947 795.28 812.705C795.435 812.462 795.513 812.187 795.513 811.881V810.955C795.437 811.004 795.333 811.049 795.2 811.091C795.071 811.129 794.926 811.165 794.763 811.199C794.6 811.229 794.437 811.258 794.274 811.284C794.111 811.307 793.964 811.328 793.831 811.347C793.547 811.388 793.299 811.455 793.087 811.545C792.875 811.636 792.71 811.759 792.592 811.915C792.475 812.066 792.416 812.256 792.416 812.483C792.416 812.812 792.536 813.064 792.774 813.239C793.017 813.409 793.323 813.494 793.695 813.494ZM799.794 815V806.273H802.101V807.812H802.203C802.385 807.301 802.688 806.898 803.112 806.602C803.536 806.307 804.044 806.159 804.635 806.159C805.233 806.159 805.743 806.309 806.163 806.608C806.584 806.903 806.864 807.305 807.004 807.812H807.095C807.273 807.312 807.595 806.913 808.061 806.614C808.531 806.311 809.086 806.159 809.726 806.159C810.54 806.159 811.201 806.419 811.709 806.938C812.22 807.453 812.476 808.184 812.476 809.131V815H810.061V809.608C810.061 809.123 809.932 808.759 809.675 808.517C809.417 808.275 809.095 808.153 808.709 808.153C808.269 808.153 807.927 808.294 807.68 808.574C807.434 808.85 807.311 809.216 807.311 809.67V815H804.964V809.557C804.964 809.129 804.841 808.788 804.595 808.534C804.353 808.28 804.033 808.153 803.635 808.153C803.366 808.153 803.124 808.222 802.908 808.358C802.696 808.491 802.527 808.678 802.402 808.92C802.277 809.159 802.214 809.439 802.214 809.761V815H799.794ZM818.365 815.17C817.467 815.17 816.695 814.989 816.047 814.625C815.403 814.258 814.907 813.739 814.558 813.068C814.21 812.394 814.036 811.597 814.036 810.676C814.036 809.778 814.21 808.991 814.558 808.312C814.907 807.634 815.397 807.106 816.03 806.727C816.666 806.348 817.412 806.159 818.268 806.159C818.844 806.159 819.38 806.252 819.876 806.438C820.376 806.619 820.812 806.894 821.183 807.261C821.558 807.629 821.85 808.091 822.058 808.648C822.267 809.201 822.371 809.848 822.371 810.591V811.256H815.001V809.756H820.092C820.092 809.407 820.017 809.098 819.865 808.83C819.714 808.561 819.503 808.35 819.234 808.199C818.969 808.044 818.661 807.966 818.308 807.966C817.941 807.966 817.615 808.051 817.331 808.222C817.051 808.388 816.831 808.614 816.672 808.898C816.513 809.178 816.431 809.491 816.428 809.835V811.261C816.428 811.693 816.507 812.066 816.666 812.381C816.829 812.695 817.058 812.938 817.354 813.108C817.649 813.278 818 813.364 818.405 813.364C818.674 813.364 818.92 813.326 819.143 813.25C819.367 813.174 819.558 813.061 819.717 812.909C819.876 812.758 819.998 812.572 820.081 812.352L822.32 812.5C822.206 813.038 821.973 813.508 821.621 813.909C821.272 814.307 820.821 814.617 820.268 814.841C819.719 815.061 819.085 815.17 818.365 815.17ZM826.371 809.955V815H823.95V806.273H826.257V807.812H826.359C826.553 807.305 826.876 806.903 827.331 806.608C827.786 806.309 828.337 806.159 828.984 806.159C829.59 806.159 830.119 806.292 830.57 806.557C831.02 806.822 831.371 807.201 831.621 807.693C831.871 808.182 831.996 808.765 831.996 809.443V815H829.575V809.875C829.579 809.341 829.443 808.924 829.166 808.625C828.89 808.322 828.509 808.17 828.024 808.17C827.698 808.17 827.411 808.241 827.161 808.381C826.914 808.521 826.721 808.725 826.581 808.994C826.445 809.259 826.375 809.58 826.371 809.955ZM838.545 806.273V808.091H833.29V806.273H838.545ZM834.483 804.182H836.903V812.318C836.903 812.542 836.938 812.716 837.006 812.841C837.074 812.962 837.169 813.047 837.29 813.097C837.415 813.146 837.559 813.17 837.722 813.17C837.835 813.17 837.949 813.161 838.062 813.142C838.176 813.119 838.263 813.102 838.324 813.091L838.705 814.892C838.583 814.93 838.413 814.973 838.193 815.023C837.973 815.076 837.706 815.108 837.392 815.119C836.809 815.142 836.297 815.064 835.858 814.886C835.422 814.708 835.083 814.432 834.841 814.057C834.598 813.682 834.479 813.208 834.483 812.636V804.182ZM843.972 815.17C843.089 815.17 842.326 814.983 841.682 814.608C841.042 814.229 840.547 813.703 840.199 813.028C839.85 812.35 839.676 811.564 839.676 810.67C839.676 809.769 839.85 808.981 840.199 808.307C840.547 807.629 841.042 807.102 841.682 806.727C842.326 806.348 843.089 806.159 843.972 806.159C844.854 806.159 845.616 806.348 846.256 806.727C846.9 807.102 847.396 807.629 847.744 808.307C848.093 808.981 848.267 809.769 848.267 810.67C848.267 811.564 848.093 812.35 847.744 813.028C847.396 813.703 846.9 814.229 846.256 814.608C845.616 814.983 844.854 815.17 843.972 815.17ZM843.983 813.295C844.384 813.295 844.72 813.182 844.989 812.955C845.258 812.723 845.46 812.409 845.597 812.011C845.737 811.614 845.807 811.161 845.807 810.653C845.807 810.146 845.737 809.693 845.597 809.295C845.46 808.898 845.258 808.583 844.989 808.352C844.72 808.121 844.384 808.006 843.983 808.006C843.578 808.006 843.237 808.121 842.96 808.352C842.688 808.583 842.481 808.898 842.341 809.295C842.205 809.693 842.136 810.146 842.136 810.653C842.136 811.161 842.205 811.614 842.341 812.011C842.481 812.409 842.688 812.723 842.96 812.955C843.237 813.182 843.578 813.295 843.983 813.295Z" fill="black"/>
</g>
<path d="M671 826V819M686 797V806M671 819V799C671 798.116 671.375 797.625 672 797C672.625 796.375 673.116 796 674 796H685L687 798H701L696 808L701 818H687L685 816H674C673.116 816 672.625 816.375 672 817C671.375 817.625 671 818.116 671 819V819Z" stroke="#FCFEFF" stroke-width="2" stroke-linecap="round" stroke-linejoin="round"/>
<path d="M563 162V714" stroke="#FAFCFF"/>
<defs>
<filter id="filter0_d_2_224" x="652" y="35" width="339" height="73" filterUnits="userSpaceOnUse" color-interpolation-filters="sRGB">
<feFlood flood-opacity="0" result="BackgroundImageFix"/>
<feColorMatrix in="SourceAlpha" type="matrix" values="0 0 0 0 0 0 0 0 0 0 0 0 0 0 0 0 0 0 127 0" result="hardAlpha"/>
<feOffset dy="4"/>
<feGaussianBlur stdDeviation="2"/>
<feComposite in2="hardAlpha" operator="out"/>
<feColorMatrix type="matrix" values="0 0 0 0 0.0763636 0 0 0 0 0.121364 0 0 0 0 0.18 0 0 0 0.2 0"/>
<feBlend mode="normal" in2="BackgroundImageFix" result="effect1_dropShadow_2_224"/>
<feBlend mode="normal" in="SourceGraphic" in2="effect1_dropShadow_2_224" result="shape"/>
</filter>
<filter id="filter1_d_2_224" x="-1" y="250" width="339" height="72" filterUnits="userSpaceOnUse" color-interpolation-filters="sRGB">
<feFlood flood-opacity="0" result="BackgroundImageFix"/>
<feColorMatrix in="SourceAlpha" type="matrix" values="0 0 0 0 0 0 0 0 0 0 0 0 0 0 0 0 0 0 127 0" result="hardAlpha"/>
<feOffset dy="4"/>
<feGaussianBlur stdDeviation="2"/>
<feComposite in2="hardAlpha" operator="out"/>
<feColorMatrix type="matrix" values="0 0 0 0 0.0763636 0 0 0 0 0.121364 0 0 0 0 0.18 0 0 0 0.2 0"/>
<feBlend mode="normal" in2="BackgroundImageFix" result="effect1_dropShadow_2_224"/>
<feBlend mode="normal" in="SourceGraphic" in2="effect1_dropShadow_2_224" result="shape"/>
</filter>
<filter id="filter2_d_2_224" x="780" y="371" width="339" height="73" filterUnits="userSpaceOnUse" color-interpolation-filters="sRGB">
<feFlood flood-opacity="0" result="BackgroundImageFix"/>
<feColorMatrix in="SourceAlpha" type="matrix" values="0 0 0 0 0 0 0 0 0 0 0 0 0 0 0 0 0 0 127 0" result="hardAlpha"/>
<feOffset dy="4"/>
<feGaussianBlur stdDeviation="2"/>
<feComposite in2="hardAlpha" operator="out"/>
<feColorMatrix type="matrix" values="0 0 0 0 0.0763636 0 0 0 0 0.121364 0 0 0 0 0.18 0 0 0 0.2 0"/>
<feBlend mode="normal" in2="BackgroundImageFix" result="effect1_dropShadow_2_224"/>
<feBlend mode="normal" in="SourceGraphic" in2="effect1_dropShadow_2_224" result="shape"/>
</filter>
<filter id="filter3_d_2_224" x="-1" y="501" width="339" height="72" filterUnits="userSpaceOnUse" color-interpolation-filters="sRGB">
<feFlood flood-opacity="0" result="BackgroundImageFix"/>
<feColorMatrix in="SourceAlpha" type="matrix" values="0 0 0 0 0 0 0 0 0 0 0 0 0 0 0 0 0 0 127 0" result="hardAlpha"/>
<feOffset dy="4"/>
<feGaussianBlur stdDeviation="2"/>
<feComposite in2="hardAlpha" operator="out"/>
<feColorMatrix type="matrix" values="0 0 0 0 0.0763636 0 0 0 0 0.121364 0 0 0 0 0.18 0 0 0 0.2 0"/>
<feBlend mode="normal" in2="BackgroundImageFix" result="effect1_dropShadow_2_224"/>
<feBlend mode="normal" in="SourceGraphic" in2="effect1_dropShadow_2_224" result="shape"/>
</filter>
<filter id="filter4_d_2_224" x="652" y="778" width="339" height="73" filterUnits="userSpaceOnUse" color-interpolation-filters="sRGB">
<feFlood flood-opacity="0" result="BackgroundImageFix"/>
<feColorMatrix in="SourceAlpha" type="matrix" values="0 0 0 0 0 0 0 0 0 0 0 0 0 0 0 0 0 0 127 0" result="hardAlpha"/>
<feOffset dy="4"/>
<feGaussianBlur stdDeviation="2"/>
<feComposite in2="hardAlpha" operator="out"/>
<feColorMatrix type="matrix" values="0 0 0 0 0.0763636 0 0 0 0 0.121364 0 0 0 0 0.18 0 0 0 0.2 0"/>
<feBlend mode="normal" in2="BackgroundImageFix" result="effect1_dropShadow_2_224"/>
<feBlend mode="normal" in="SourceGraphic" in2="effect1_dropShadow_2_224" result="shape"/>
</filter>
</defs>
</svg>
