<svg width="1065" height="876" viewBox="0 0 1065 876" fill="none" xmlns="http://www.w3.org/2000/svg">
<path d="M603 67C603 104.003 573.003 134 536 134C498.997 134 469 104.003 469 67C469 29.9969 498.997 0 536 0C573.003 0 603 29.9969 603 67ZM489 67C489 92.9574 510.043 114 536 114C561.957 114 583 92.9574 583 67C583 41.0426 561.957 20 536 20C510.043 20 489 41.0426 489 67Z" fill="#EBEBEB"/>
<path d="M536 10C536 4.47715 540.502 -0.0764188 545.963 0.744862C555.675 2.20532 564.99 5.79 573.223 11.2915C584.241 18.6536 592.829 29.1176 597.9 41.3602C602.971 53.6029 604.298 67.0743 601.713 80.0711C599.127 93.0678 592.746 105.006 583.376 114.376C574.006 123.746 562.068 130.127 549.071 132.713C536.074 135.298 522.603 133.971 510.36 128.9C498.118 123.829 487.654 115.241 480.292 104.223C474.79 95.9896 471.205 86.675 469.745 76.9631C468.924 71.5016 473.477 67 479 67V67C484.523 67 488.894 71.5266 490.06 76.9249C491.302 82.6753 493.62 88.171 496.921 93.1118C502.085 100.841 509.426 106.865 518.014 110.422C526.602 113.98 536.052 114.91 545.169 113.097C554.286 111.283 562.661 106.807 569.234 100.234C575.807 93.661 580.283 85.2864 582.097 76.1692C583.91 67.0521 582.98 57.602 579.422 49.0139C575.865 40.4258 569.841 33.0854 562.112 27.9209C557.171 24.6196 551.675 22.3022 545.925 21.0598C540.527 19.8936 536 15.5228 536 10V10Z" fill="#FFC107"/>
<path d="M509.903 62.679C510.426 62.679 510.93 62.7668 511.414 62.9425C511.901 63.1181 512.336 63.3982 512.717 63.7827C513.101 64.1671 513.404 64.6776 513.627 65.3139C513.852 65.947 513.966 66.7242 513.97 67.6456C513.97 68.5107 513.872 69.2829 513.676 69.9624C513.484 70.6385 513.207 71.2135 512.846 71.6875C512.485 72.1615 512.049 72.5227 511.538 72.7713C511.028 73.0166 510.458 73.1392 509.828 73.1392C509.149 73.1392 508.549 73.0083 508.028 72.7464C507.508 72.4813 507.089 72.1217 506.771 71.6676C506.456 71.2102 506.265 70.6965 506.199 70.1264H508.322C508.405 70.4976 508.579 70.786 508.844 70.9915C509.109 71.1937 509.437 71.2947 509.828 71.2947C510.491 71.2947 510.995 71.0064 511.34 70.4297C511.684 69.8497 511.858 69.0559 511.862 68.0483H511.792C511.64 68.3466 511.434 68.6035 511.176 68.8189C510.917 69.031 510.62 69.1951 510.286 69.3111C509.954 69.4271 509.601 69.4851 509.227 69.4851C508.627 69.4851 508.091 69.3442 507.621 69.0625C507.15 68.7808 506.779 68.393 506.507 67.8991C506.235 67.4053 506.1 66.8419 506.1 66.2088C506.096 65.526 506.254 64.9179 506.572 64.3842C506.89 63.8506 507.334 63.433 507.904 63.1314C508.478 62.8265 509.144 62.6757 509.903 62.679ZM509.918 64.3693C509.583 64.3693 509.285 64.4489 509.023 64.608C508.764 64.767 508.559 64.9808 508.406 65.2493C508.257 65.5178 508.184 65.8177 508.188 66.1491C508.188 66.4839 508.261 66.7855 508.406 67.054C508.555 67.3191 508.758 67.5312 509.013 67.6903C509.271 67.8461 509.566 67.924 509.898 67.924C510.146 67.924 510.377 67.8776 510.589 67.7848C510.801 67.692 510.985 67.5644 511.141 67.402C511.3 67.2363 511.424 67.0457 511.514 66.8303C511.603 66.6148 511.648 66.3861 511.648 66.1442C511.645 65.8227 511.568 65.5277 511.419 65.2592C511.27 64.9908 511.064 64.7753 510.803 64.6129C510.541 64.4505 510.246 64.3693 509.918 64.3693ZM516.719 71.8168C516.391 71.8168 516.109 71.7008 515.874 71.4688C515.642 71.2367 515.526 70.955 515.526 70.6236C515.526 70.2988 515.642 70.0204 515.874 69.7884C516.109 69.5563 516.391 69.4403 516.719 69.4403C517.037 69.4403 517.315 69.5563 517.554 69.7884C517.793 70.0204 517.912 70.2988 517.912 70.6236C517.912 70.8423 517.856 71.0429 517.743 71.2251C517.634 71.4041 517.489 71.5483 517.31 71.6577C517.131 71.7637 516.934 71.8168 516.719 71.8168ZM516.719 66.8203C516.391 66.8203 516.109 66.7043 515.874 66.4723C515.642 66.2403 515.526 65.9586 515.526 65.6271C515.526 65.3023 515.642 65.0256 515.874 64.7969C516.109 64.5649 516.391 64.4489 516.719 64.4489C517.037 64.4489 517.315 64.5649 517.554 64.7969C517.793 65.0256 517.912 65.3023 517.912 65.6271C517.912 65.8492 517.856 66.0514 517.743 66.2337C517.634 66.4126 517.489 66.5552 517.31 66.6612C517.131 66.7673 516.934 66.8203 516.719 66.8203ZM523.623 73.2237C522.768 73.2204 522.032 73.0099 521.416 72.5923C520.803 72.1747 520.33 71.5698 519.999 70.7777C519.671 69.9856 519.508 69.0327 519.512 67.919C519.512 66.8087 519.676 65.8625 520.004 65.0803C520.335 64.2981 520.808 63.7031 521.421 63.2955C522.037 62.8845 522.771 62.679 523.623 62.679C524.475 62.679 525.207 62.8845 525.821 63.2955C526.437 63.7064 526.911 64.303 527.242 65.0852C527.574 65.8641 527.738 66.8087 527.735 67.919C527.735 69.036 527.569 69.9905 527.237 70.7827C526.909 71.5748 526.439 72.1797 525.826 72.5973C525.212 73.0149 524.478 73.2237 523.623 73.2237ZM523.623 71.4389C524.206 71.4389 524.672 71.1456 525.02 70.5589C525.368 69.9723 525.541 69.0923 525.537 67.919C525.537 67.1468 525.458 66.5038 525.299 65.9901C525.143 65.4763 524.921 65.0902 524.632 64.8317C524.347 64.5732 524.011 64.4439 523.623 64.4439C523.043 64.4439 522.579 64.7339 522.231 65.3139C521.883 65.8939 521.707 66.7623 521.704 67.919C521.704 68.7012 521.782 69.3542 521.938 69.8778C522.097 70.3982 522.321 70.7893 522.609 71.0511C522.897 71.3097 523.235 71.4389 523.623 71.4389ZM533.262 73.2237C532.407 73.2204 531.671 73.0099 531.054 72.5923C530.441 72.1747 529.969 71.5698 529.638 70.7777C529.309 69.9856 529.147 69.0327 529.15 67.919C529.15 66.8087 529.314 65.8625 529.642 65.0803C529.974 64.2981 530.446 63.7031 531.059 63.2955C531.676 62.8845 532.41 62.679 533.262 62.679C534.114 62.679 534.846 62.8845 535.459 63.2955C536.076 63.7064 536.55 64.303 536.881 65.0852C537.213 65.8641 537.377 66.8087 537.373 67.919C537.373 69.036 537.208 69.9905 536.876 70.7827C536.548 71.5748 536.077 72.1797 535.464 72.5973C534.851 73.0149 534.117 73.2237 533.262 73.2237ZM533.262 71.4389C533.845 71.4389 534.311 71.1456 534.659 70.5589C535.007 69.9723 535.179 69.0923 535.176 67.919C535.176 67.1468 535.096 66.5038 534.937 65.9901C534.781 65.4763 534.559 65.0902 534.271 64.8317C533.986 64.5732 533.65 64.4439 533.262 64.4439C532.682 64.4439 532.218 64.7339 531.87 65.3139C531.522 65.8939 531.346 66.7623 531.343 67.919C531.343 68.7012 531.421 69.3542 531.576 69.8778C531.736 70.3982 531.959 70.7893 532.248 71.0511C532.536 71.3097 532.874 71.4389 533.262 71.4389ZM543.963 73H541.656L545.171 62.8182H547.945L551.455 73H549.149L546.598 65.1449H546.519L543.963 73ZM543.819 68.9979H549.268V70.6783H543.819V68.9979ZM552.681 62.8182H555.336L558.14 69.6591H558.259L561.063 62.8182H563.718V73H561.63V66.3729H561.545L558.91 72.9503H557.488L554.853 66.348H554.769V73H552.681V62.8182Z" fill="white"/>
<g filter="url(#filter0_d_2_224)">
<rect x="632" y="35" width="262" height="65" rx="10" fill="#FAFCFF"/>
<path d="M631 90V45C631 39.4772 635.477 35 641 35H691V100H641C635.477 100 631 95.5228 631 90Z" fill="#7E57C2"/>
<path d="M716.256 60.3636V72H714.148V60.3636H716.256ZM720.504 66.8864V72H718.447V63.2727H720.413V64.7557H720.516C720.716 64.267 721.036 63.8788 721.476 63.5909C721.919 63.303 722.466 63.1591 723.118 63.1591C723.72 63.1591 724.245 63.2879 724.692 63.5455C725.143 63.803 725.491 64.1761 725.737 64.6648C725.987 65.1534 726.11 65.7462 726.107 66.4432V72H724.05V66.7614C724.05 66.178 723.898 65.7216 723.595 65.392C723.296 65.0625 722.881 64.8977 722.351 64.8977C721.991 64.8977 721.671 64.9773 721.391 65.1364C721.114 65.2917 720.896 65.517 720.737 65.8125C720.582 66.108 720.504 66.4659 720.504 66.8864ZM728.197 72V63.2727H730.254V72H728.197ZM728.442 62.125L729.714 59.5284H731.726L729.982 62.125H728.442ZM736.176 72.1705C735.305 72.1705 734.557 71.9792 733.932 71.5966C733.311 71.214 732.831 70.6856 732.494 70.0114C732.161 69.3333 731.994 68.553 731.994 67.6705C731.994 66.7841 732.165 66.0019 732.506 65.3239C732.847 64.642 733.328 64.1117 733.949 63.733C734.574 63.3504 735.313 63.1591 736.165 63.1591C736.873 63.1591 737.5 63.2898 738.045 63.5511C738.595 63.8087 739.032 64.1742 739.358 64.6477C739.684 65.1174 739.869 65.6667 739.915 66.2955H737.949C737.869 65.875 737.68 65.5246 737.381 65.2443C737.085 64.9602 736.689 64.8182 736.193 64.8182C735.773 64.8182 735.403 64.9318 735.085 65.1591C734.767 65.3826 734.519 65.7045 734.341 66.125C734.167 66.5455 734.08 67.0492 734.08 67.6364C734.08 68.2311 734.167 68.7424 734.341 69.1705C734.515 69.5947 734.759 69.9223 735.074 70.1534C735.392 70.3807 735.765 70.4943 736.193 70.4943C736.496 70.4943 736.767 70.4375 737.006 70.3239C737.248 70.2064 737.451 70.0379 737.614 69.8182C737.777 69.5985 737.888 69.3314 737.949 69.017H739.915C739.866 69.6345 739.684 70.1818 739.369 70.6591C739.055 71.1326 738.627 71.5038 738.085 71.7727C737.544 72.0379 736.907 72.1705 736.176 72.1705ZM741.604 72V63.2727H743.661V72H741.604ZM742.638 62.0341C742.312 62.0341 742.032 61.9261 741.797 61.7102C741.562 61.4905 741.445 61.2273 741.445 60.9205C741.445 60.6098 741.562 60.3466 741.797 60.1307C742.032 59.911 742.312 59.8011 742.638 59.8011C742.967 59.8011 743.248 59.911 743.479 60.1307C743.714 60.3466 743.831 60.6098 743.831 60.9205C743.831 61.2273 743.714 61.4905 743.479 61.7102C743.248 61.9261 742.967 62.0341 742.638 62.0341ZM749.582 72.1705C748.73 72.1705 747.991 71.983 747.366 71.608C746.741 71.233 746.257 70.7083 745.912 70.0341C745.571 69.3598 745.401 68.572 745.401 67.6705C745.401 66.7689 745.571 65.9792 745.912 65.3011C746.257 64.6231 746.741 64.0966 747.366 63.7216C747.991 63.3466 748.73 63.1591 749.582 63.1591C750.435 63.1591 751.173 63.3466 751.798 63.7216C752.423 64.0966 752.906 64.6231 753.247 65.3011C753.592 65.9792 753.764 66.7689 753.764 67.6705C753.764 68.572 753.592 69.3598 753.247 70.0341C752.906 70.7083 752.423 71.233 751.798 71.608C751.173 71.983 750.435 72.1705 749.582 72.1705ZM749.594 70.5227C750.056 70.5227 750.442 70.3958 750.753 70.142C751.063 69.8845 751.295 69.5398 751.446 69.108C751.601 68.6761 751.679 68.1951 751.679 67.6648C751.679 67.1307 751.601 66.6477 751.446 66.2159C751.295 65.7803 751.063 65.4337 750.753 65.1761C750.442 64.9186 750.056 64.7898 749.594 64.7898C749.12 64.7898 748.726 64.9186 748.412 65.1761C748.101 65.4337 747.868 65.7803 747.713 66.2159C747.562 66.6477 747.486 67.1307 747.486 67.6648C747.486 68.1951 747.562 68.6761 747.713 69.108C747.868 69.5398 748.101 69.8845 748.412 70.142C748.726 70.3958 749.12 70.5227 749.594 70.5227Z" fill="black"/>
<path d="M666 66L661 62C660.739 61.8395 660.313 62.0139 660 62C659.687 61.9861 659.277 61.8633 659 62C658.723 62.1367 658.161 62.7516 658 63C657.839 63.2483 657.999 63.7108 658 64V70C658 70.289 657.839 70.7521 658 71C658.161 71.2479 658.724 71.8637 659 72C659.276 72.1363 659.687 72.014 660 72C660.313 71.986 660.739 72.1604 661 72L666 68C666.237 67.8542 666.866 68.2317 667 68C667.135 67.7683 667 67.2627 667 67C667 66.7373 667.135 66.2317 667 66C666.866 65.7683 666.237 66.1458 666 66V66Z" stroke="#FCFEFF" stroke-width="2" stroke-linecap="round" stroke-linejoin="round"/>
<path d="M676 67C676 68.9698 675.754 71.1801 675 73C674.246 74.8199 673.393 76.6071 672 78C670.607 79.3929 668.82 80.2462 667 81C665.18 81.7538 662.97 82 661 82C659.03 82 656.82 81.7538 655 81C653.18 80.2462 651.393 79.3929 650 78C648.607 76.6071 647.754 74.8199 647 73C646.246 71.1801 646 68.9698 646 67C646 63.0218 647.187 58.813 650 56C652.813 53.187 657.022 52 661 52C664.978 52 669.187 53.187 672 56C674.813 58.813 676 63.0218 676 67Z" stroke="#FCFEFF" stroke-width="2" stroke-linecap="round" stroke-linejoin="round"/>
</g>
<path d="M499 281C499 318.003 469.244 348 432.537 348C395.831 348 366.074 318.003 366.074 281C366.074 243.997 395.831 214 432.537 214C469.244 214 499 243.997 499 281ZM385.914 281C385.914 306.957 406.788 328 432.537 328C458.286 328 479.16 306.957 479.16 281C479.16 255.043 458.286 234 432.537 234C406.788 234 385.914 255.043 385.914 281Z" fill="#EBEBEB"/>
<path d="M432.537 224C432.537 218.477 437.04 213.922 442.499 214.757C453.545 216.445 464.048 220.923 472.997 227.845C484.605 236.824 492.949 249.413 496.735 263.659C500.522 277.906 499.54 293.013 493.941 306.64C488.342 320.266 478.439 331.649 465.769 339.024C453.098 346.398 438.368 349.352 423.862 347.427C409.356 345.502 395.886 338.805 385.541 328.376C375.195 317.947 368.552 304.368 366.643 289.745C365.168 278.453 366.579 267.025 370.668 256.524C372.669 251.383 378.861 249.76 383.629 252.535V252.535C388.35 255.283 389.855 261.314 388.183 266.515C386.059 273.124 385.403 280.166 386.313 287.135C387.652 297.393 392.312 306.918 399.569 314.234C406.827 321.55 416.276 326.247 426.452 327.598C436.627 328.948 446.96 326.876 455.849 321.703C464.737 316.53 471.684 308.545 475.611 298.986C479.539 289.427 480.228 278.829 477.572 268.836C474.915 258.842 469.062 250.011 460.92 243.712C455.44 239.474 449.129 236.541 442.46 235.077C437.065 233.892 432.537 229.523 432.537 224V224Z" fill="#FFC107"/>
<path d="M408.035 276.818V287H405.882V278.862H405.822L403.49 280.323V278.414L406.011 276.818H408.035ZM414.447 287.224C413.592 287.22 412.856 287.01 412.239 286.592C411.626 286.175 411.154 285.57 410.822 284.778C410.494 283.986 410.332 283.033 410.335 281.919C410.335 280.809 410.499 279.862 410.827 279.08C411.159 278.298 411.631 277.703 412.244 277.295C412.861 276.884 413.595 276.679 414.447 276.679C415.298 276.679 416.031 276.884 416.644 277.295C417.261 277.706 417.735 278.303 418.066 279.085C418.397 279.864 418.561 280.809 418.558 281.919C418.558 283.036 418.392 283.991 418.061 284.783C417.733 285.575 417.262 286.18 416.649 286.597C416.036 287.015 415.302 287.224 414.447 287.224ZM414.447 285.439C415.03 285.439 415.496 285.146 415.844 284.559C416.192 283.972 416.364 283.092 416.361 281.919C416.361 281.147 416.281 280.504 416.122 279.99C415.966 279.476 415.744 279.09 415.456 278.832C415.171 278.573 414.834 278.444 414.447 278.444C413.867 278.444 413.403 278.734 413.055 279.314C412.707 279.894 412.531 280.762 412.528 281.919C412.528 282.701 412.605 283.354 412.761 283.878C412.92 284.398 413.144 284.789 413.432 285.051C413.721 285.31 414.059 285.439 414.447 285.439ZM421.351 285.817C421.023 285.817 420.741 285.701 420.506 285.469C420.274 285.237 420.158 284.955 420.158 284.624C420.158 284.299 420.274 284.02 420.506 283.788C420.741 283.556 421.023 283.44 421.351 283.44C421.669 283.44 421.948 283.556 422.186 283.788C422.425 284.02 422.544 284.299 422.544 284.624C422.544 284.842 422.488 285.043 422.375 285.225C422.266 285.404 422.122 285.548 421.943 285.658C421.764 285.764 421.566 285.817 421.351 285.817ZM421.351 280.82C421.023 280.82 420.741 280.704 420.506 280.472C420.274 280.24 420.158 279.959 420.158 279.627C420.158 279.302 420.274 279.026 420.506 278.797C420.741 278.565 421.023 278.449 421.351 278.449C421.669 278.449 421.948 278.565 422.186 278.797C422.425 279.026 422.544 279.302 422.544 279.627C422.544 279.849 422.488 280.051 422.375 280.234C422.266 280.413 422.122 280.555 421.943 280.661C421.764 280.767 421.566 280.82 421.351 280.82ZM428.255 287.224C427.4 287.22 426.664 287.01 426.048 286.592C425.435 286.175 424.962 285.57 424.631 284.778C424.303 283.986 424.14 283.033 424.144 281.919C424.144 280.809 424.308 279.862 424.636 279.08C424.967 278.298 425.44 277.703 426.053 277.295C426.669 276.884 427.403 276.679 428.255 276.679C429.107 276.679 429.84 276.884 430.453 277.295C431.069 277.706 431.543 278.303 431.875 279.085C432.206 279.864 432.37 280.809 432.367 281.919C432.367 283.036 432.201 283.991 431.87 284.783C431.541 285.575 431.071 286.18 430.458 286.597C429.844 287.015 429.11 287.224 428.255 287.224ZM428.255 285.439C428.839 285.439 429.304 285.146 429.652 284.559C430 283.972 430.173 283.092 430.169 281.919C430.169 281.147 430.09 280.504 429.931 279.99C429.775 279.476 429.553 279.09 429.264 278.832C428.979 278.573 428.643 278.444 428.255 278.444C427.675 278.444 427.211 278.734 426.863 279.314C426.515 279.894 426.34 280.762 426.336 281.919C426.336 282.701 426.414 283.354 426.57 283.878C426.729 284.398 426.953 284.789 427.241 285.051C427.529 285.31 427.867 285.439 428.255 285.439ZM437.894 287.224C437.039 287.22 436.303 287.01 435.687 286.592C435.073 286.175 434.601 285.57 434.27 284.778C433.941 283.986 433.779 283.033 433.782 281.919C433.782 280.809 433.946 279.862 434.275 279.08C434.606 278.298 435.078 277.703 435.691 277.295C436.308 276.884 437.042 276.679 437.894 276.679C438.746 276.679 439.478 276.884 440.091 277.295C440.708 277.706 441.182 278.303 441.513 279.085C441.845 279.864 442.009 280.809 442.005 281.919C442.005 283.036 441.84 283.991 441.508 284.783C441.18 285.575 440.709 286.18 440.096 286.597C439.483 287.015 438.749 287.224 437.894 287.224ZM437.894 285.439C438.477 285.439 438.943 285.146 439.291 284.559C439.639 283.972 439.811 283.092 439.808 281.919C439.808 281.147 439.728 280.504 439.569 279.99C439.414 279.476 439.191 279.09 438.903 278.832C438.618 278.573 438.282 278.444 437.894 278.444C437.314 278.444 436.85 278.734 436.502 279.314C436.154 279.894 435.978 280.762 435.975 281.919C435.975 282.701 436.053 283.354 436.209 283.878C436.368 284.398 436.591 284.789 436.88 285.051C437.168 285.31 437.506 285.439 437.894 285.439ZM448.595 287H446.288L449.803 276.818H452.578L456.087 287H453.781L451.23 279.145H451.151L448.595 287ZM448.451 282.998H453.9V284.678H448.451V282.998ZM457.313 276.818H459.968L462.772 283.659H462.891L465.695 276.818H468.35V287H466.262V280.373H466.177L463.542 286.95H462.12L459.486 280.348H459.401V287H457.313V276.818Z" fill="white"/>
<g filter="url(#filter1_d_2_224)">
<rect width="324.379" height="64" rx="10" transform="matrix(-1 0 0 1 329.371 250)" fill="white"/>
<path d="M330.363 304V260C330.363 254.477 325.886 250 320.363 250H270.844V314H320.363C325.886 314 330.363 309.523 330.363 304Z" fill="#7E57C2" fill-opacity="0.96"/>
<path d="M63.0539 287H60.8039L64.9005 275.364H67.5028L71.6051 287H69.3551L66.2471 277.75H66.1562L63.0539 287ZM63.1278 282.438H69.2642V284.131H63.1278V282.438ZM78.6051 290.273V285.625H78.5198C78.4138 285.837 78.2604 286.062 78.0596 286.301C77.8589 286.536 77.5937 286.737 77.2642 286.903C76.9346 287.07 76.5198 287.153 76.0198 287.153C75.3342 287.153 74.7206 286.977 74.1789 286.625C73.6373 286.273 73.2092 285.761 72.8948 285.091C72.5804 284.42 72.4232 283.606 72.4232 282.648C72.4232 281.678 72.5823 280.86 72.9005 280.193C73.2225 279.523 73.6562 279.017 74.2017 278.676C74.7471 278.331 75.3551 278.159 76.0255 278.159C76.5369 278.159 76.9573 278.246 77.2869 278.42C77.6164 278.591 77.8778 278.797 78.071 279.04C78.2642 279.278 78.4138 279.504 78.5198 279.716H78.6448V278.273H80.6676V290.273H78.6051ZM76.5937 285.466C77.0293 285.466 77.4005 285.348 77.7073 285.114C78.0142 284.875 78.2471 284.544 78.4062 284.119C78.5653 283.695 78.6448 283.201 78.6448 282.636C78.6448 282.072 78.5653 281.581 78.4062 281.165C78.2509 280.748 78.0198 280.424 77.713 280.193C77.41 279.962 77.0369 279.847 76.5937 279.847C76.1354 279.847 75.7528 279.966 75.446 280.205C75.1392 280.443 74.9081 280.773 74.7528 281.193C74.5975 281.614 74.5198 282.095 74.5198 282.636C74.5198 283.182 74.5975 283.669 74.7528 284.097C74.9119 284.521 75.1448 284.856 75.4517 285.102C75.7623 285.345 76.1429 285.466 76.5937 285.466ZM88.3437 283.33V278.273H90.4005V287H88.4062V285.449H88.3153C88.1183 285.937 87.7945 286.337 87.3437 286.648C86.8967 286.958 86.3456 287.114 85.6903 287.114C85.1183 287.114 84.6126 286.987 84.1732 286.733C83.7376 286.475 83.3967 286.102 83.1505 285.614C82.9043 285.121 82.7812 284.527 82.7812 283.83V278.273H84.838V283.511C84.838 284.064 84.9895 284.504 85.2926 284.83C85.5956 285.155 85.9933 285.318 86.4857 285.318C86.7888 285.318 87.0823 285.244 87.3664 285.097C87.6505 284.949 87.8835 284.729 88.0653 284.438C88.2509 284.142 88.3437 283.773 88.3437 283.33ZM96.3792 287.17C95.5042 287.17 94.7485 286.989 94.1122 286.625C93.4796 286.258 92.9928 285.739 92.6519 285.068C92.311 284.394 92.1406 283.6 92.1406 282.688C92.1406 281.79 92.311 281.002 92.6519 280.324C92.9966 279.642 93.4777 279.112 94.0951 278.733C94.7125 278.35 95.4379 278.159 96.2713 278.159C96.8091 278.159 97.3167 278.246 97.794 278.42C98.275 278.591 98.6993 278.856 99.0667 279.216C99.4379 279.576 99.7296 280.034 99.9417 280.591C100.154 281.144 100.26 281.803 100.26 282.568V283.199H93.1065V281.812H98.2883C98.2845 281.419 98.1993 281.068 98.0326 280.761C97.866 280.451 97.633 280.206 97.3338 280.028C97.0383 279.85 96.6936 279.761 96.2997 279.761C95.8792 279.761 95.5099 279.864 95.1917 280.068C94.8735 280.269 94.6254 280.534 94.4474 280.864C94.2731 281.189 94.1841 281.547 94.1803 281.938V283.148C94.1803 283.655 94.2731 284.091 94.4588 284.455C94.6444 284.814 94.9038 285.091 95.2372 285.284C95.5705 285.473 95.9606 285.568 96.4076 285.568C96.7069 285.568 96.9777 285.527 97.2201 285.443C97.4625 285.356 97.6728 285.229 97.8508 285.062C98.0288 284.896 98.1633 284.689 98.2542 284.443L100.175 284.659C100.053 285.167 99.8224 285.61 99.4815 285.989C99.1444 286.364 98.7125 286.655 98.186 286.864C97.6595 287.068 97.0572 287.17 96.3792 287.17ZM105.807 287.17C104.936 287.17 104.187 286.979 103.562 286.597C102.941 286.214 102.462 285.686 102.125 285.011C101.792 284.333 101.625 283.553 101.625 282.67C101.625 281.784 101.795 281.002 102.136 280.324C102.477 279.642 102.958 279.112 103.579 278.733C104.204 278.35 104.943 278.159 105.795 278.159C106.504 278.159 107.131 278.29 107.676 278.551C108.225 278.809 108.663 279.174 108.989 279.648C109.314 280.117 109.5 280.667 109.545 281.295H107.579C107.5 280.875 107.311 280.525 107.011 280.244C106.716 279.96 106.32 279.818 105.824 279.818C105.403 279.818 105.034 279.932 104.716 280.159C104.398 280.383 104.15 280.705 103.972 281.125C103.797 281.545 103.71 282.049 103.71 282.636C103.71 283.231 103.797 283.742 103.972 284.17C104.146 284.595 104.39 284.922 104.704 285.153C105.023 285.381 105.396 285.494 105.824 285.494C106.127 285.494 106.398 285.437 106.636 285.324C106.879 285.206 107.081 285.038 107.244 284.818C107.407 284.598 107.519 284.331 107.579 284.017H109.545C109.496 284.634 109.314 285.182 109 285.659C108.686 286.133 108.258 286.504 107.716 286.773C107.174 287.038 106.538 287.17 105.807 287.17ZM111.234 287V278.273H113.291V287H111.234ZM112.268 277.034C111.943 277.034 111.662 276.926 111.428 276.71C111.193 276.491 111.075 276.227 111.075 275.92C111.075 275.61 111.193 275.347 111.428 275.131C111.662 274.911 111.943 274.801 112.268 274.801C112.598 274.801 112.878 274.911 113.109 275.131C113.344 275.347 113.462 275.61 113.462 275.92C113.462 276.227 113.344 276.491 113.109 276.71C112.878 276.926 112.598 277.034 112.268 277.034ZM115.406 287V278.273H117.372V279.756H117.474C117.656 279.256 117.957 278.866 118.378 278.585C118.798 278.301 119.3 278.159 119.883 278.159C120.474 278.159 120.972 278.303 121.378 278.591C121.787 278.875 122.075 279.263 122.241 279.756H122.332C122.526 279.271 122.851 278.884 123.31 278.597C123.772 278.305 124.319 278.159 124.952 278.159C125.755 278.159 126.41 278.413 126.918 278.92C127.425 279.428 127.679 280.169 127.679 281.142V287H125.616V281.46C125.616 280.919 125.472 280.523 125.185 280.273C124.897 280.019 124.544 279.892 124.128 279.892C123.632 279.892 123.243 280.047 122.963 280.358C122.687 280.665 122.548 281.064 122.548 281.557V287H120.531V281.375C120.531 280.924 120.395 280.564 120.122 280.295C119.853 280.027 119.501 279.892 119.065 279.892C118.77 279.892 118.501 279.968 118.258 280.119C118.016 280.267 117.823 280.477 117.679 280.75C117.535 281.019 117.463 281.333 117.463 281.693V287H115.406ZM133.629 287.17C132.754 287.17 131.999 286.989 131.362 286.625C130.73 286.258 130.243 285.739 129.902 285.068C129.561 284.394 129.391 283.6 129.391 282.688C129.391 281.79 129.561 281.002 129.902 280.324C130.247 279.642 130.728 279.112 131.345 278.733C131.963 278.35 132.688 278.159 133.521 278.159C134.059 278.159 134.567 278.246 135.044 278.42C135.525 278.591 135.949 278.856 136.317 279.216C136.688 279.576 136.98 280.034 137.192 280.591C137.404 281.144 137.51 281.803 137.51 282.568V283.199H130.356V281.812H135.538C135.535 281.419 135.449 281.068 135.283 280.761C135.116 280.451 134.883 280.206 134.584 280.028C134.288 279.85 133.944 279.761 133.55 279.761C133.129 279.761 132.76 279.864 132.442 280.068C132.124 280.269 131.875 280.534 131.697 280.864C131.523 281.189 131.434 281.547 131.43 281.938V283.148C131.43 283.655 131.523 284.091 131.709 284.455C131.894 284.814 132.154 285.091 132.487 285.284C132.82 285.473 133.211 285.568 133.658 285.568C133.957 285.568 134.228 285.527 134.47 285.443C134.713 285.356 134.923 285.229 135.101 285.062C135.279 284.896 135.413 284.689 135.504 284.443L137.425 284.659C137.303 285.167 137.072 285.61 136.731 285.989C136.394 286.364 135.963 286.655 135.436 286.864C134.91 287.068 134.307 287.17 133.629 287.17ZM141.307 281.886V287H139.25V278.273H141.216V279.756H141.318C141.519 279.267 141.839 278.879 142.278 278.591C142.722 278.303 143.269 278.159 143.92 278.159C144.523 278.159 145.047 278.288 145.494 278.545C145.945 278.803 146.294 279.176 146.54 279.665C146.79 280.153 146.913 280.746 146.909 281.443V287H144.852V281.761C144.852 281.178 144.701 280.722 144.398 280.392C144.098 280.062 143.684 279.898 143.153 279.898C142.794 279.898 142.473 279.977 142.193 280.136C141.917 280.292 141.699 280.517 141.54 280.812C141.384 281.108 141.307 281.466 141.307 281.886ZM153.358 278.273V279.864H148.341V278.273H153.358ZM149.579 276.182H151.636V284.375C151.636 284.652 151.678 284.864 151.761 285.011C151.848 285.155 151.962 285.254 152.102 285.307C152.242 285.36 152.398 285.386 152.568 285.386C152.697 285.386 152.814 285.377 152.92 285.358C153.03 285.339 153.114 285.322 153.17 285.307L153.517 286.915C153.407 286.953 153.25 286.994 153.045 287.04C152.845 287.085 152.598 287.112 152.307 287.119C151.792 287.134 151.328 287.057 150.915 286.886C150.502 286.712 150.174 286.443 149.932 286.08C149.693 285.716 149.576 285.261 149.579 284.716V276.182ZM158.791 287.17C157.939 287.17 157.2 286.983 156.575 286.608C155.95 286.233 155.465 285.708 155.121 285.034C154.78 284.36 154.609 283.572 154.609 282.67C154.609 281.769 154.78 280.979 155.121 280.301C155.465 279.623 155.95 279.097 156.575 278.722C157.2 278.347 157.939 278.159 158.791 278.159C159.643 278.159 160.382 278.347 161.007 278.722C161.632 279.097 162.115 279.623 162.456 280.301C162.801 280.979 162.973 281.769 162.973 282.67C162.973 283.572 162.801 284.36 162.456 285.034C162.115 285.708 161.632 286.233 161.007 286.608C160.382 286.983 159.643 287.17 158.791 287.17ZM158.803 285.523C159.265 285.523 159.651 285.396 159.962 285.142C160.272 284.884 160.503 284.54 160.655 284.108C160.81 283.676 160.888 283.195 160.888 282.665C160.888 282.131 160.81 281.648 160.655 281.216C160.503 280.78 160.272 280.434 159.962 280.176C159.651 279.919 159.265 279.79 158.803 279.79C158.329 279.79 157.935 279.919 157.621 280.176C157.31 280.434 157.077 280.78 156.922 281.216C156.77 281.648 156.695 282.131 156.695 282.665C156.695 283.195 156.77 283.676 156.922 284.108C157.077 284.54 157.31 284.884 157.621 285.142C157.935 285.396 158.329 285.523 158.803 285.523ZM171.926 287.153C171.24 287.153 170.627 286.977 170.085 286.625C169.544 286.273 169.115 285.761 168.801 285.091C168.487 284.42 168.329 283.606 168.329 282.648C168.329 281.678 168.489 280.86 168.807 280.193C169.129 279.523 169.562 279.017 170.108 278.676C170.653 278.331 171.261 278.159 171.932 278.159C172.443 278.159 172.864 278.246 173.193 278.42C173.523 278.591 173.784 278.797 173.977 279.04C174.17 279.278 174.32 279.504 174.426 279.716H174.511V275.364H176.574V287H174.551V285.625H174.426C174.32 285.837 174.167 286.062 173.966 286.301C173.765 286.536 173.5 286.737 173.17 286.903C172.841 287.07 172.426 287.153 171.926 287.153ZM172.5 285.466C172.936 285.466 173.307 285.348 173.614 285.114C173.92 284.875 174.153 284.544 174.312 284.119C174.472 283.695 174.551 283.201 174.551 282.636C174.551 282.072 174.472 281.581 174.312 281.165C174.157 280.748 173.926 280.424 173.619 280.193C173.316 279.962 172.943 279.847 172.5 279.847C172.042 279.847 171.659 279.966 171.352 280.205C171.045 280.443 170.814 280.773 170.659 281.193C170.504 281.614 170.426 282.095 170.426 282.636C170.426 283.182 170.504 283.669 170.659 284.097C170.818 284.521 171.051 284.856 171.358 285.102C171.669 285.345 172.049 285.466 172.5 285.466ZM182.572 287.17C181.72 287.17 180.981 286.983 180.356 286.608C179.731 286.233 179.247 285.708 178.902 285.034C178.561 284.36 178.391 283.572 178.391 282.67C178.391 281.769 178.561 280.979 178.902 280.301C179.247 279.623 179.731 279.097 180.356 278.722C180.981 278.347 181.72 278.159 182.572 278.159C183.425 278.159 184.163 278.347 184.788 278.722C185.413 279.097 185.896 279.623 186.237 280.301C186.582 280.979 186.754 281.769 186.754 282.67C186.754 283.572 186.582 284.36 186.237 285.034C185.896 285.708 185.413 286.233 184.788 286.608C184.163 286.983 183.425 287.17 182.572 287.17ZM182.584 285.523C183.046 285.523 183.432 285.396 183.743 285.142C184.053 284.884 184.285 284.54 184.436 284.108C184.591 283.676 184.669 283.195 184.669 282.665C184.669 282.131 184.591 281.648 184.436 281.216C184.285 280.78 184.053 280.434 183.743 280.176C183.432 279.919 183.046 279.79 182.584 279.79C182.11 279.79 181.716 279.919 181.402 280.176C181.091 280.434 180.858 280.78 180.703 281.216C180.552 281.648 180.476 282.131 180.476 282.665C180.476 283.195 180.552 283.676 180.703 284.108C180.858 284.54 181.091 284.884 181.402 285.142C181.716 285.396 182.11 285.523 182.584 285.523ZM195.398 280.58L193.523 280.784C193.47 280.595 193.377 280.417 193.244 280.25C193.115 280.083 192.941 279.949 192.722 279.847C192.502 279.744 192.233 279.693 191.915 279.693C191.487 279.693 191.127 279.786 190.835 279.972C190.547 280.157 190.405 280.398 190.409 280.693C190.405 280.947 190.498 281.153 190.687 281.312C190.881 281.472 191.199 281.602 191.642 281.705L193.131 282.023C193.956 282.201 194.57 282.483 194.972 282.869C195.377 283.256 195.581 283.761 195.585 284.386C195.581 284.936 195.42 285.42 195.102 285.841C194.788 286.258 194.35 286.583 193.79 286.818C193.229 287.053 192.585 287.17 191.858 287.17C190.79 287.17 189.93 286.947 189.278 286.5C188.627 286.049 188.239 285.422 188.114 284.619L190.119 284.426C190.21 284.82 190.403 285.117 190.699 285.318C190.994 285.519 191.379 285.619 191.852 285.619C192.341 285.619 192.733 285.519 193.028 285.318C193.328 285.117 193.477 284.869 193.477 284.574C193.477 284.324 193.381 284.117 193.187 283.955C192.998 283.792 192.703 283.667 192.301 283.58L190.812 283.267C189.975 283.093 189.356 282.799 188.954 282.386C188.553 281.97 188.354 281.443 188.358 280.807C188.354 280.269 188.5 279.803 188.795 279.409C189.095 279.011 189.509 278.705 190.04 278.489C190.574 278.269 191.189 278.159 191.886 278.159C192.909 278.159 193.714 278.377 194.301 278.812C194.892 279.248 195.258 279.837 195.398 280.58ZM205.608 278.273V279.864H200.591V278.273H205.608ZM201.829 276.182H203.886V284.375C203.886 284.652 203.928 284.864 204.011 285.011C204.098 285.155 204.212 285.254 204.352 285.307C204.492 285.36 204.648 285.386 204.818 285.386C204.947 285.386 205.064 285.377 205.17 285.358C205.28 285.339 205.364 285.322 205.42 285.307L205.767 286.915C205.657 286.953 205.5 286.994 205.295 287.04C205.095 287.085 204.848 287.112 204.557 287.119C204.042 287.134 203.578 287.057 203.165 286.886C202.752 286.712 202.424 286.443 202.182 286.08C201.943 285.716 201.826 285.261 201.829 284.716V276.182ZM207.328 287V278.273H209.385V287H207.328ZM208.362 277.034C208.036 277.034 207.756 276.926 207.521 276.71C207.286 276.491 207.169 276.227 207.169 275.92C207.169 275.61 207.286 275.347 207.521 275.131C207.756 274.911 208.036 274.801 208.362 274.801C208.692 274.801 208.972 274.911 209.203 275.131C209.438 275.347 209.555 275.61 209.555 275.92C209.555 276.227 209.438 276.491 209.203 276.71C208.972 276.926 208.692 277.034 208.362 277.034ZM211.5 287V278.273H213.466V279.756H213.568C213.75 279.256 214.051 278.866 214.472 278.585C214.892 278.301 215.394 278.159 215.977 278.159C216.568 278.159 217.066 278.303 217.472 278.591C217.881 278.875 218.169 279.263 218.335 279.756H218.426C218.619 279.271 218.945 278.884 219.403 278.597C219.865 278.305 220.413 278.159 221.045 278.159C221.848 278.159 222.504 278.413 223.011 278.92C223.519 279.428 223.773 280.169 223.773 281.142V287H221.71V281.46C221.71 280.919 221.566 280.523 221.278 280.273C220.99 280.019 220.638 279.892 220.222 279.892C219.725 279.892 219.337 280.047 219.057 280.358C218.78 280.665 218.642 281.064 218.642 281.557V287H216.625V281.375C216.625 280.924 216.489 280.564 216.216 280.295C215.947 280.027 215.595 279.892 215.159 279.892C214.864 279.892 214.595 279.968 214.352 280.119C214.11 280.267 213.917 280.477 213.773 280.75C213.629 281.019 213.557 281.333 213.557 281.693V287H211.5ZM229.723 287.17C228.848 287.17 228.092 286.989 227.456 286.625C226.823 286.258 226.337 285.739 225.996 285.068C225.655 284.394 225.484 283.6 225.484 282.688C225.484 281.79 225.655 281.002 225.996 280.324C226.34 279.642 226.821 279.112 227.439 278.733C228.056 278.35 228.782 278.159 229.615 278.159C230.153 278.159 230.66 278.246 231.138 278.42C231.619 278.591 232.043 278.856 232.41 279.216C232.782 279.576 233.073 280.034 233.285 280.591C233.498 281.144 233.604 281.803 233.604 282.568V283.199H226.45V281.812H231.632C231.628 281.419 231.543 281.068 231.376 280.761C231.21 280.451 230.977 280.206 230.678 280.028C230.382 279.85 230.037 279.761 229.643 279.761C229.223 279.761 228.854 279.864 228.535 280.068C228.217 280.269 227.969 280.534 227.791 280.864C227.617 281.189 227.528 281.547 227.524 281.938V283.148C227.524 283.655 227.617 284.091 227.803 284.455C227.988 284.814 228.248 285.091 228.581 285.284C228.914 285.473 229.304 285.568 229.751 285.568C230.051 285.568 230.321 285.527 230.564 285.443C230.806 285.356 231.017 285.229 231.195 285.062C231.373 284.896 231.507 284.689 231.598 284.443L233.518 284.659C233.397 285.167 233.166 285.61 232.825 285.989C232.488 286.364 232.056 286.655 231.53 286.864C231.003 287.068 230.401 287.17 229.723 287.17ZM242.241 280.58L240.366 280.784C240.313 280.595 240.221 280.417 240.088 280.25C239.959 280.083 239.785 279.949 239.565 279.847C239.346 279.744 239.077 279.693 238.758 279.693C238.33 279.693 237.971 279.786 237.679 279.972C237.391 280.157 237.249 280.398 237.253 280.693C237.249 280.947 237.342 281.153 237.531 281.312C237.724 281.472 238.043 281.602 238.486 281.705L239.974 282.023C240.8 282.201 241.414 282.483 241.815 282.869C242.221 283.256 242.425 283.761 242.429 284.386C242.425 284.936 242.264 285.42 241.946 285.841C241.632 286.258 241.194 286.583 240.633 286.818C240.073 287.053 239.429 287.17 238.702 287.17C237.633 287.17 236.774 286.947 236.122 286.5C235.471 286.049 235.082 285.422 234.957 284.619L236.963 284.426C237.054 284.82 237.247 285.117 237.543 285.318C237.838 285.519 238.222 285.619 238.696 285.619C239.185 285.619 239.577 285.519 239.872 285.318C240.171 285.117 240.321 284.869 240.321 284.574C240.321 284.324 240.224 284.117 240.031 283.955C239.842 283.792 239.546 283.667 239.145 283.58L237.656 283.267C236.819 283.093 236.2 282.799 235.798 282.386C235.397 281.97 235.198 281.443 235.202 280.807C235.198 280.269 235.344 279.803 235.639 279.409C235.938 279.011 236.353 278.705 236.883 278.489C237.418 278.269 238.033 278.159 238.73 278.159C239.753 278.159 240.558 278.377 241.145 278.812C241.736 279.248 242.101 279.837 242.241 280.58Z" fill="black"/>
<path d="M312.347 293C309.815 295.501 306.927 297 303.347 297C299.766 297 295.878 295.501 293.347 293C290.815 290.499 289.347 287.536 289.347 284C289.347 280.464 290.815 276.501 293.347 274C293.347 274 293.972 277.333 297.347 279C297.347 275.667 298.152 270.333 302.347 267C305.745 270.333 309.704 271.39 312.347 274C313.602 275.237 314.668 277.382 315.347 279C316.025 280.618 316.349 282.249 316.347 284C316.349 285.751 316.025 287.382 315.347 289C314.668 290.618 313.602 291.763 312.347 293V293Z" stroke="#FCFEFF" stroke-width="2" stroke-linecap="round" stroke-linejoin="round"/>
<path d="M298.347 289C298.927 289.581 300.561 289.761 301.347 290C302.132 290.239 302.541 290.159 303.347 290C304.152 289.841 304.711 289.52 305.347 289C305.982 288.48 307.031 287.758 307.347 287C307.663 286.242 307.425 285.818 307.347 285C307.269 284.182 306.8 282.685 306.347 282C305.893 281.315 305.069 281.39 304.347 281C303.624 280.61 303.168 280.004 302.347 280L300.347 285H297.347C297.347 286.28 297.37 288.025 298.347 289Z" stroke="#FCFEFF" stroke-width="2" stroke-linecap="round" stroke-linejoin="round"/>
</g>
<path d="M702.67 403C702.67 440.003 672.734 470 635.805 470C598.877 470 568.94 440.003 568.94 403C568.94 365.997 598.877 336 635.805 336C672.734 336 702.67 365.997 702.67 403ZM588.9 403C588.9 428.957 609.9 450 635.805 450C661.71 450 682.711 428.957 682.711 403C682.711 377.043 661.71 356 635.805 356C609.9 356 588.9 377.043 588.9 403Z" fill="#EBEBEB"/>
<path d="M702.67 403C702.67 440.003 672.734 470 635.805 470C598.877 470 568.94 440.003 568.94 403C568.94 365.997 598.877 336 635.805 336C672.734 336 702.67 365.997 702.67 403ZM588.9 403C588.9 428.957 609.9 450 635.805 450C661.71 450 682.711 428.957 682.711 403C682.711 377.043 661.71 356 635.805 356C609.9 356 588.9 377.043 588.9 403Z" fill="#FFC107"/>
<path d="M612.438 398.818V409H610.285V400.862H610.226L607.894 402.323V400.414L610.414 398.818H612.438ZM614.858 409V407.449L618.482 404.093C618.79 403.795 619.049 403.526 619.258 403.288C619.47 403.049 619.631 402.815 619.74 402.587C619.849 402.355 619.904 402.104 619.904 401.836C619.904 401.538 619.836 401.281 619.7 401.065C619.564 400.847 619.379 400.679 619.143 400.563C618.908 400.444 618.641 400.384 618.343 400.384C618.031 400.384 617.76 400.447 617.528 400.573C617.296 400.699 617.117 400.88 616.991 401.115C616.865 401.35 616.802 401.63 616.802 401.955H614.758C614.758 401.289 614.909 400.711 615.211 400.22C615.512 399.73 615.935 399.35 616.479 399.082C617.022 398.813 617.649 398.679 618.358 398.679C619.087 398.679 619.722 398.808 620.262 399.067C620.806 399.322 621.228 399.677 621.53 400.131C621.831 400.585 621.982 401.105 621.982 401.692C621.982 402.076 621.906 402.456 621.753 402.83C621.604 403.205 621.337 403.621 620.953 404.078C620.569 404.532 620.027 405.077 619.327 405.714L617.841 407.17V407.24H622.116V409H614.858ZM624.934 407.817C624.606 407.817 624.324 407.701 624.089 407.469C623.857 407.237 623.741 406.955 623.741 406.624C623.741 406.299 623.857 406.02 624.089 405.788C624.324 405.556 624.606 405.44 624.934 405.44C625.252 405.44 625.531 405.556 625.769 405.788C626.008 406.02 626.127 406.299 626.127 406.624C626.127 406.842 626.071 407.043 625.958 407.225C625.849 407.404 625.705 407.548 625.526 407.658C625.347 407.764 625.149 407.817 624.934 407.817ZM624.934 402.82C624.606 402.82 624.324 402.704 624.089 402.472C623.857 402.24 623.741 401.959 623.741 401.627C623.741 401.302 623.857 401.026 624.089 400.797C624.324 400.565 624.606 400.449 624.934 400.449C625.252 400.449 625.531 400.565 625.769 400.797C626.008 401.026 626.127 401.302 626.127 401.627C626.127 401.849 626.071 402.051 625.958 402.234C625.849 402.413 625.705 402.555 625.526 402.661C625.347 402.767 625.149 402.82 624.934 402.82ZM631.838 409.224C630.983 409.22 630.247 409.01 629.631 408.592C629.018 408.175 628.545 407.57 628.214 406.778C627.886 405.986 627.723 405.033 627.727 403.919C627.727 402.809 627.891 401.862 628.219 401.08C628.55 400.298 629.023 399.703 629.636 399.295C630.252 398.884 630.986 398.679 631.838 398.679C632.69 398.679 633.423 398.884 634.036 399.295C634.652 399.706 635.126 400.303 635.458 401.085C635.789 401.864 635.953 402.809 635.95 403.919C635.95 405.036 635.784 405.991 635.453 406.783C635.125 407.575 634.654 408.18 634.041 408.597C633.428 409.015 632.693 409.224 631.838 409.224ZM631.838 407.439C632.422 407.439 632.887 407.146 633.235 406.559C633.583 405.972 633.756 405.092 633.752 403.919C633.752 403.147 633.673 402.504 633.514 401.99C633.358 401.476 633.136 401.09 632.848 400.832C632.562 400.573 632.226 400.444 631.838 400.444C631.258 400.444 630.794 400.734 630.446 401.314C630.098 401.894 629.923 402.762 629.919 403.919C629.919 404.701 629.997 405.354 630.153 405.878C630.312 406.398 630.536 406.789 630.824 407.051C631.112 407.31 631.451 407.439 631.838 407.439ZM641.477 409.224C640.622 409.22 639.886 409.01 639.27 408.592C638.656 408.175 638.184 407.57 637.853 406.778C637.525 405.986 637.362 405.033 637.365 403.919C637.365 402.809 637.53 401.862 637.858 401.08C638.189 400.298 638.661 399.703 639.275 399.295C639.891 398.884 640.625 398.679 641.477 398.679C642.329 398.679 643.061 398.884 643.674 399.295C644.291 399.706 644.765 400.303 645.096 401.085C645.428 401.864 645.592 402.809 645.588 403.919C645.588 405.036 645.423 405.991 645.091 406.783C644.763 407.575 644.293 408.18 643.679 408.597C643.066 409.015 642.332 409.224 641.477 409.224ZM641.477 407.439C642.06 407.439 642.526 407.146 642.874 406.559C643.222 405.972 643.394 405.092 643.391 403.919C643.391 403.147 643.311 402.504 643.152 401.99C642.997 401.476 642.775 401.09 642.486 400.832C642.201 400.573 641.865 400.444 641.477 400.444C640.897 400.444 640.433 400.734 640.085 401.314C639.737 401.894 639.561 402.762 639.558 403.919C639.558 404.701 639.636 405.354 639.792 405.878C639.951 406.398 640.174 406.789 640.463 407.051C640.751 407.31 641.089 407.439 641.477 407.439ZM650.423 409V398.818H654.44C655.213 398.818 655.871 398.966 656.414 399.261C656.958 399.552 657.372 399.958 657.657 400.479C657.945 400.996 658.09 401.592 658.09 402.268C658.09 402.945 657.944 403.541 657.652 404.058C657.36 404.575 656.938 404.978 656.384 405.266C655.834 405.555 655.168 405.699 654.386 405.699H651.825V403.974H654.038C654.452 403.974 654.793 403.902 655.062 403.76C655.334 403.614 655.536 403.414 655.668 403.158C655.804 402.9 655.872 402.603 655.872 402.268C655.872 401.93 655.804 401.635 655.668 401.384C655.536 401.128 655.334 400.931 655.062 400.792C654.79 400.649 654.445 400.578 654.028 400.578H652.576V409H650.423ZM659.488 398.818H662.143L664.947 405.659H665.066L667.87 398.818H670.525V409H668.437V402.373H668.352L665.717 408.95H664.295L661.66 402.348H661.576V409H659.488V398.818Z" fill="white"/>
<g filter="url(#filter2_d_2_224)">
<rect x="735.604" y="371" width="261.473" height="65" rx="10" fill="#FAFCFF"/>
<path d="M734.606 426V381C734.606 375.477 739.083 371 744.606 371H794.485V436H744.606C739.083 436 734.606 431.523 734.606 426Z" fill="#7E57C2"/>
<path d="M819.083 408H816.833L820.93 396.364H823.532L827.634 408H825.384L822.276 398.75H822.185L819.083 408ZM819.157 403.438H825.293V405.131H819.157V403.438ZM831.133 396.364V408H829.076V396.364H831.133ZM833.248 408V399.273H835.214V400.756H835.316C835.498 400.256 835.799 399.866 836.219 399.585C836.64 399.301 837.142 399.159 837.725 399.159C838.316 399.159 838.814 399.303 839.219 399.591C839.629 399.875 839.916 400.263 840.083 400.756H840.174C840.367 400.271 840.693 399.884 841.151 399.597C841.613 399.305 842.161 399.159 842.793 399.159C843.596 399.159 844.252 399.413 844.759 399.92C845.267 400.428 845.521 401.169 845.521 402.142V408H843.458V402.46C843.458 401.919 843.314 401.523 843.026 401.273C842.738 401.019 842.386 400.892 841.969 400.892C841.473 400.892 841.085 401.047 840.805 401.358C840.528 401.665 840.39 402.064 840.39 402.557V408H838.373V402.375C838.373 401.924 838.236 401.564 837.964 401.295C837.695 401.027 837.343 400.892 836.907 400.892C836.611 400.892 836.343 400.968 836.1 401.119C835.858 401.267 835.664 401.477 835.521 401.75C835.377 402.019 835.305 402.333 835.305 402.693V408H833.248ZM851.414 408.17C850.562 408.17 849.823 407.983 849.198 407.608C848.573 407.233 848.088 406.708 847.744 406.034C847.403 405.36 847.232 404.572 847.232 403.67C847.232 402.769 847.403 401.979 847.744 401.301C848.088 400.623 848.573 400.097 849.198 399.722C849.823 399.347 850.562 399.159 851.414 399.159C852.266 399.159 853.005 399.347 853.63 399.722C854.255 400.097 854.738 400.623 855.079 401.301C855.423 401.979 855.596 402.769 855.596 403.67C855.596 404.572 855.423 405.36 855.079 406.034C854.738 406.708 854.255 407.233 853.63 407.608C853.005 407.983 852.266 408.17 851.414 408.17ZM851.425 406.523C851.888 406.523 852.274 406.396 852.584 406.142C852.895 405.884 853.126 405.54 853.278 405.108C853.433 404.676 853.511 404.195 853.511 403.665C853.511 403.131 853.433 402.648 853.278 402.216C853.126 401.78 852.895 401.434 852.584 401.176C852.274 400.919 851.888 400.79 851.425 400.79C850.952 400.79 850.558 400.919 850.244 401.176C849.933 401.434 849.7 401.78 849.545 402.216C849.393 402.648 849.317 403.131 849.317 403.665C849.317 404.195 849.393 404.676 849.545 405.108C849.7 405.54 849.933 405.884 850.244 406.142C850.558 406.396 850.952 406.523 851.425 406.523ZM861.148 408.17C860.277 408.17 859.529 407.979 858.904 407.597C858.283 407.214 857.804 406.686 857.467 406.011C857.133 405.333 856.967 404.553 856.967 403.67C856.967 402.784 857.137 402.002 857.478 401.324C857.819 400.642 858.3 400.112 858.921 399.733C859.546 399.35 860.285 399.159 861.137 399.159C861.845 399.159 862.472 399.29 863.018 399.551C863.567 399.809 864.004 400.174 864.33 400.648C864.656 401.117 864.842 401.667 864.887 402.295H862.921C862.842 401.875 862.652 401.525 862.353 401.244C862.057 400.96 861.662 400.818 861.165 400.818C860.745 400.818 860.376 400.932 860.057 401.159C859.739 401.383 859.491 401.705 859.313 402.125C859.139 402.545 859.052 403.049 859.052 403.636C859.052 404.231 859.139 404.742 859.313 405.17C859.487 405.595 859.732 405.922 860.046 406.153C860.364 406.381 860.737 406.494 861.165 406.494C861.468 406.494 861.739 406.437 861.978 406.324C862.22 406.206 862.423 406.038 862.586 405.818C862.749 405.598 862.861 405.331 862.921 405.017H864.887C864.838 405.634 864.656 406.182 864.342 406.659C864.027 407.133 863.599 407.504 863.057 407.773C862.516 408.038 861.879 408.17 861.148 408.17ZM860.557 407.955H861.671L861.58 408.438C861.936 408.491 862.237 408.627 862.484 408.847C862.734 409.07 862.859 409.39 862.859 409.807C862.862 410.345 862.622 410.777 862.137 411.102C861.652 411.428 860.961 411.591 860.063 411.591L860.04 410.58C860.476 410.58 860.823 410.521 861.08 410.403C861.338 410.29 861.468 410.108 861.472 409.858C861.48 409.616 861.389 409.438 861.2 409.324C861.014 409.214 860.718 409.138 860.313 409.097L860.557 407.955ZM870.383 408.17C869.53 408.17 868.792 407.983 868.167 407.608C867.542 407.233 867.057 406.708 866.712 406.034C866.371 405.36 866.201 404.572 866.201 403.67C866.201 402.769 866.371 401.979 866.712 401.301C867.057 400.623 867.542 400.097 868.167 399.722C868.792 399.347 869.53 399.159 870.383 399.159C871.235 399.159 871.974 399.347 872.599 399.722C873.224 400.097 873.707 400.623 874.048 401.301C874.392 401.979 874.565 402.769 874.565 403.67C874.565 404.572 874.392 405.36 874.048 406.034C873.707 406.708 873.224 407.233 872.599 407.608C871.974 407.983 871.235 408.17 870.383 408.17ZM870.394 406.523C870.856 406.523 871.243 406.396 871.553 406.142C871.864 405.884 872.095 405.54 872.246 405.108C872.402 404.676 872.479 404.195 872.479 403.665C872.479 403.131 872.402 402.648 872.246 402.216C872.095 401.78 871.864 401.434 871.553 401.176C871.243 400.919 870.856 400.79 870.394 400.79C869.921 400.79 869.527 400.919 869.212 401.176C868.902 401.434 868.669 401.78 868.513 402.216C868.362 402.648 868.286 403.131 868.286 403.665C868.286 404.195 868.362 404.676 868.513 405.108C868.669 405.54 868.902 405.884 869.212 406.142C869.527 406.396 869.921 406.523 870.394 406.523Z" fill="black"/>
<path d="M769.536 402L764.546 398C764.285 397.839 763.86 398.014 763.548 398C763.235 397.986 762.826 397.863 762.55 398C762.274 398.137 761.712 398.752 761.552 399C761.391 399.248 761.551 399.711 761.552 400V406C761.552 406.289 761.391 406.752 761.552 407C761.712 407.248 762.274 407.864 762.55 408C762.826 408.136 763.235 408.014 763.548 408C763.86 407.986 764.285 408.16 764.546 408L769.536 404C769.772 403.854 770.399 404.232 770.534 404C770.668 403.768 770.534 403.263 770.534 403C770.534 402.737 770.668 402.232 770.534 402C770.399 401.768 769.772 402.146 769.536 402V402Z" stroke="#FCFEFF" stroke-width="2" stroke-linecap="round" stroke-linejoin="round"/>
<path d="M779.515 403C779.515 404.97 779.27 407.18 778.517 409C777.765 410.82 776.914 412.607 775.524 414C774.133 415.393 772.35 416.246 770.534 417C768.717 417.754 766.512 418 764.546 418C762.58 418 760.374 417.754 758.558 417C756.741 416.246 754.958 415.393 753.568 414C752.178 412.607 751.326 410.82 750.574 409C749.822 407.18 749.576 404.97 749.576 403C749.576 399.022 750.76 394.813 753.568 392C756.375 389.187 760.575 388 764.546 388C768.516 388 772.716 389.187 775.524 392C778.331 394.813 779.515 399.022 779.515 403Z" stroke="#FCFEFF" stroke-width="2" stroke-linecap="round" stroke-linejoin="round"/>
</g>
<path d="M770.534 412H778.517L776.521 410C776.204 409.685 775.695 409.411 775.524 409C775.352 408.589 775.523 408.445 775.524 408V402C775.524 399.932 774.734 398.689 773.528 397C772.321 395.311 770.508 393.69 768.538 393V392C768.538 391.116 768.171 390.625 767.54 390C766.908 389.375 766.437 389 765.544 389C764.65 389 763.181 389.375 762.55 390C761.918 390.625 761.552 391.116 761.552 392V393C757.628 394.373 754.566 397.647 754.566 402V408C754.566 408.897 754.209 409.365 753.568 410L751.572 412H759.556M770.534 412V414C770.534 415.326 769.485 417.062 768.538 418C767.59 418.938 766.884 419 765.544 419C764.204 419 762.499 418.938 761.552 418C760.604 417.062 759.556 415.326 759.556 414V412M770.534 412H759.556" stroke="#FCFEFF" stroke-width="2" stroke-linecap="round" stroke-linejoin="round"/>
<path d="M499 533C499 570.003 469.421 600 432.934 600C396.447 600 366.869 570.003 366.869 533C366.869 495.997 396.447 466 432.934 466C469.421 466 499 495.997 499 533ZM386.59 533C386.59 558.957 407.339 580 432.934 580C458.53 580 479.279 558.957 479.279 533C479.279 507.043 458.53 486 432.934 486C407.339 486 386.59 507.043 386.59 533Z" fill="#EBEBEB"/>
<path d="M432.934 476C432.934 470.477 437.437 465.922 442.895 466.766C450.996 468.019 458.826 470.794 465.973 474.98C473.212 479.219 479.566 484.798 484.721 491.398C488.056 495.667 486.395 501.713 481.719 504.449V504.449C476.962 507.233 470.914 505.499 467.236 501.394C464.027 497.812 460.278 494.739 456.111 492.299C451.965 489.871 447.492 488.119 442.855 487.089C437.463 485.891 432.934 481.522 432.934 476V476Z" fill="#FFC107"/>
<path d="M421.748 528.818V539H419.595V530.862H419.535L417.204 532.323V530.414L419.724 528.818H421.748ZM424.014 537.21V535.515L428.264 528.818H429.726V531.165H428.861L426.181 535.406V535.485H432.222V537.21H424.014ZM428.901 539V536.693L428.94 535.942V528.818H430.959V539H428.901ZM434.914 537.817C434.586 537.817 434.304 537.701 434.069 537.469C433.837 537.237 433.721 536.955 433.721 536.624C433.721 536.299 433.837 536.02 434.069 535.788C434.304 535.556 434.586 535.44 434.914 535.44C435.232 535.44 435.51 535.556 435.749 535.788C435.988 536.02 436.107 536.299 436.107 536.624C436.107 536.842 436.051 537.043 435.938 537.225C435.829 537.404 435.684 537.548 435.505 537.658C435.326 537.764 435.129 537.817 434.914 537.817ZM434.914 532.82C434.586 532.82 434.304 532.704 434.069 532.472C433.837 532.24 433.721 531.959 433.721 531.627C433.721 531.302 433.837 531.026 434.069 530.797C434.304 530.565 434.586 530.449 434.914 530.449C435.232 530.449 435.51 530.565 435.749 530.797C435.988 531.026 436.107 531.302 436.107 531.627C436.107 531.849 436.051 532.051 435.938 532.234C435.829 532.413 435.684 532.555 435.505 532.661C435.326 532.767 435.129 532.82 434.914 532.82ZM441.818 539.224C440.963 539.22 440.227 539.01 439.611 538.592C438.998 538.175 438.525 537.57 438.194 536.778C437.866 535.986 437.703 535.033 437.707 533.919C437.707 532.809 437.871 531.862 438.199 531.08C438.53 530.298 439.003 529.703 439.616 529.295C440.232 528.884 440.966 528.679 441.818 528.679C442.67 528.679 443.402 528.884 444.016 529.295C444.632 529.706 445.106 530.303 445.437 531.085C445.769 531.864 445.933 532.809 445.93 533.919C445.93 535.036 445.764 535.991 445.432 536.783C445.104 537.575 444.634 538.18 444.021 538.597C443.407 539.015 442.673 539.224 441.818 539.224ZM441.818 537.439C442.401 537.439 442.867 537.146 443.215 536.559C443.563 535.972 443.736 535.092 443.732 533.919C443.732 533.147 443.653 532.504 443.494 531.99C443.338 531.476 443.116 531.09 442.827 530.832C442.542 530.573 442.206 530.444 441.818 530.444C441.238 530.444 440.774 530.734 440.426 531.314C440.078 531.894 439.902 532.762 439.899 533.919C439.899 534.701 439.977 535.354 440.133 535.878C440.292 536.398 440.516 536.789 440.804 537.051C441.092 537.31 441.43 537.439 441.818 537.439ZM451.457 539.224C450.602 539.22 449.866 539.01 449.249 538.592C448.636 538.175 448.164 537.57 447.833 536.778C447.504 535.986 447.342 535.033 447.345 533.919C447.345 532.809 447.509 531.862 447.837 531.08C448.169 530.298 448.641 529.703 449.254 529.295C449.871 528.884 450.605 528.679 451.457 528.679C452.309 528.679 453.041 528.884 453.654 529.295C454.271 529.706 454.745 530.303 455.076 531.085C455.408 531.864 455.572 532.809 455.568 533.919C455.568 535.036 455.403 535.991 455.071 536.783C454.743 537.575 454.272 538.18 453.659 538.597C453.046 539.015 452.312 539.224 451.457 539.224ZM451.457 537.439C452.04 537.439 452.506 537.146 452.854 536.559C453.202 535.972 453.374 535.092 453.371 533.919C453.371 533.147 453.291 532.504 453.132 531.99C452.976 531.476 452.754 531.09 452.466 530.832C452.181 530.573 451.845 530.444 451.457 530.444C450.877 530.444 450.413 530.734 450.065 531.314C449.717 531.894 449.541 532.762 449.538 533.919C449.538 534.701 449.616 535.354 449.771 535.878C449.931 536.398 450.154 536.789 450.443 537.051C450.731 537.31 451.069 537.439 451.457 537.439ZM426.333 556V545.818H430.35C431.122 545.818 431.78 545.966 432.324 546.261C432.867 546.552 433.282 546.958 433.567 547.479C433.855 547.996 433.999 548.592 433.999 549.268C433.999 549.945 433.853 550.541 433.562 551.058C433.27 551.575 432.847 551.978 432.294 552.266C431.744 552.555 431.077 552.699 430.295 552.699H427.735V550.974H429.947C430.362 550.974 430.703 550.902 430.971 550.76C431.243 550.614 431.445 550.414 431.578 550.158C431.714 549.9 431.782 549.603 431.782 549.268C431.782 548.93 431.714 548.635 431.578 548.384C431.445 548.128 431.243 547.931 430.971 547.792C430.7 547.649 430.355 547.578 429.937 547.578H428.486V556H426.333ZM435.397 545.818H438.052L440.856 552.659H440.975L443.779 545.818H446.434V556H444.346V549.373H444.262L441.627 555.95H440.205L437.57 549.348H437.485V556H435.397V545.818Z" fill="white"/>
<g filter="url(#filter3_d_2_224)">
<rect width="322.44" height="64" rx="10" transform="matrix(-1 0 0 1 327.426 501)" fill="white"/>
<path d="M328.412 555V511C328.412 505.477 323.935 501 318.412 501H269.249V565H318.412C323.935 565 328.412 560.523 328.412 555Z" fill="#7E57C2" fill-opacity="0.96"/>
<path d="M67.2787 530.29H65.1537C65.0931 529.941 64.9814 529.633 64.8185 529.364C64.6556 529.091 64.4529 528.86 64.2105 528.67C63.9681 528.481 63.6916 528.339 63.381 528.244C63.0742 528.146 62.7427 528.097 62.3867 528.097C61.7541 528.097 61.1935 528.256 60.7048 528.574C60.2162 528.888 59.8336 529.35 59.5571 529.96C59.2806 530.566 59.1423 531.307 59.1423 532.182C59.1423 533.072 59.2806 533.822 59.5571 534.432C59.8374 535.038 60.22 535.496 60.7048 535.807C61.1935 536.114 61.7522 536.267 62.381 536.267C62.7295 536.267 63.0552 536.222 63.3582 536.131C63.6651 536.036 63.9397 535.898 64.1821 535.716C64.4283 535.534 64.6348 535.311 64.8014 535.045C64.9719 534.78 65.0893 534.477 65.1537 534.136L67.2787 534.148C67.1992 534.701 67.0268 535.22 66.7617 535.705C66.5003 536.189 66.1575 536.617 65.7332 536.989C65.309 537.356 64.8128 537.644 64.2446 537.852C63.6764 538.057 63.0457 538.159 62.3526 538.159C61.3298 538.159 60.417 537.922 59.6139 537.449C58.8109 536.975 58.1783 536.292 57.7162 535.398C57.2541 534.504 57.023 533.432 57.023 532.182C57.023 530.928 57.256 529.856 57.7219 528.966C58.1878 528.072 58.8223 527.388 59.6253 526.915C60.4283 526.441 61.3374 526.205 62.3526 526.205C63.0003 526.205 63.6026 526.295 64.1594 526.477C64.7162 526.659 65.2124 526.926 65.648 527.278C66.0836 527.627 66.4416 528.055 66.7219 528.562C67.006 529.066 67.1916 529.642 67.2787 530.29ZM72.925 538.17C72.0727 538.17 71.3341 537.983 70.7091 537.608C70.0841 537.233 69.5992 536.708 69.2546 536.034C68.9136 535.36 68.7432 534.572 68.7432 533.67C68.7432 532.769 68.9136 531.979 69.2546 531.301C69.5992 530.623 70.0841 530.097 70.7091 529.722C71.3341 529.347 72.0727 529.159 72.925 529.159C73.7773 529.159 74.5159 529.347 75.1409 529.722C75.7659 530.097 76.2489 530.623 76.5898 531.301C76.9345 531.979 77.1068 532.769 77.1068 533.67C77.1068 534.572 76.9345 535.36 76.5898 536.034C76.2489 536.708 75.7659 537.233 75.1409 537.608C74.5159 537.983 73.7773 538.17 72.925 538.17ZM72.9364 536.523C73.3985 536.523 73.7849 536.396 74.0955 536.142C74.4061 535.884 74.6371 535.54 74.7886 535.108C74.9439 534.676 75.0216 534.195 75.0216 533.665C75.0216 533.131 74.9439 532.648 74.7886 532.216C74.6371 531.78 74.4061 531.434 74.0955 531.176C73.7849 530.919 73.3985 530.79 72.9364 530.79C72.4629 530.79 72.0689 530.919 71.7546 531.176C71.4439 531.434 71.211 531.78 71.0557 532.216C70.9042 532.648 70.8284 533.131 70.8284 533.665C70.8284 534.195 70.9042 534.676 71.0557 535.108C71.211 535.54 71.4439 535.884 71.7546 536.142C72.0689 536.396 72.4629 536.523 72.9364 536.523ZM78.8526 538V529.273H80.8185V530.756H80.9207C81.1026 530.256 81.4037 529.866 81.8242 529.585C82.2446 529.301 82.7465 529.159 83.3298 529.159C83.9207 529.159 84.4189 529.303 84.8242 529.591C85.2332 529.875 85.5211 530.263 85.6878 530.756H85.7787C85.9719 530.271 86.2976 529.884 86.756 529.597C87.2181 529.305 87.7654 529.159 88.398 529.159C89.201 529.159 89.8564 529.413 90.3639 529.92C90.8715 530.428 91.1253 531.169 91.1253 532.142V538H89.0628V532.46C89.0628 531.919 88.9189 531.523 88.631 531.273C88.3431 531.019 87.9908 530.892 87.5742 530.892C87.0779 530.892 86.6897 531.047 86.4094 531.358C86.1329 531.665 85.9946 532.064 85.9946 532.557V538H83.9776V532.375C83.9776 531.924 83.8412 531.564 83.5685 531.295C83.2995 531.027 82.9473 530.892 82.5117 530.892C82.2162 530.892 81.9473 530.968 81.7048 531.119C81.4624 531.267 81.2692 531.477 81.1253 531.75C80.9814 532.019 80.9094 532.333 80.9094 532.693V538H78.8526ZM93.2119 541.273V529.273H95.2347V530.716H95.354C95.46 530.504 95.6097 530.278 95.8028 530.04C95.996 529.797 96.2574 529.591 96.5869 529.42C96.9165 529.246 97.3369 529.159 97.8483 529.159C98.5225 529.159 99.1305 529.331 99.6722 529.676C100.218 530.017 100.649 530.523 100.968 531.193C101.29 531.86 101.451 532.678 101.451 533.648C101.451 534.606 101.293 535.42 100.979 536.091C100.665 536.761 100.237 537.273 99.6949 537.625C99.1532 537.977 98.5396 538.153 97.854 538.153C97.354 538.153 96.9392 538.07 96.6097 537.903C96.2801 537.737 96.015 537.536 95.8142 537.301C95.6172 537.062 95.4638 536.837 95.354 536.625H95.2688V541.273H93.2119ZM95.229 533.636C95.229 534.201 95.3085 534.695 95.4676 535.119C95.6305 535.544 95.8635 535.875 96.1665 536.114C96.4733 536.348 96.8445 536.466 97.2801 536.466C97.7347 536.466 98.1153 536.345 98.4222 536.102C98.729 535.856 98.96 535.521 99.1153 535.097C99.2744 534.669 99.354 534.182 99.354 533.636C99.354 533.095 99.2763 532.614 99.121 532.193C98.9657 531.773 98.7347 531.443 98.4278 531.205C98.121 530.966 97.7385 530.847 97.2801 530.847C96.8407 530.847 96.4676 530.962 96.1608 531.193C95.854 531.424 95.621 531.748 95.4619 532.165C95.3066 532.581 95.229 533.072 95.229 533.636ZM107.076 538.17C106.201 538.17 105.445 537.989 104.809 537.625C104.176 537.258 103.689 536.739 103.348 536.068C103.007 535.394 102.837 534.6 102.837 533.688C102.837 532.79 103.007 532.002 103.348 531.324C103.693 530.642 104.174 530.112 104.791 529.733C105.409 529.35 106.134 529.159 106.968 529.159C107.505 529.159 108.013 529.246 108.49 529.42C108.971 529.591 109.396 529.856 109.763 530.216C110.134 530.576 110.426 531.034 110.638 531.591C110.85 532.144 110.956 532.803 110.956 533.568V534.199H103.803V532.812H108.985C108.981 532.419 108.896 532.068 108.729 531.761C108.562 531.451 108.329 531.206 108.03 531.028C107.735 530.85 107.39 530.761 106.996 530.761C106.576 530.761 106.206 530.864 105.888 531.068C105.57 531.269 105.322 531.534 105.144 531.864C104.97 532.189 104.88 532.547 104.877 532.938V534.148C104.877 534.655 104.97 535.091 105.155 535.455C105.341 535.814 105.6 536.091 105.934 536.284C106.267 536.473 106.657 536.568 107.104 536.568C107.403 536.568 107.674 536.527 107.916 536.443C108.159 536.356 108.369 536.229 108.547 536.062C108.725 535.896 108.86 535.689 108.951 535.443L110.871 535.659C110.75 536.167 110.519 536.61 110.178 536.989C109.841 537.364 109.409 537.655 108.882 537.864C108.356 538.068 107.754 538.17 107.076 538.17ZM117.054 529.273V530.864H112.037V529.273H117.054ZM113.276 527.182H115.333V535.375C115.333 535.652 115.374 535.864 115.458 536.011C115.545 536.155 115.658 536.254 115.799 536.307C115.939 536.36 116.094 536.386 116.264 536.386C116.393 536.386 116.511 536.377 116.617 536.358C116.727 536.339 116.81 536.322 116.867 536.307L117.213 537.915C117.104 537.953 116.946 537.994 116.742 538.04C116.541 538.085 116.295 538.112 116.003 538.119C115.488 538.134 115.024 538.057 114.611 537.886C114.198 537.712 113.871 537.443 113.628 537.08C113.389 536.716 113.272 536.261 113.276 535.716V527.182ZM118.774 538V529.273H120.831V538H118.774ZM119.809 528.034C119.483 528.034 119.202 527.926 118.968 527.71C118.733 527.491 118.615 527.227 118.615 526.92C118.615 526.61 118.733 526.347 118.968 526.131C119.202 525.911 119.483 525.801 119.809 525.801C120.138 525.801 120.418 525.911 120.649 526.131C120.884 526.347 121.002 526.61 121.002 526.92C121.002 527.227 120.884 527.491 120.649 527.71C120.418 527.926 120.138 528.034 119.809 528.034ZM126.753 538.17C125.882 538.17 125.134 537.979 124.509 537.597C123.888 537.214 123.408 536.686 123.071 536.011C122.738 535.333 122.571 534.553 122.571 533.67C122.571 532.784 122.742 532.002 123.083 531.324C123.424 530.642 123.905 530.112 124.526 529.733C125.151 529.35 125.889 529.159 126.742 529.159C127.45 529.159 128.077 529.29 128.622 529.551C129.172 529.809 129.609 530.174 129.935 530.648C130.261 531.117 130.446 531.667 130.492 532.295H128.526C128.446 531.875 128.257 531.525 127.958 531.244C127.662 530.96 127.266 530.818 126.77 530.818C126.35 530.818 125.98 530.932 125.662 531.159C125.344 531.383 125.096 531.705 124.918 532.125C124.744 532.545 124.657 533.049 124.657 533.636C124.657 534.231 124.744 534.742 124.918 535.17C125.092 535.595 125.336 535.922 125.651 536.153C125.969 536.381 126.342 536.494 126.77 536.494C127.073 536.494 127.344 536.437 127.583 536.324C127.825 536.206 128.028 536.038 128.191 535.818C128.354 535.598 128.465 535.331 128.526 535.017H130.492C130.443 535.634 130.261 536.182 129.946 536.659C129.632 537.133 129.204 537.504 128.662 537.773C128.121 538.038 127.484 538.17 126.753 538.17ZM126.162 537.955H127.276L127.185 538.438C127.541 538.491 127.842 538.627 128.088 538.847C128.338 539.07 128.463 539.39 128.463 539.807C128.467 540.345 128.227 540.777 127.742 541.102C127.257 541.428 126.566 541.591 125.668 541.591L125.645 540.58C126.081 540.58 126.427 540.521 126.685 540.403C126.943 540.29 127.073 540.108 127.077 539.858C127.085 539.616 126.994 539.438 126.804 539.324C126.619 539.214 126.323 539.138 125.918 539.097L126.162 537.955ZM134.692 538.176C134.139 538.176 133.641 538.078 133.198 537.881C132.758 537.68 132.41 537.384 132.152 536.994C131.898 536.604 131.772 536.123 131.772 535.551C131.772 535.059 131.863 534.652 132.044 534.33C132.226 534.008 132.474 533.75 132.789 533.557C133.103 533.364 133.457 533.218 133.851 533.119C134.249 533.017 134.66 532.943 135.084 532.898C135.595 532.845 136.01 532.797 136.328 532.756C136.647 532.71 136.878 532.642 137.022 532.551C137.169 532.456 137.243 532.311 137.243 532.114V532.08C137.243 531.652 137.116 531.32 136.863 531.085C136.609 530.85 136.243 530.733 135.766 530.733C135.262 530.733 134.863 530.843 134.567 531.062C134.275 531.282 134.078 531.542 133.976 531.841L132.056 531.568C132.207 531.038 132.457 530.595 132.806 530.239C133.154 529.879 133.58 529.61 134.084 529.432C134.588 529.25 135.145 529.159 135.755 529.159C136.175 529.159 136.594 529.208 137.01 529.307C137.427 529.405 137.808 529.568 138.152 529.795C138.497 530.019 138.773 530.324 138.982 530.71C139.194 531.097 139.3 531.58 139.3 532.159V538H137.323V536.801H137.255C137.13 537.044 136.953 537.271 136.726 537.483C136.503 537.691 136.22 537.86 135.88 537.989C135.542 538.114 135.147 538.176 134.692 538.176ZM135.226 536.665C135.639 536.665 135.997 536.583 136.3 536.42C136.603 536.254 136.836 536.034 136.999 535.761C137.166 535.489 137.249 535.191 137.249 534.869V533.841C137.184 533.894 137.075 533.943 136.919 533.989C136.768 534.034 136.597 534.074 136.408 534.108C136.219 534.142 136.031 534.172 135.845 534.199C135.66 534.225 135.499 534.248 135.363 534.267C135.056 534.309 134.781 534.377 134.539 534.472C134.296 534.566 134.105 534.699 133.965 534.869C133.825 535.036 133.755 535.252 133.755 535.517C133.755 535.896 133.893 536.182 134.169 536.375C134.446 536.568 134.798 536.665 135.226 536.665ZM134.175 528.21L132.931 528.182C132.931 527.508 133.105 526.979 133.453 526.597C133.802 526.214 134.232 526.023 134.743 526.023C134.989 526.023 135.203 526.064 135.385 526.148C135.567 526.227 135.734 526.32 135.885 526.426C136.041 526.532 136.192 526.627 136.34 526.71C136.488 526.79 136.65 526.83 136.828 526.83C137.044 526.83 137.215 526.748 137.34 526.585C137.469 526.422 137.535 526.214 137.539 525.96L138.76 526.011C138.756 526.689 138.58 527.216 138.232 527.591C137.883 527.962 137.455 528.15 136.948 528.153C136.675 528.157 136.446 528.117 136.26 528.034C136.075 527.951 135.912 527.856 135.772 527.75C135.635 527.644 135.497 527.551 135.357 527.472C135.217 527.388 135.052 527.347 134.863 527.347C134.662 527.347 134.497 527.426 134.368 527.585C134.239 527.744 134.175 527.953 134.175 528.21ZM145.175 538.17C144.323 538.17 143.584 537.983 142.959 537.608C142.334 537.233 141.849 536.708 141.505 536.034C141.164 535.36 140.993 534.572 140.993 533.67C140.993 532.769 141.164 531.979 141.505 531.301C141.849 530.623 142.334 530.097 142.959 529.722C143.584 529.347 144.323 529.159 145.175 529.159C146.027 529.159 146.766 529.347 147.391 529.722C148.016 530.097 148.499 530.623 148.84 531.301C149.184 531.979 149.357 532.769 149.357 533.67C149.357 534.572 149.184 535.36 148.84 536.034C148.499 536.708 148.016 537.233 147.391 537.608C146.766 537.983 146.027 538.17 145.175 538.17ZM145.186 536.523C145.648 536.523 146.035 536.396 146.345 536.142C146.656 535.884 146.887 535.54 147.039 535.108C147.194 534.676 147.272 534.195 147.272 533.665C147.272 533.131 147.194 532.648 147.039 532.216C146.887 531.78 146.656 531.434 146.345 531.176C146.035 530.919 145.648 530.79 145.186 530.79C144.713 530.79 144.319 530.919 144.005 531.176C143.694 531.434 143.461 531.78 143.306 532.216C143.154 532.648 143.078 533.131 143.078 533.665C143.078 534.195 143.154 534.676 143.306 535.108C143.461 535.54 143.694 535.884 144.005 536.142C144.319 536.396 144.713 536.523 145.186 536.523ZM158.935 538.17C158.06 538.17 157.304 537.989 156.668 537.625C156.035 537.258 155.549 536.739 155.208 536.068C154.867 535.394 154.696 534.6 154.696 533.688C154.696 532.79 154.867 532.002 155.208 531.324C155.552 530.642 156.033 530.112 156.651 529.733C157.268 529.35 157.994 529.159 158.827 529.159C159.365 529.159 159.872 529.246 160.35 529.42C160.831 529.591 161.255 529.856 161.622 530.216C161.994 530.576 162.285 531.034 162.497 531.591C162.71 532.144 162.816 532.803 162.816 533.568V534.199H155.662V532.812H160.844C160.84 532.419 160.755 532.068 160.588 531.761C160.422 531.451 160.189 531.206 159.889 531.028C159.594 530.85 159.249 530.761 158.855 530.761C158.435 530.761 158.066 530.864 157.747 531.068C157.429 531.269 157.181 531.534 157.003 531.864C156.829 532.189 156.74 532.547 156.736 532.938V534.148C156.736 534.655 156.829 535.091 157.014 535.455C157.2 535.814 157.46 536.091 157.793 536.284C158.126 536.473 158.516 536.568 158.963 536.568C159.263 536.568 159.533 536.527 159.776 536.443C160.018 536.356 160.229 536.229 160.407 536.062C160.585 535.896 160.719 535.689 160.81 535.443L162.73 535.659C162.609 536.167 162.378 536.61 162.037 536.989C161.7 537.364 161.268 537.655 160.742 537.864C160.215 538.068 159.613 538.17 158.935 538.17ZM166.613 532.886V538H164.556V529.273H166.522V530.756H166.624C166.825 530.267 167.145 529.879 167.584 529.591C168.027 529.303 168.575 529.159 169.226 529.159C169.828 529.159 170.353 529.288 170.8 529.545C171.251 529.803 171.599 530.176 171.845 530.665C172.095 531.153 172.219 531.746 172.215 532.443V538H170.158V532.761C170.158 532.178 170.006 531.722 169.703 531.392C169.404 531.062 168.989 530.898 168.459 530.898C168.099 530.898 167.779 530.977 167.499 531.136C167.222 531.292 167.005 531.517 166.845 531.812C166.69 532.108 166.613 532.466 166.613 532.886ZM178.664 529.273V530.864H173.647V529.273H178.664ZM174.885 527.182H176.942V535.375C176.942 535.652 176.984 535.864 177.067 536.011C177.154 536.155 177.268 536.254 177.408 536.307C177.548 536.36 177.703 536.386 177.874 536.386C178.003 536.386 178.12 536.377 178.226 536.358C178.336 536.339 178.419 536.322 178.476 536.307L178.823 537.915C178.713 537.953 178.556 537.994 178.351 538.04C178.15 538.085 177.904 538.112 177.613 538.119C177.097 538.134 176.633 538.057 176.22 537.886C175.808 537.712 175.48 537.443 175.238 537.08C174.999 536.716 174.881 536.261 174.885 535.716V527.182ZM180.384 538V529.273H182.378V530.727H182.469C182.628 530.223 182.901 529.835 183.287 529.562C183.677 529.286 184.122 529.148 184.622 529.148C184.736 529.148 184.863 529.153 185.003 529.165C185.147 529.172 185.266 529.186 185.361 529.205V531.097C185.274 531.066 185.136 531.04 184.946 531.017C184.761 530.991 184.581 530.977 184.407 530.977C184.032 530.977 183.694 531.059 183.395 531.222C183.1 531.381 182.867 531.602 182.696 531.886C182.526 532.17 182.441 532.498 182.441 532.869V538H180.384ZM190.232 538.17C189.357 538.17 188.601 537.989 187.965 537.625C187.332 537.258 186.845 536.739 186.505 536.068C186.164 535.394 185.993 534.6 185.993 533.688C185.993 532.79 186.164 532.002 186.505 531.324C186.849 530.642 187.33 530.112 187.948 529.733C188.565 529.35 189.291 529.159 190.124 529.159C190.662 529.159 191.169 529.246 191.647 529.42C192.128 529.591 192.552 529.856 192.919 530.216C193.291 530.576 193.582 531.034 193.794 531.591C194.006 532.144 194.113 532.803 194.113 533.568V534.199H186.959V532.812H192.141C192.137 532.419 192.052 532.068 191.885 531.761C191.719 531.451 191.486 531.206 191.186 531.028C190.891 530.85 190.546 530.761 190.152 530.761C189.732 530.761 189.363 530.864 189.044 531.068C188.726 531.269 188.478 531.534 188.3 531.864C188.126 532.189 188.037 532.547 188.033 532.938V534.148C188.033 534.655 188.126 535.091 188.311 535.455C188.497 535.814 188.756 536.091 189.09 536.284C189.423 536.473 189.813 536.568 190.26 536.568C190.559 536.568 190.83 536.527 191.073 536.443C191.315 536.356 191.525 536.229 191.703 536.062C191.881 535.896 192.016 535.689 192.107 535.443L194.027 535.659C193.906 536.167 193.675 536.61 193.334 536.989C192.997 537.364 192.565 537.655 192.039 537.864C191.512 538.068 190.91 538.17 190.232 538.17ZM204.179 529.273V530.864H199.162V529.273H204.179ZM200.401 527.182H202.458V535.375C202.458 535.652 202.499 535.864 202.583 536.011C202.67 536.155 202.783 536.254 202.924 536.307C203.064 536.36 203.219 536.386 203.389 536.386C203.518 536.386 203.636 536.377 203.742 536.358C203.852 536.339 203.935 536.322 203.992 536.307L204.338 537.915C204.229 537.953 204.071 537.994 203.867 538.04C203.666 538.085 203.42 538.112 203.128 538.119C202.613 538.134 202.149 538.057 201.736 537.886C201.323 537.712 200.996 537.443 200.753 537.08C200.514 536.716 200.397 536.261 200.401 535.716V527.182ZM205.899 538V529.273H207.956V538H205.899ZM206.934 528.034C206.608 528.034 206.327 527.926 206.093 527.71C205.858 527.491 205.74 527.227 205.74 526.92C205.74 526.61 205.858 526.347 206.093 526.131C206.327 525.911 206.608 525.801 206.934 525.801C207.263 525.801 207.543 525.911 207.774 526.131C208.009 526.347 208.127 526.61 208.127 526.92C208.127 527.227 208.009 527.491 207.774 527.71C207.543 527.926 207.263 528.034 206.934 528.034ZM210.071 538V529.273H212.037V530.756H212.139C212.321 530.256 212.622 529.866 213.043 529.585C213.463 529.301 213.965 529.159 214.549 529.159C215.139 529.159 215.638 529.303 216.043 529.591C216.452 529.875 216.74 530.263 216.907 530.756H216.997C217.191 530.271 217.516 529.884 217.975 529.597C218.437 529.305 218.984 529.159 219.617 529.159C220.42 529.159 221.075 529.413 221.583 529.92C222.09 530.428 222.344 531.169 222.344 532.142V538H220.282V532.46C220.282 531.919 220.138 531.523 219.85 531.273C219.562 531.019 219.21 530.892 218.793 530.892C218.297 530.892 217.908 531.047 217.628 531.358C217.352 531.665 217.213 532.064 217.213 532.557V538H215.196V532.375C215.196 531.924 215.06 531.564 214.787 531.295C214.518 531.027 214.166 530.892 213.73 530.892C213.435 530.892 213.166 530.968 212.924 531.119C212.681 531.267 212.488 531.477 212.344 531.75C212.2 532.019 212.128 532.333 212.128 532.693V538H210.071ZM228.294 538.17C227.419 538.17 226.664 537.989 226.027 537.625C225.395 537.258 224.908 536.739 224.567 536.068C224.226 535.394 224.056 534.6 224.056 533.688C224.056 532.79 224.226 532.002 224.567 531.324C224.912 530.642 225.393 530.112 226.01 529.733C226.628 529.35 227.353 529.159 228.186 529.159C228.724 529.159 229.232 529.246 229.709 529.42C230.19 529.591 230.614 529.856 230.982 530.216C231.353 530.576 231.645 531.034 231.857 531.591C232.069 532.144 232.175 532.803 232.175 533.568V534.199H225.022V532.812H230.203C230.2 532.419 230.114 532.068 229.948 531.761C229.781 531.451 229.548 531.206 229.249 531.028C228.953 530.85 228.609 530.761 228.215 530.761C227.794 530.761 227.425 530.864 227.107 531.068C226.789 531.269 226.541 531.534 226.363 531.864C226.188 532.189 226.099 532.547 226.095 532.938V534.148C226.095 534.655 226.188 535.091 226.374 535.455C226.559 535.814 226.819 536.091 227.152 536.284C227.486 536.473 227.876 536.568 228.323 536.568C228.622 536.568 228.893 536.527 229.135 536.443C229.378 536.356 229.588 536.229 229.766 536.062C229.944 535.896 230.078 535.689 230.169 535.443L232.09 535.659C231.969 536.167 231.738 536.61 231.397 536.989C231.059 537.364 230.628 537.655 230.101 537.864C229.575 538.068 228.972 538.17 228.294 538.17ZM240.813 531.58L238.938 531.784C238.885 531.595 238.792 531.417 238.659 531.25C238.531 531.083 238.356 530.949 238.137 530.847C237.917 530.744 237.648 530.693 237.33 530.693C236.902 530.693 236.542 530.786 236.25 530.972C235.962 531.157 235.82 531.398 235.824 531.693C235.82 531.947 235.913 532.153 236.103 532.312C236.296 532.472 236.614 532.602 237.057 532.705L238.546 533.023C239.372 533.201 239.985 533.483 240.387 533.869C240.792 534.256 240.997 534.761 241 535.386C240.997 535.936 240.836 536.42 240.517 536.841C240.203 537.258 239.765 537.583 239.205 537.818C238.644 538.053 238 538.17 237.273 538.17C236.205 538.17 235.345 537.947 234.693 537.5C234.042 537.049 233.654 536.422 233.529 535.619L235.534 535.426C235.625 535.82 235.818 536.117 236.114 536.318C236.409 536.519 236.794 536.619 237.267 536.619C237.756 536.619 238.148 536.519 238.443 536.318C238.743 536.117 238.892 535.869 238.892 535.574C238.892 535.324 238.796 535.117 238.603 534.955C238.413 534.792 238.118 534.667 237.716 534.58L236.228 534.267C235.39 534.093 234.771 533.799 234.37 533.386C233.968 532.97 233.769 532.443 233.773 531.807C233.769 531.269 233.915 530.803 234.211 530.409C234.51 530.011 234.925 529.705 235.455 529.489C235.989 529.269 236.604 529.159 237.301 529.159C238.324 529.159 239.129 529.377 239.716 529.812C240.307 530.248 240.673 530.837 240.813 531.58Z" fill="black"/>
</g>
<path d="M296.859 548L303.761 521M309.677 528L316.58 535L309.677 541M290.942 541L284.04 535L290.942 528" stroke="#FCFEFF" stroke-width="2" stroke-linecap="round" stroke-linejoin="round"/>
<path d="M598.504 809C598.504 846.003 568.722 876 531.986 876C495.249 876 465.468 846.003 465.468 809C465.468 771.997 495.249 742 531.986 742C568.722 742 598.504 771.997 598.504 809ZM485.324 809C485.324 834.957 506.215 856 531.986 856C557.756 856 578.647 834.957 578.647 809C578.647 783.043 557.756 762 531.986 762C506.215 762 485.324 783.043 485.324 809Z" fill="#EBEBEB"/>
<path d="M531.986 752C531.986 746.477 536.488 741.923 541.948 742.756C550.126 744.003 558.031 746.781 565.245 750.976C575.357 756.857 583.754 765.315 589.592 775.5C595.43 785.685 598.504 797.239 598.504 809C598.504 820.761 595.43 832.315 589.592 842.5C583.754 852.685 575.357 861.143 565.245 867.024C555.133 872.904 543.662 876 531.986 876C520.309 876 508.839 872.904 498.727 867.024C491.465 862.801 485.088 857.249 479.908 850.683C476.52 846.389 478.196 840.28 482.924 837.531V837.531C487.693 834.758 493.742 836.492 497.435 840.59C500.671 844.18 504.452 847.259 508.655 849.703C515.748 853.828 523.795 856 531.986 856C540.176 856 548.223 853.828 555.317 849.703C562.41 845.578 568.301 839.645 572.396 832.5C576.491 825.355 578.647 817.25 578.647 809C578.647 800.75 576.491 792.645 572.396 785.5C568.301 778.355 562.41 772.422 555.317 768.297C551.124 765.859 546.599 764.103 541.908 763.075C536.514 761.892 531.986 757.523 531.986 752V752Z" fill="#FFC107"/>
<path d="M502.28 815V813.449L505.904 810.093C506.212 809.795 506.471 809.526 506.679 809.288C506.892 809.049 507.052 808.815 507.162 808.587C507.271 808.355 507.326 808.104 507.326 807.836C507.326 807.538 507.258 807.281 507.122 807.065C506.986 806.847 506.8 806.679 506.565 806.563C506.33 806.444 506.063 806.384 505.765 806.384C505.453 806.384 505.181 806.447 504.949 806.573C504.717 806.699 504.538 806.88 504.412 807.115C504.286 807.35 504.223 807.63 504.223 807.955H502.18C502.18 807.289 502.331 806.711 502.633 806.22C502.934 805.73 503.357 805.35 503.9 805.082C504.444 804.813 505.07 804.679 505.78 804.679C506.509 804.679 507.143 804.808 507.684 805.067C508.227 805.322 508.65 805.677 508.951 806.131C509.253 806.585 509.404 807.105 509.404 807.692C509.404 808.076 509.328 808.456 509.175 808.83C509.026 809.205 508.759 809.621 508.375 810.078C507.99 810.532 507.448 811.077 506.749 811.714L505.262 813.17V813.24H509.538V815H502.28ZM515.09 815.224C514.235 815.22 513.499 815.01 512.883 814.592C512.27 814.175 511.797 813.57 511.466 812.778C511.138 811.986 510.975 811.033 510.979 809.919C510.979 808.809 511.143 807.862 511.471 807.08C511.802 806.298 512.274 805.703 512.888 805.295C513.504 804.884 514.238 804.679 515.09 804.679C515.942 804.679 516.674 804.884 517.288 805.295C517.904 805.706 518.378 806.303 518.709 807.085C519.041 807.864 519.205 808.809 519.202 809.919C519.202 811.036 519.036 811.991 518.704 812.783C518.376 813.575 517.906 814.18 517.292 814.597C516.679 815.015 515.945 815.224 515.09 815.224ZM515.09 813.439C515.673 813.439 516.139 813.146 516.487 812.559C516.835 811.972 517.007 811.092 517.004 809.919C517.004 809.147 516.925 808.504 516.766 807.99C516.61 807.476 516.388 807.09 516.099 806.832C515.814 806.573 515.478 806.444 515.09 806.444C514.51 806.444 514.046 806.734 513.698 807.314C513.35 807.894 513.174 808.762 513.171 809.919C513.171 810.701 513.249 811.354 513.405 811.878C513.564 812.398 513.788 812.789 514.076 813.051C514.364 813.31 514.702 813.439 515.09 813.439ZM521.994 813.817C521.666 813.817 521.385 813.701 521.149 813.469C520.917 813.237 520.801 812.955 520.801 812.624C520.801 812.299 520.917 812.02 521.149 811.788C521.385 811.556 521.666 811.44 521.994 811.44C522.313 811.44 522.591 811.556 522.83 811.788C523.068 812.02 523.188 812.299 523.188 812.624C523.188 812.842 523.131 813.043 523.019 813.225C522.909 813.404 522.765 813.548 522.586 813.658C522.407 813.764 522.21 813.817 521.994 813.817ZM521.994 808.82C521.666 808.82 521.385 808.704 521.149 808.472C520.917 808.24 520.801 807.959 520.801 807.627C520.801 807.302 520.917 807.026 521.149 806.797C521.385 806.565 521.666 806.449 521.994 806.449C522.313 806.449 522.591 806.565 522.83 806.797C523.068 807.026 523.188 807.302 523.188 807.627C523.188 807.849 523.131 808.051 523.019 808.234C522.909 808.413 522.765 808.555 522.586 808.661C522.407 808.767 522.21 808.82 521.994 808.82ZM528.899 815.224C528.044 815.22 527.308 815.01 526.691 814.592C526.078 814.175 525.606 813.57 525.274 812.778C524.946 811.986 524.784 811.033 524.787 809.919C524.787 808.809 524.951 807.862 525.279 807.08C525.611 806.298 526.083 805.703 526.696 805.295C527.313 804.884 528.047 804.679 528.899 804.679C529.75 804.679 530.483 804.884 531.096 805.295C531.713 805.706 532.187 806.303 532.518 807.085C532.849 807.864 533.013 808.809 533.01 809.919C533.01 811.036 532.844 811.991 532.513 812.783C532.185 813.575 531.714 814.18 531.101 814.597C530.488 815.015 529.754 815.224 528.899 815.224ZM528.899 813.439C529.482 813.439 529.948 813.146 530.296 812.559C530.644 811.972 530.816 811.092 530.813 809.919C530.813 809.147 530.733 808.504 530.574 807.99C530.418 807.476 530.196 807.09 529.908 806.832C529.623 806.573 529.286 806.444 528.899 806.444C528.319 806.444 527.855 806.734 527.507 807.314C527.159 807.894 526.983 808.762 526.98 809.919C526.98 810.701 527.058 811.354 527.213 811.878C527.372 812.398 527.596 812.789 527.884 813.051C528.173 813.31 528.511 813.439 528.899 813.439ZM538.537 815.224C537.682 815.22 536.946 815.01 536.33 814.592C535.717 814.175 535.244 813.57 534.913 812.778C534.585 811.986 534.423 811.033 534.426 809.919C534.426 808.809 534.59 807.862 534.918 807.08C535.249 806.298 535.722 805.703 536.335 805.295C536.951 804.884 537.686 804.679 538.537 804.679C539.389 804.679 540.122 804.884 540.735 805.295C541.351 805.706 541.825 806.303 542.157 807.085C542.488 807.864 542.652 808.809 542.649 809.919C542.649 811.036 542.483 811.991 542.152 812.783C541.824 813.575 541.353 814.18 540.74 814.597C540.127 815.015 539.392 815.224 538.537 815.224ZM538.537 813.439C539.121 813.439 539.586 813.146 539.934 812.559C540.282 811.972 540.455 811.092 540.451 809.919C540.451 809.147 540.372 808.504 540.213 807.99C540.057 807.476 539.835 807.09 539.547 806.832C539.262 806.573 538.925 806.444 538.537 806.444C537.957 806.444 537.493 806.734 537.145 807.314C536.797 807.894 536.622 808.762 536.618 809.919C536.618 810.701 536.696 811.354 536.852 811.878C537.011 812.398 537.235 812.789 537.523 813.051C537.811 813.31 538.15 813.439 538.537 813.439ZM547.484 815V804.818H551.501C552.273 804.818 552.931 804.966 553.474 805.261C554.018 805.552 554.432 805.958 554.717 806.479C555.006 806.996 555.15 807.592 555.15 808.268C555.15 808.945 555.004 809.541 554.712 810.058C554.421 810.575 553.998 810.978 553.445 811.266C552.894 811.555 552.228 811.699 551.446 811.699H548.886V809.974H551.098C551.512 809.974 551.854 809.902 552.122 809.76C552.394 809.614 552.596 809.414 552.729 809.158C552.865 808.9 552.933 808.603 552.933 808.268C552.933 807.93 552.865 807.635 552.729 807.384C552.596 807.128 552.394 806.931 552.122 806.792C551.85 806.649 551.506 806.578 551.088 806.578H549.636V815H547.484ZM556.548 804.818H559.203L562.007 811.659H562.126L564.93 804.818H567.585V815H565.497V808.373H565.413L562.778 814.95H561.356L558.721 808.348H558.636V815H556.548V804.818Z" fill="white"/>
<g filter="url(#filter4_d_2_224)">
<rect x="627.295" y="778" width="260.115" height="65" rx="10" fill="#FAFCFF"/>
<path d="M626.302 833V788C626.302 782.477 630.779 778 636.302 778H685.871V843H636.302C630.779 843 626.302 838.523 626.302 833Z" fill="#7E57C2"/>
<path d="M708.86 815V803.364H716.428V805.131H710.968V808.29H716.036V810.057H710.968V813.233H716.474V815H708.86ZM720.545 809.886V815H718.488V806.273H720.454V807.756H720.556C720.757 807.267 721.077 806.879 721.516 806.591C721.959 806.303 722.507 806.159 723.158 806.159C723.761 806.159 724.285 806.288 724.732 806.545C725.183 806.803 725.531 807.176 725.778 807.665C726.028 808.153 726.151 808.746 726.147 809.443V815H724.09V809.761C724.09 809.178 723.939 808.722 723.636 808.392C723.336 808.062 722.921 807.898 722.391 807.898C722.031 807.898 721.711 807.977 721.431 808.136C721.154 808.292 720.937 808.517 720.778 808.812C720.622 809.108 720.545 809.466 720.545 809.886ZM732.045 815.17C731.173 815.17 730.425 814.979 729.8 814.597C729.179 814.214 728.7 813.686 728.363 813.011C728.029 812.333 727.863 811.553 727.863 810.67C727.863 809.784 728.033 809.002 728.374 808.324C728.715 807.642 729.196 807.112 729.817 806.733C730.442 806.35 731.181 806.159 732.033 806.159C732.742 806.159 733.368 806.29 733.914 806.551C734.463 806.809 734.901 807.174 735.226 807.648C735.552 808.117 735.738 808.667 735.783 809.295H733.817C733.738 808.875 733.548 808.525 733.249 808.244C732.954 807.96 732.558 807.818 732.062 807.818C731.641 807.818 731.272 807.932 730.954 808.159C730.636 808.383 730.387 808.705 730.209 809.125C730.035 809.545 729.948 810.049 729.948 810.636C729.948 811.231 730.035 811.742 730.209 812.17C730.384 812.595 730.628 812.922 730.942 813.153C731.261 813.381 731.634 813.494 732.062 813.494C732.365 813.494 732.636 813.437 732.874 813.324C733.117 813.206 733.319 813.038 733.482 812.818C733.645 812.598 733.757 812.331 733.817 812.017H735.783C735.734 812.634 735.552 813.182 735.238 813.659C734.923 814.133 734.495 814.504 733.954 814.773C733.412 815.038 732.776 815.17 732.045 815.17ZM741.336 815.17C740.461 815.17 739.705 814.989 739.069 814.625C738.436 814.258 737.949 813.739 737.609 813.068C737.268 812.394 737.097 811.6 737.097 810.688C737.097 809.79 737.268 809.002 737.609 808.324C737.953 807.642 738.434 807.112 739.052 806.733C739.669 806.35 740.395 806.159 741.228 806.159C741.766 806.159 742.273 806.246 742.751 806.42C743.232 806.591 743.656 806.856 744.023 807.216C744.395 807.576 744.686 808.034 744.898 808.591C745.11 809.144 745.216 809.803 745.216 810.568V811.199H738.063V809.812H743.245C743.241 809.419 743.156 809.068 742.989 808.761C742.823 808.451 742.59 808.206 742.29 808.028C741.995 807.85 741.65 807.761 741.256 807.761C740.836 807.761 740.466 807.864 740.148 808.068C739.83 808.269 739.582 808.534 739.404 808.864C739.23 809.189 739.141 809.547 739.137 809.938V811.148C739.137 811.655 739.23 812.091 739.415 812.455C739.601 812.814 739.86 813.091 740.194 813.284C740.527 813.473 740.917 813.568 741.364 813.568C741.663 813.568 741.934 813.527 742.177 813.443C742.419 813.356 742.629 813.229 742.807 813.062C742.985 812.896 743.12 812.689 743.211 812.443L745.131 812.659C745.01 813.167 744.779 813.61 744.438 813.989C744.101 814.364 743.669 814.655 743.143 814.864C742.616 815.068 742.014 815.17 741.336 815.17ZM746.957 815V806.273H748.951V807.727H749.042C749.201 807.223 749.474 806.835 749.86 806.562C750.25 806.286 750.695 806.148 751.195 806.148C751.309 806.148 751.436 806.153 751.576 806.165C751.72 806.172 751.839 806.186 751.934 806.205V808.097C751.847 808.066 751.708 808.04 751.519 808.017C751.333 807.991 751.154 807.977 750.979 807.977C750.604 807.977 750.267 808.059 749.968 808.222C749.672 808.381 749.439 808.602 749.269 808.886C749.099 809.17 749.013 809.498 749.013 809.869V815H746.957ZM753.3 815V806.273H755.295V807.727H755.386C755.545 807.223 755.817 806.835 756.204 806.562C756.594 806.286 757.039 806.148 757.539 806.148C757.653 806.148 757.779 806.153 757.92 806.165C758.064 806.172 758.183 806.186 758.278 806.205V808.097C758.19 808.066 758.052 808.04 757.863 808.017C757.677 807.991 757.497 807.977 757.323 807.977C756.948 807.977 756.611 808.059 756.312 808.222C756.016 808.381 755.783 808.602 755.613 808.886C755.442 809.17 755.357 809.498 755.357 809.869V815H753.3ZM761.999 815.176C761.446 815.176 760.948 815.078 760.505 814.881C760.065 814.68 759.717 814.384 759.459 813.994C759.206 813.604 759.079 813.123 759.079 812.551C759.079 812.059 759.17 811.652 759.351 811.33C759.533 811.008 759.781 810.75 760.096 810.557C760.41 810.364 760.764 810.218 761.158 810.119C761.556 810.017 761.967 809.943 762.391 809.898C762.903 809.845 763.317 809.797 763.636 809.756C763.954 809.71 764.185 809.642 764.329 809.551C764.476 809.456 764.55 809.311 764.55 809.114V809.08C764.55 808.652 764.423 808.32 764.17 808.085C763.916 807.85 763.55 807.733 763.073 807.733C762.569 807.733 762.17 807.843 761.874 808.062C761.582 808.282 761.386 808.542 761.283 808.841L759.363 808.568C759.514 808.038 759.764 807.595 760.113 807.239C760.461 806.879 760.887 806.61 761.391 806.432C761.895 806.25 762.452 806.159 763.062 806.159C763.482 806.159 763.901 806.208 764.317 806.307C764.734 806.405 765.115 806.568 765.459 806.795C765.804 807.019 766.081 807.324 766.289 807.71C766.501 808.097 766.607 808.58 766.607 809.159V815H764.63V813.801H764.562C764.437 814.044 764.261 814.271 764.033 814.483C763.81 814.691 763.528 814.86 763.187 814.989C762.85 815.114 762.454 815.176 761.999 815.176ZM762.533 813.665C762.946 813.665 763.304 813.583 763.607 813.42C763.91 813.254 764.143 813.034 764.306 812.761C764.473 812.489 764.556 812.191 764.556 811.869V810.841C764.492 810.894 764.382 810.943 764.226 810.989C764.075 811.034 763.904 811.074 763.715 811.108C763.526 811.142 763.338 811.172 763.153 811.199C762.967 811.225 762.806 811.248 762.67 811.267C762.363 811.309 762.088 811.377 761.846 811.472C761.603 811.566 761.412 811.699 761.272 811.869C761.132 812.036 761.062 812.252 761.062 812.517C761.062 812.896 761.2 813.182 761.476 813.375C761.753 813.568 762.105 813.665 762.533 813.665ZM768.675 815V806.273H770.641V807.756H770.743C770.925 807.256 771.226 806.866 771.647 806.585C772.067 806.301 772.569 806.159 773.153 806.159C773.743 806.159 774.242 806.303 774.647 806.591C775.056 806.875 775.344 807.263 775.511 807.756H775.601C775.795 807.271 776.12 806.884 776.579 806.597C777.041 806.305 777.588 806.159 778.221 806.159C779.024 806.159 779.679 806.413 780.187 806.92C780.694 807.428 780.948 808.169 780.948 809.142V815H778.886V809.46C778.886 808.919 778.742 808.523 778.454 808.273C778.166 808.019 777.814 807.892 777.397 807.892C776.901 807.892 776.512 808.047 776.232 808.358C775.956 808.665 775.817 809.064 775.817 809.557V815H773.8V809.375C773.8 808.924 773.664 808.564 773.391 808.295C773.122 808.027 772.77 807.892 772.334 807.892C772.039 807.892 771.77 807.968 771.528 808.119C771.285 808.267 771.092 808.477 770.948 808.75C770.804 809.019 770.732 809.333 770.732 809.693V815H768.675ZM786.898 815.17C786.023 815.17 785.268 814.989 784.631 814.625C783.999 814.258 783.512 813.739 783.171 813.068C782.83 812.394 782.66 811.6 782.66 810.688C782.66 809.79 782.83 809.002 783.171 808.324C783.516 807.642 783.997 807.112 784.614 806.733C785.232 806.35 785.957 806.159 786.79 806.159C787.328 806.159 787.836 806.246 788.313 806.42C788.794 806.591 789.218 806.856 789.586 807.216C789.957 807.576 790.249 808.034 790.461 808.591C790.673 809.144 790.779 809.803 790.779 810.568V811.199H783.626V809.812H788.807C788.804 809.419 788.718 809.068 788.552 808.761C788.385 808.451 788.152 808.206 787.853 808.028C787.557 807.85 787.213 807.761 786.819 807.761C786.398 807.761 786.029 807.864 785.711 808.068C785.393 808.269 785.145 808.534 784.966 808.864C784.792 809.189 784.703 809.547 784.699 809.938V811.148C784.699 811.655 784.792 812.091 784.978 812.455C785.163 812.814 785.423 813.091 785.756 813.284C786.09 813.473 786.48 813.568 786.927 813.568C787.226 813.568 787.497 813.527 787.739 813.443C787.982 813.356 788.192 813.229 788.37 813.062C788.548 812.896 788.682 812.689 788.773 812.443L790.694 812.659C790.573 813.167 790.341 813.61 790.001 813.989C789.663 814.364 789.232 814.655 788.705 814.864C788.179 815.068 787.576 815.17 786.898 815.17ZM794.576 809.886V815H792.519V806.273H794.485V807.756H794.587C794.788 807.267 795.108 806.879 795.547 806.591C795.991 806.303 796.538 806.159 797.189 806.159C797.792 806.159 798.316 806.288 798.763 806.545C799.214 806.803 799.563 807.176 799.809 807.665C800.059 808.153 800.182 808.746 800.178 809.443V815H798.121V809.761C798.121 809.178 797.97 808.722 797.667 808.392C797.368 808.062 796.953 807.898 796.422 807.898C796.063 807.898 795.743 807.977 795.462 808.136C795.186 808.292 794.968 808.517 794.809 808.812C794.654 809.108 794.576 809.466 794.576 809.886ZM806.627 806.273V807.864H801.61V806.273H806.627ZM802.849 804.182H804.905V812.375C804.905 812.652 804.947 812.864 805.03 813.011C805.118 813.155 805.231 813.254 805.371 813.307C805.511 813.36 805.667 813.386 805.837 813.386C805.966 813.386 806.083 813.377 806.189 813.358C806.299 813.339 806.383 813.322 806.439 813.307L806.786 814.915C806.676 814.953 806.519 814.994 806.314 815.04C806.114 815.085 805.868 815.112 805.576 815.119C805.061 815.134 804.597 815.057 804.184 814.886C803.771 814.712 803.443 814.443 803.201 814.08C802.962 813.716 802.845 813.261 802.849 812.716V804.182ZM812.06 815.17C811.208 815.17 810.469 814.983 809.844 814.608C809.219 814.233 808.734 813.708 808.39 813.034C808.049 812.36 807.878 811.572 807.878 810.67C807.878 809.769 808.049 808.979 808.39 808.301C808.734 807.623 809.219 807.097 809.844 806.722C810.469 806.347 811.208 806.159 812.06 806.159C812.913 806.159 813.651 806.347 814.276 806.722C814.901 807.097 815.384 807.623 815.725 808.301C816.07 808.979 816.242 809.769 816.242 810.67C816.242 811.572 816.07 812.36 815.725 813.034C815.384 813.708 814.901 814.233 814.276 814.608C813.651 814.983 812.913 815.17 812.06 815.17ZM812.072 813.523C812.534 813.523 812.92 813.396 813.231 813.142C813.541 812.884 813.772 812.54 813.924 812.108C814.079 811.676 814.157 811.195 814.157 810.665C814.157 810.131 814.079 809.648 813.924 809.216C813.772 808.78 813.541 808.434 813.231 808.176C812.92 807.919 812.534 807.79 812.072 807.79C811.598 807.79 811.204 807.919 810.89 808.176C810.579 808.434 810.346 808.78 810.191 809.216C810.039 809.648 809.964 810.131 809.964 810.665C809.964 811.195 810.039 811.676 810.191 812.108C810.346 812.54 810.579 812.884 810.89 813.142C811.204 813.396 811.598 813.523 812.072 813.523Z" fill="black"/>
<path d="M661.05 809L656.086 805C655.827 804.839 655.405 805.014 655.094 805C654.782 804.986 654.375 804.863 654.101 805C653.826 805.137 653.268 805.752 653.108 806C652.948 806.248 653.107 806.711 653.108 807V813C653.108 813.289 652.948 813.752 653.108 814C653.268 814.248 653.826 814.864 654.101 815C654.375 815.136 654.783 815.014 655.094 815C655.404 814.986 655.827 815.16 656.086 815L661.05 811C661.286 810.854 661.91 811.232 662.043 811C662.177 810.768 662.043 810.263 662.043 810C662.043 809.737 662.177 809.232 662.043 809C661.91 808.768 661.286 809.146 661.05 809V809Z" stroke="#FCFEFF" stroke-width="2" stroke-linecap="round" stroke-linejoin="round"/>
<path d="M670.978 810C670.978 811.97 670.734 814.18 669.986 816C669.237 817.82 668.39 819.607 667.007 821C665.624 822.393 663.85 823.246 662.043 824C660.236 824.754 658.042 825 656.086 825C654.131 825 651.936 824.754 650.129 824C648.323 823.246 646.548 822.393 645.165 821C643.783 819.607 642.935 817.82 642.187 816C641.439 814.18 641.194 811.97 641.194 810C641.194 806.022 642.373 801.813 645.165 799C647.958 796.187 652.137 795 656.086 795C660.036 795 664.214 796.187 667.007 799C669.8 801.813 670.978 806.022 670.978 810Z" stroke="#FCFEFF" stroke-width="2" stroke-linecap="round" stroke-linejoin="round"/>
</g>
<path d="M641.194 826V819M656.086 797V806M641.194 819V799C641.194 798.116 641.566 797.625 642.187 797C642.808 796.375 643.295 796 644.173 796H655.094L657.079 798H670.978L666.014 808L670.978 818H657.079L655.094 816H644.173C643.295 816 642.808 816.375 642.187 817C641.566 817.625 641.194 818.116 641.194 819V819Z" stroke="#FCFEFF" stroke-width="2" stroke-linecap="round" stroke-linejoin="round"/>
<path d="M533.971 162V714" stroke="#FAFCFF"/>
<defs>
<filter id="filter0_d_2_224" x="627" y="35" width="339" height="73" filterUnits="userSpaceOnUse" color-interpolation-filters="sRGB">
<feFlood flood-opacity="0" result="BackgroundImageFix"/>
<feColorMatrix in="SourceAlpha" type="matrix" values="0 0 0 0 0 0 0 0 0 0 0 0 0 0 0 0 0 0 127 0" result="hardAlpha"/>
<feOffset dy="4"/>
<feGaussianBlur stdDeviation="2"/>
<feComposite in2="hardAlpha" operator="out"/>
<feColorMatrix type="matrix" values="0 0 0 0 0.0763636 0 0 0 0 0.121364 0 0 0 0 0.18 0 0 0 0.2 0"/>
<feBlend mode="normal" in2="BackgroundImageFix" result="effect1_dropShadow_2_224"/>
<feBlend mode="normal" in="SourceGraphic" in2="effect1_dropShadow_2_224" result="shape"/>
</filter>
<filter id="filter1_d_2_224" x="0" y="250" width="336.347" height="72" filterUnits="userSpaceOnUse" color-interpolation-filters="sRGB">
<feFlood flood-opacity="0" result="BackgroundImageFix"/>
<feColorMatrix in="SourceAlpha" type="matrix" values="0 0 0 0 0 0 0 0 0 0 0 0 0 0 0 0 0 0 127 0" result="hardAlpha"/>
<feOffset dy="4"/>
<feGaussianBlur stdDeviation="2"/>
<feComposite in2="hardAlpha" operator="out"/>
<feColorMatrix type="matrix" values="0 0 0 0 0.0763636 0 0 0 0 0.121364 0 0 0 0 0.18 0 0 0 0.2 0"/>
<feBlend mode="normal" in2="BackgroundImageFix" result="effect1_dropShadow_2_224"/>
<feBlend mode="normal" in="SourceGraphic" in2="effect1_dropShadow_2_224" result="shape"/>
</filter>
<filter id="filter2_d_2_224" x="730.606" y="371" width="338.334" height="73" filterUnits="userSpaceOnUse" color-interpolation-filters="sRGB">
<feFlood flood-opacity="0" result="BackgroundImageFix"/>
<feColorMatrix in="SourceAlpha" type="matrix" values="0 0 0 0 0 0 0 0 0 0 0 0 0 0 0 0 0 0 127 0" result="hardAlpha"/>
<feOffset dy="4"/>
<feGaussianBlur stdDeviation="2"/>
<feComposite in2="hardAlpha" operator="out"/>
<feColorMatrix type="matrix" values="0 0 0 0 0.0763636 0 0 0 0 0.121364 0 0 0 0 0.18 0 0 0 0.2 0"/>
<feBlend mode="normal" in2="BackgroundImageFix" result="effect1_dropShadow_2_224"/>
<feBlend mode="normal" in="SourceGraphic" in2="effect1_dropShadow_2_224" result="shape"/>
</filter>
<filter id="filter3_d_2_224" x="0" y="501" width="334.385" height="72" filterUnits="userSpaceOnUse" color-interpolation-filters="sRGB">
<feFlood flood-opacity="0" result="BackgroundImageFix"/>
<feColorMatrix in="SourceAlpha" type="matrix" values="0 0 0 0 0 0 0 0 0 0 0 0 0 0 0 0 0 0 127 0" result="hardAlpha"/>
<feOffset dy="4"/>
<feGaussianBlur stdDeviation="2"/>
<feComposite in2="hardAlpha" operator="out"/>
<feColorMatrix type="matrix" values="0 0 0 0 0.0763636 0 0 0 0 0.121364 0 0 0 0 0.18 0 0 0 0.2 0"/>
<feBlend mode="normal" in2="BackgroundImageFix" result="effect1_dropShadow_2_224"/>
<feBlend mode="normal" in="SourceGraphic" in2="effect1_dropShadow_2_224" result="shape"/>
</filter>
<filter id="filter4_d_2_224" x="622.302" y="778" width="336.619" height="73" filterUnits="userSpaceOnUse" color-interpolation-filters="sRGB">
<feFlood flood-opacity="0" result="BackgroundImageFix"/>
<feColorMatrix in="SourceAlpha" type="matrix" values="0 0 0 0 0 0 0 0 0 0 0 0 0 0 0 0 0 0 127 0" result="hardAlpha"/>
<feOffset dy="4"/>
<feGaussianBlur stdDeviation="2"/>
<feComposite in2="hardAlpha" operator="out"/>
<feColorMatrix type="matrix" values="0 0 0 0 0.0763636 0 0 0 0 0.121364 0 0 0 0 0.18 0 0 0 0.2 0"/>
<feBlend mode="normal" in2="BackgroundImageFix" result="effect1_dropShadow_2_224"/>
<feBlend mode="normal" in="SourceGraphic" in2="effect1_dropShadow_2_224" result="shape"/>
</filter>
</defs>
</svg>
