<svg width="1202" height="124" viewBox="0 0 1202 124" fill="none" xmlns="http://www.w3.org/2000/svg">
<g clip-path="url(#clip0_310_159)">
<path opacity="0.25" d="M1201.19 120.029L1201.04 73.7391C1153.18 51.6961 1097.35 41.9094 1042.95 46.2581C972.609 51.8591 906.731 80.0157 836.275 84.4371C762.45 89.0395 688.68 68.0417 617.96 49.8939C548.632 32.1214 479.579 25.4682 408.518 37.5016C372.388 43.6203 338.728 55.5709 304.165 67.1845C211.627 98.2786 88.2467 137.974 1.02797 71.5001L1.20028 123.97L1201.19 120.029Z" fill="#2E486A"/>
<path opacity="0.5" d="M1201.19 120.029L1201.14 104.219C1188.07 83.1517 1173.37 63.2599 1153.27 48.1358C1101.42 9.08588 1035.83 9.57129 976.314 29.1869C945.198 39.4391 916.31 55.4541 886.775 69.2811C845.918 88.4154 802.197 115.559 756.109 119.381C719.859 122.35 685.179 110.193 657.406 88.1445C625.553 62.859 594.883 26.3495 553.537 15.4853C513.062 4.82812 472.209 22.4424 434.487 40.1564C396.765 57.8703 359.456 79.403 317.709 83.5901C257.999 89.6362 204.355 61.0823 148.683 45.305C118.454 36.7442 89.6628 39.3288 61.6179 53.091C39.2237 64.0546 13.7065 80.1785 1.12987 102.53L1.20028 123.97L1201.19 120.029Z" fill="#2E486A"/>
<path d="M1201.19 120.029L1201.18 114.399C1051.07 61.5215 886.871 49.7407 725.227 79.0217C682.252 86.8029 641.063 99.4183 597.704 105.901C538.733 114.724 485.185 94.0302 432.029 71.0446C373.015 45.5283 314.886 27.6991 249.703 33.1532C163.197 40.4373 77.3944 79.4293 1.18324 118.78L1.20028 123.97L1201.19 120.029Z" fill="#2E486A"/>
</g>
<defs>
<clipPath id="clip0_310_159">
<rect width="1200" height="120" fill="white" transform="translate(1201.19 120.029) rotate(179.812)"/>
</clipPath>
</defs>
</svg>
