<svg width="1726" height="1261" viewBox="0 0 1726 1261" fill="none" xmlns="http://www.w3.org/2000/svg">
<path d="M343 1147.03C212.19 1155.05 -4 1260.03 -4 1260.03H1726V-0.97035C1726 -0.97035 1649.4 -14.5371 1602 -0.97035C1555.08 12.459 1528.56 29.147 1489 66.0296C1458.89 94.1075 1437.54 107.745 1421 152.03C1408.05 186.698 1421.68 216.659 1407 250.03C1392.1 283.901 1372.15 289.252 1349 313.03C1313.83 349.148 1282.97 353.704 1255 400.03C1215.99 464.638 1247.09 536.38 1212 605.03C1172.64 682.025 1119.62 681.108 1066 740.03C1005.14 806.902 1105.59 868.221 1066 960.03C1044.3 1010.36 940.688 1000.4 898 1056.03C833.552 1140.02 727.946 1061.72 641 1089.03C583.692 1107.03 565.61 1130.92 508 1147.03C440.574 1165.89 411.766 1142.82 343 1147.03Z" fill="url(#paint0_radial_2_99)"/>
<path d="M343 1147.03C212.19 1155.05 -4 1260.03 -4 1260.03H1726V-0.97035C1726 -0.97035 1649.4 -14.5371 1602 -0.97035C1555.08 12.459 1528.56 29.147 1489 66.0296C1458.89 94.1075 1437.54 107.745 1421 152.03C1408.05 186.698 1421.68 216.659 1407 250.03C1392.1 283.901 1372.15 289.252 1349 313.03C1313.83 349.148 1282.97 353.704 1255 400.03C1215.99 464.638 1247.09 536.38 1212 605.03C1172.64 682.025 1119.62 681.108 1066 740.03C1005.14 806.902 1105.59 868.221 1066 960.03C1044.3 1010.36 940.688 1000.4 898 1056.03C833.552 1140.02 727.946 1061.72 641 1089.03C583.692 1107.03 565.61 1130.92 508 1147.03C440.574 1165.89 411.766 1142.82 343 1147.03Z" fill="black" fill-opacity="0.2"/>
<defs>
<radialGradient id="paint0_radial_2_99" cx="0" cy="0" r="1" gradientUnits="userSpaceOnUse" gradientTransform="translate(1770.5 -23.2961) rotate(125.325) scale(1572.93 2753.86)">
<stop stop-color="#7E57C2" stop-opacity="0.96"/>
<stop offset="0.437076" stop-color="#385984"/>
</radialGradient>
</defs>
</svg>
