<svg width="1728" height="1180" viewBox="0 0 1728 1180" fill="none" xmlns="http://www.w3.org/2000/svg">
<path d="M332.441 1124.43C201.631 1131.93 0 1180 0 1180H1730V1.63465C1730 1.63465 1653.37 -11.0433 1605.96 1.63465C1559.04 14.1843 1533.03 29.7589 1493.47 64.2253C1463.36 90.4638 1441.22 103.315 1424.68 144.699C1411.73 177.097 1425.29 204.846 1410.62 236.03C1395.72 267.682 1376.02 273.208 1352.86 295.428C1317.7 329.18 1287.43 332.61 1259.46 375.901C1220.45 436.277 1250.86 503.992 1215.77 568.144C1176.42 640.096 1123.26 638.903 1069.64 693.964C1008.78 756.456 966.103 786.362 926.517 872.156C896.603 936.987 919.992 1002.19 877.303 1054.18C812.855 1132.67 735.759 1028.66 648.813 1054.18C591.504 1071 566.316 1109.38 508.705 1124.43C441.279 1142.06 401.207 1120.5 332.441 1124.43Z" fill="url(#paint0_radial_2_99)"/>
<path d="M332.441 1124.43C201.631 1131.93 0 1180 0 1180H1730V1.63465C1730 1.63465 1653.37 -11.0433 1605.96 1.63465C1559.04 14.1843 1533.03 29.7589 1493.47 64.2253C1463.36 90.4638 1441.22 103.315 1424.68 144.699C1411.73 177.097 1425.29 204.846 1410.62 236.03C1395.72 267.682 1376.02 273.208 1352.86 295.428C1317.7 329.18 1287.43 332.61 1259.46 375.901C1220.45 436.277 1250.86 503.992 1215.77 568.144C1176.42 640.096 1123.26 638.903 1069.64 693.964C1008.78 756.456 966.103 786.362 926.517 872.156C896.603 936.987 919.992 1002.19 877.303 1054.18C812.855 1132.67 735.759 1028.66 648.813 1054.18C591.504 1071 566.316 1109.38 508.705 1124.43C441.279 1142.06 401.207 1120.5 332.441 1124.43Z" fill="black" fill-opacity="0.2"/>
<defs>
<radialGradient id="paint0_radial_2_99" cx="0" cy="0" r="1" gradientUnits="userSpaceOnUse" gradientTransform="translate(1774.5 -19.2282) rotate(127.177) scale(1505.1 2689.37)">
<stop stop-color="#7E57C2" stop-opacity="0.96"/>
<stop offset="0.437076" stop-color="#385984"/>
</radialGradient>
</defs>
</svg>
